{
.appVersion = "3187";
.formatVersion = 3;
DisplayStrings = (
"ĂĂĀĀĄĄÅÅǼǼǢǢĆĆČČĈĈĎĎÉÉĔĔĚĚĒĒĘĘĞĞǦǦĜĜĤĤÍÍĬĬĪĪĮĮĨĨĴĴĹĹŃŃŇŇÓÓŎŎŐŐŌŌǾǾŔŔŘŘŚŚŠŠŞŞŜŜŤŤŢŢÚÚŬŬŰŰŪŪŲŲŮŮŨŨŴŴÝÝŶŶŸŸŹŹŽŽǍǍǏǏǑǑǓǓǨǨǪǪǬǬǴǴǸǸȞȞȨȨȲȲăăāāąąååǽǽǣǣććččĉĉééĕĕěěēēęęğğǧǧĝĝĥĥííĭĭīīįįĩĩĵĵĺĺńńňňóóŏŏőőōōǿǿŕŕřřśśššşşŝŝţţúúŭŭűűūūǎǎǐǐǒǒǔǔǩǩǫǫǭǭǵǵǹǹȟȟȩȩȳȳųųůůũũŵŵýýŷŷÿÿźźžžАВЃЃЕЀЀЁЁЙЙЍЍКЌЌМОРСЎЎХЫЫЇЇ/Iishort-cy.loclBGR/Ka-cy.loclBGR ааѓѓеѐѐёёййѝѝќќорсуўўхїї/ii-cy.loclBGR/ii-cy.loclBGR/iishort-cy.loclBGR/iishort-cy.loclBGR/iigrave-cy.loclBGR/iigrave-cy.loclBGR/ka-cy.loclBGR/ka-cy.loclBGR/pe-cy.loclBGR/pe-cy.loclBGR/te-cy.loclBGR/te-cy.loclBGR",
"В този момент моят алгоритъм генерира случайно
 набрани букви на кирилица: фхъъа фхъъъ хъъъв
 фвъаъ афафва дфвафвв фафваф. Надявам се,
 че тези символи ви харесват и ви забавляват."
);
date = "2023-04-20 09:53:18 +0000";
familyName = "New Font";
featurePrefixes = (
{
code = "languagesystem latn dflt;
";
name = Languagesystems;
},
{
code = "# GSUB 
lookup onumOldstyleFiguresinLatinlookup0 {
  lookupflag 0;
    sub \\zero by \\zero.propold ;
    sub \\one by \\one.propold ;
    sub \\two by \\two.propold ;
    sub \\three by \\three.propold ;
    sub \\four by \\four.propold ;
    sub \\five by \\five.propold ;
    sub \\six by \\six.propold ;
    sub \\seven by \\seven.propold ;
    sub \\eight by \\eight.propold ;
    sub \\nine by \\nine.propold ;
} onumOldstyleFiguresinLatinlookup0;

# GPOS 
lookup kernHorizontalKerninginLatinlookup0 {
  lookupflag 0;
    pos \\a \\Y -57;
    pos \\a \\W -32;
    pos \\a \\V -48;
    pos \\a \\T -81;
    pos \\b \\Y -32;
    pos \\b \\V -38;
    pos \\b \\T -28;
    pos \\c \\Y -41;
    pos \\c \\V -32;
    pos \\c \\T -55;
    pos \\e \\Y -38;
    pos \\e \\V -24;
    pos \\e \\T -55;
    pos \\f \\J -45;
    pos \\f \\A -20;
    pos \\f \\s -12;
    pos \\f \\j -8;
    pos \\f \\g -16;
    pos \\f \\c -8;
    pos \\g \\y 15;
    pos \\g \\j 73;
    pos \\h \\Y -40;
    pos \\h \\T -16;
    pos \\j \\f -20;
    pos \\k \\y -5;

glyphs = (
{
glyphname = A;
layers = (
{
layerId = master01;
shapes = (
{
closed = 1;
nodes = (
(243,649,l),
(391,649,l),
(604,0,l),
(479,0,l),
(434,140,l),
(193,140,l),
(147,0,l),
(22,0,l)
);
},
{
closed = 1;
nodes = (
(405,229,l),
(315,508,l),
(223,229,l)
);
}
);
width = 626;
}
);
unicode = 65;
},
{
glyphname = Aacute;
layers = (
{
layerId = master01;
shapes = (
{
closed = 1;
nodes = (
(243,649,l),
(391,649,l),
(604,0,l),
(479,0,l),
(434,140,l),
(193,140,l),
(147,0,l),
(22,0,l)
);
},
{
closed = 1;
nodes = (
(429,900,l),
(471,798,l),
(192,694,l),
(162,768,l)
);
},
{
closed = 1;
nodes = (
(405,229,l),
(315,508,l),
(223,229,l)
);
}
);
width = 626;
}
);
unicode = 193;
},
{
glyphname = Acircumflex;
layers = (
{
layerId = master01;
shapes = (
{
closed = 1;
nodes = (
(243,649,l),
(391,649,l),
(604,0,l),
(479,0,l),
(434,140,l),
(193,140,l),
(147,0,l),
(22,0,l)
);
},
{
closed = 1;
nodes = (
(316,913,l),
(524,752,l),
(449,693,l),
(316,794,l),
(182,693,l),
(107,752,l)
);
},
{
closed = 1;
nodes = (
(405,229,l),
(315,508,l),
(223,229,l)
);
}
);
width = 626;
}
);
unicode = 194;
},
{
glyphname = Adieresis;
layers = (
{
layerId = master01;
shapes = (
{
closed = 1;
nodes = (
(243,649,l),
(391,649,l),
(604,0,l),
(479,0,l),
(434,140,l),
(193,140,l),
(147,0,l),
(22,0,l)
);
},
{
closed = 1;
nodes = (
(188,881,o),
(250,881,o),
(290,843,o),
(290,786,o),
(250,749,o),
(188,749,o),
(149,786,o),
(149,843,o)
);
},
{
closed = 1;
nodes = (
(405,229,l),
(315,508,l),
(223,229,l)
);
},
{
closed = 1;
nodes = (
(382,882,o),
(443,882,o),
(483,844,o),
(483,786,o),
(443,750,o),
(382,750,o),
(342,786,o),
(342,844,o)
);
}
);
width = 626;
}
);
unicode = 196;
},
{
glyphname = Agrave;
layers = (
{
layerId = master01;
shapes = (
{
closed = 1;
nodes = (
(243,649,l),
(391,649,l),
(604,0,l),
(479,0,l),
(434,140,l),
(193,140,l),
(147,0,l),
(22,0,l)
);
},
{
closed = 1;
nodes = (
(205,900,l),
(472,768,l),
(442,694,l),
(163,798,l)
);
},
{
closed = 1;
nodes = (
(405,229,l),
(315,508,l),
(223,229,l)
);
}
);
width = 626;
}
);
unicode = 192;
},
{
glyphname = Atilde;
layers = (
{
layerId = master01;
shapes = (
{
closed = 1;
nodes = (
(243,649,l),
(391,649,l),
(604,0,l),
(479,0,l),
(434,140,l),
(193,140,l),
(147,0,l),
(22,0,l)
);
},
{
closed = 1;
nodes = (
(155,820,o),
(212,887,o),
(250,887,qs),
(276.714,887,o),
(349,850,o),
(374,838,o),
(386,838,qs),
(418.269,838,o),
(439,887,q),
(489,854,l),
(478,800,o),
(421,731,o),
(389,731,qs),
(371,731,o),
(336,745,o),
(309.5,758.5,qs),
(265.333,781,o),
(249.167,781,qs),
(214.138,781,o),
(190,731,q),
(143,759,l)
);
},
{
closed = 1;
nodes = (
(405,229,l),
(315,508,l),
(223,229,l)
);
}
);
width = 626;
}
);
unicode = 195;
},
{
glyphname = AE;
layers = (
{
layerId = master01;
shapes = (
{
closed = 1;
nodes = (
(150,0,l),
(207,140,l),
(412,140,l),
(412,0,l),
(830,0,l),
(830,103,l),
(530,103,l),
(530,274,l),
(811,274,l),
(811,376,l),
(530,376,l),
(530,547,l),
(830,547,l),
(830,649,l),
(288,649,l),
(22,0,l)
);
},
{
closed = 1;
nodes = (
(373,547,l),
(412,547,l),
(412,229,l),
(244,229,l)
);
}
);
width = 906;
}
);
unicode = 198;
},
{
glyphname = B;
layers = (
{
layerId = master01;
shapes = (
{
closed = 1;
nodes = (
(93,649,l),
(355,649,ls),
(463.404,649,o),
(522.5,598.5,qs),
(578,551.073,o),
(578,477,qs),
(578,422,o),
(517,344,o),
(462,328,q),
(517,317,o),
(589,240,o),
(589,180,qs),
(589,60.133,o),
(470,16.5,qs),
(425,0,o),
(356,0,qs),
(93,0,l)
);
},
{
closed = 1;
nodes = (
(353,103,ls),
(410,103,o),
(461,149,o),
(461,225,o),
(408,272,o),
(353,272,qs),
(211,272,l),
(211,103,l)
);
},
{
closed = 1;
nodes = (
(350,375,ls),
(403,375,o),
(457,421,o),
(457,500,o),
(404,547,o),
(351,547,qs),
(211,547,l),
(211,375,l)
);
}
);
width = 648;
}
);
unicode = 66;
},
{
color = 3;
glyphname = Bhook;
lastChange = "2023-04-20 11:32:41 +0000";
layers = (
{
layerId = master01;
shapes = (
{
closed = 1;
nodes = (
(101,629,l),
(336,629,ls),
(435.4,629,o),
(542,534.941,o),
(542,464,qs),
(542,410,o),
(483,330,o),
(423,316,q),
(481.815,305.86,o),
(553,224.206,o),
(553,172,qs),
(553,56.024,o),
(439.5,15,qs),
(398,0,o),
(337,0,qs),
(101,0,l)
);
},
{
closed = 1;
nodes = (
(335,69,ls),
(407,69,o),
(469,127,o),
(469,223,o),
(401,280,o),
(335,280,qs),
(180,280,l),
(180,69,l)
);
},
{
closed = 1;
nodes = (
(334,348,ls),
(392,348,o),
(461,405,o),
(461,505,o),
(394,561,o),
(334,561,qs),
(180,561,l),
(180,348,l)
);
}
);
width = 622;
}
);
unicode = 385;
},
{
glyphname = Bstroke;
lastChange = "2023-04-20 11:32:41 +0000";
layers = (
{
layerId = master01;
shapes = (
{
closed = 1;
nodes = (
(16,219,l),
(93,219,l),
(93,649,l),
(355,649,ls),
(463.404,649,o),
(522.5,598.5,qs),
(578,551.073,o),
(578,477,qs),
(578,422,o),
(517,344,o),
(462,328,q),
(517,317,o),
(589,240,o),
(589,180,qs),
(589,60.133,o),
(470,16.5,qs),
(425,0,o),
(356,0,qs),
(93,0,l),
(93,150,l),
(16,150,l)
);
},
{
closed = 1;
nodes = (
(353,103,ls),
(410,103,o),
(461,149,o),
(461,225,o),
(408,272,o),
(353,272,qs),
(211,272,l),
(211,219,l),
(309,219,l),
(309,150,l),
(211,150,l),
(211,103,l)
);
},
{
closed = 1;
nodes = (
(350,375,ls),
(403,375,o),
(457,421,o),
(457,500,o),
(404,547,o),
(351,547,qs),
(211,547,l),
(211,375,l)
);
}
);
width = 648;
}
);
unicode = (579,384);
},
{
glyphname = C;
layers = (
{
layerId = master01;
shapes = (
{
closed = 1;
nodes = (
(47,486.4,o),
(126.5,576.5,qs),
(201.941,662,o),
(326.5,662,qs),
(438,662,o),
(506,607,qs),
(569.264,555.598,o),
(588,464,q),
(462,441,l),
(446,492,o),
(379,555,o),
(329,555,qs),
(261.368,555,o),
(219,497.5,qs),
(174,436.429,o),
(174,217,o),
(254,94,o),
(392,94,o),
(462,161,o),
(462,214,q),
(589,214,l),
(589,105,o),
(450,-14,o),
(329,-14,qs),
(199.682,-14,o),
(124,76,qs),
(47,167.568,o),
(47,326,qs)
);
}
);
width = 634;
}
);
unicode = 67;
},
{
glyphname = Ccedilla;
layers = (
{
layerId = master01;
shapes = (
{
closed = 1;
nodes = (
(47,486.4,o),
(126.5,576.5,qs),
(201.941,662,o),
(326.5,662,qs),
(386,662,o),
(474,633,o),
(506,607,qs),
(569.264,555.598,o),
(588,464,q),
(462,441,l),
(446,492,o),
(379,555,o),
(329,555,qs),
(261.368,555,o),
(219,497.5,qs),
(174,436.429,o),
(174,217,o),
(254,94,o),
(392,94,o),
(462,161,o),
(462,214,q),
(589,214,l),
(589,105,o),
(519.5,45.5,qs),
(460.759,-4.789,o),
(365.229,-12.574,q),
(350.92,-44.264,l),
(397.88,-46.49,o),
(443.341,-83.001,o),
(443.341,-112.388,qs),
(443.341,-154.24,o),
(365.408,-196.984,o),
(291.971,-196.984,qs),
(269.49,-196.984,o),
(241.514,-194.312,q),
(241.514,-141.773,l),
(258.999,-144.891,o),
(283.478,-144.891,qs),
(351.919,-144.891,o),
(351.919,-114.168,qs),
(351.919,-98.585,o),
(323.943,-83.446,o),
(290.972,-83.446,qs),
(271.987,-83.446,o),
(264.993,-84.337,q),
(294.141,-12.267,l),
(189.179,-1.51,o),
(124,76,qs),
(47,167.568,o),
(47,326,qs)
);
}
);
width = 634;
}
);
unicode = 199;
},
{
glyphname = D;
layers = (
{
layerId = master01;
shapes = (
{
closed = 1;
nodes = (
(92,649,l),
(303,649,ls),
(451.357,649,o),
(542.5,561,qs),
(634,472.655,o),
(634,324,qs),
(634,176.345,o),
(542.5,88,qs),
(451.357,-2.842,o),
(303,0,qs),
(92,0,l)
);
},
{
closed = 1;
nodes = (
(303,107,ls),
(394.845,107,o),
(451.5,169,qs),
(506,228.642,o),
(506,324,qs),
(506,421.358,o),
(451.5,481,qs),
(395.759,542,o),
(303,542,qs),
(211,542,l),
(211,107,l)
);
}
);
width = 686;
}
);
unicode = 68;
},
{
color = 3;
glyphname = Dhook;
lastChange = "2023-04-20 11:32:41 +0000";
layers = (
{
layerId = master01;
shapes = (
{
closed = 1;
nodes = (
(100,629,l),
(285,629,ls),
(427,629,o),
(598,458,o),
(598,171,o),
(427,0,o),
(285,0,qs),
(100,0,l)
);
},
{
closed = 1;
nodes = (
(285,69,ls),
(389.924,69,o),
(514,207.797,o),
(514,315,qs),
(514,421.746,o),
(389.415,559,o),
(285,559,qs),
(179,559,l),
(179,69,l)
);
}
);
width = 661;
}
);
unicode = 394;
},
{
glyphname = Eth;
layers = (
{
layerId = master01;
shapes = (
{
closed = 1;
nodes = (
(343,288,l),
(343,358,l),
(22,358,l),
(22,288,l)
);
},
{
closed = 1;
nodes = (
(303,0,ls),
(452,0,o),
(634,177,o),
(634,324,qs),
(634,472,o),
(452,649,o),
(303,649,qs),
(92,649,l),
(92,0,l)
);
},
{
closed = 1;
nodes = (
(211,542,l),
(303,542,ls),
(396,542,o),
(506,421,o),
(506,324,qs),
(506,228,o),
(396,107,o),
(303,107,qs),
(211,107,l)
);
}
);
width = 686;
}
);
unicode = 208;
},
{
glyphname = E;
layers = (
{
layerId = master01;
shapes = (
{
closed = 1;
nodes = (
(92,649,l),
(510,649,l),
(510,547,l),
(210,547,l),
(210,376,l),
(491,376,l),
(491,274,l),
(210,274,l),
(210,103,l),
(510,103,l),
(510,0,l),
(92,0,l)
);
}
);
width = 586;
}
);
unicode = 69;
},
{
glyphname = Ecircumflex;
layers = (
{
layerId = master01;
shapes = (
{
closed = 1;
nodes = (
(102,649,l),
(520,649,l),
(520,547,l),
(220,547,l),
(220,376,l),
(501,376,l),
(501,274,l),
(220,274,l),
(220,103,l),
(520,103,l),
(520,0,l),
(102,0,l)
);
},
{
closed = 1;
nodes = (
(312,913,l),
(520,752,l),
(445,693,l),
(312,794,l),
(178,693,l),
(103,752,l)
);
}
);
width = 588;
}
);
unicode = 202;
},
{
glyphname = Edieresis;
layers = (
{
layerId = master01;
shapes = (
{
closed = 1;
nodes = (
(92,649,l),
(510,649,l),
(510,547,l),
(210,547,l),
(210,376,l),
(491,376,l),
(491,274,l),
(210,274,l),
(210,103,l),
(510,103,l),
(510,0,l),
(92,0,l)
);
},
{
closed = 1;
nodes = (
(174,881,o),
(236,881,o),
(276,843,o),
(276,786,o),
(236,749,o),
(174,749,o),
(135,786,o),
(135,843,o)
);
},
{
closed = 1;
nodes = (
(368,882,o),
(429,882,o),
(469,844,o),
(469,786,o),
(429,750,o),
(368,750,o),
(328,786,o),
(328,844,o)
);
}
);
width = 588;
}
);
unicode = 203;
},
{
glyphname = Egrave;
layers = (
{
layerId = master01;
shapes = (
{
closed = 1;
nodes = (
(92,649,l),
(510,649,l),
(510,547,l),
(210,547,l),
(210,376,l),
(491,376,l),
(491,274,l),
(210,274,l),
(210,103,l),
(510,103,l),
(510,0,l),
(92,0,l)
);
},
{
closed = 1;
nodes = (
(190,900,l),
(457,768,l),
(427,694,l),
(148,798,l)
);
}
);
width = 588;
}
);
unicode = 200;
},
{
color = 3;
glyphname = Ereversed;
lastChange = "2023-04-20 11:32:41 +0000";
layers = (
{
layerId = master01;
shapes = (
{
closed = 1;
nodes = (
(487,0,l),
(487,629,l),
(100,629,l),
(100,561,l),
(408,561,l),
(408,350,l),
(118,350,l),
(118,283,l),
(408,283,l),
(408,69,l),
(100,69,l),
(100,0,l)
);
}
);
width = 562;
}
);
unicode = 398;
},
{
glyphname = F;
layers = (
{
layerId = master01;
shapes = (
{
closed = 1;
nodes = (
(93,649,l),
(502,649,l),
(502,547,l),
(211,547,l),
(211,376,l),
(477,376,l),
(477,275,l),
(211,275,l),
(211,0,l),
(93,0,l)
);
}
);
width = 547;
}
);
unicode = 70;
},
{
glyphname = G;
layers = (
{
layerId = master01;
shapes = (
{
closed = 1;
nodes = (
(47,476.561,o),
(135,571,qs),
(219.795,662,o),
(354,662,qs),
(445,662,o),
(568,583,o),
(603,498,q),
(482,470,l),
(429.381,555,o),
(348,555,qs),
(274.18,555,o),
(225,492.5,qs),
(174,427.688,o),
(174,321,qs),
(174,219.727,o),
(220,157,qs),
(265.467,95,o),
(340,95,qs),
(404,95,o),
(445,136,qs),
(487,178,o),
(487,251,qs),
(487,255,l),
(341,258,l),
(341,334,l),
(600,334,l),
(600,0,l),
(504,0,l),
(491,103,l),
(449.214,-14,o),
(330,-14,qs),
(208.455,-14,o),
(129,78,qs),
(47,172.947,o),
(47,321,qs)
);
}
);
width = 677;
}
);
unicode = 71;
},
{
glyphname = H;
layers = (
{
layerId = master01;
shapes = (
{
closed = 1;
nodes = (
(93,649,l),
(211,649,l),
(211,378,l),
(494,378,l),
(494,649,l),
(612,649,l),
(612,0,l),
(494,0,l),
(494,275,l),
(211,275,l),
(211,0,l),
(93,0,l)
);
}
);
width = 706;
}
);
unicode = 72;
},
{
glyphname = I;
layers = (
{
layerId = master01;
shapes = (
{
closed = 1;
nodes = (
(93,649,l),
(211,649,l),
(211,0,l),
(93,0,l)
);
}
);
width = 304;
}
);
unicode = 73;
},
{
glyphname = Icircumflex;
layers = (
{
layerId = master01;
shapes = (
{
closed = 1;
nodes = (
(153,913,l),
(361,752,l),
(286,693,l),
(153,794,l),
(19,693,l),
(-56,752,l)
);
},
{
closed = 1;
nodes = (
(93,649,l),
(211,649,l),
(211,0,l),
(93,0,l)
);
}
);
width = 304;
}
);
unicode = 206;
},
{
glyphname = Idieresis;
layers = (
{
layerId = master01;
shapes = (
{
closed = 1;
nodes = (
(25,881,o),
(87,881,o),
(127,843,o),
(127,786,o),
(87,749,o),
(25,749,o),
(-14,786,o),
(-14,843,o)
);
},
{
closed = 1;
nodes = (
(93,649,l),
(211,649,l),
(211,0,l),
(93,0,l)
);
},
{
closed = 1;
nodes = (
(219,882,o),
(280,882,o),
(320,844,o),
(320,786,o),
(280,750,o),
(219,750,o),
(179,786,o),
(179,844,o)
);
}
);
width = 304;
}
);
unicode = 207;
},
{
glyphname = Igrave;
layers = (
{
layerId = master01;
shapes = (
{
closed = 1;
nodes = (
(41,900,l),
(308,768,l),
(278,694,l),
(-1,798,l)
);
},
{
closed = 1;
nodes = (
(93,649,l),
(211,649,l),
(211,0,l),
(93,0,l)
);
}
);
width = 304;
}
);
unicode = 204;
},
{
glyphname = J;
layers = (
{
layerId = master01;
shapes = (
{
closed = 1;
nodes = (
(16,145,l),
(92.522,101,o),
(165,101,qs),
(208,101,o),
(247,151,o),
(247,202,qs),
(247,649,l),
(366,649,l),
(366,202,ls),
(366,89.549,o),
(312.5,35,qs),
(264.442,-14,o),
(95.722,-14,o),
(16,27,q)
);
}
);
width = 444;
}
);
unicode = 74;
},
{
glyphname = K;
layers = (
{
layerId = master01;
shapes = (
{
closed = 1;
nodes = (
(93,649,l),
(212,649,l),
(212,382,l),
(468,649,l),
(630,649,l),
(344,357,l),
(649,0,l),
(496,0,l),
(265,275,l),
(212,221,l),
(212,0,l),
(93,0,l)
);
}
);
width = 654;
}
);
unicode = 75;
},
{
glyphname = L;
layers = (
{
layerId = master01;
shapes = (
{
closed = 1;
nodes = (
(93,649,l),
(211,649,l),
(211,103,l),
(478,103,l),
(478,0,l),
(93,0,l)
);
}
);
width = 494;
}
);
unicode = 76;
},
{
color = 3;
glyphname = Lslash;
lastChange = "2023-04-20 11:32:27 +0000";
layers = (
{
layerId = master01;
shapes = (
{
closed = 1;
nodes = (
(312.886,475.852,l),
(350,419,l),
(65.529,211.845,l),
(28.415,268.696,l)
);
},
{
closed = 1;
nodes = (
(131,629,l),
(210,629,l),
(210,69,l),
(490,69,l),
(490,0,l),
(131,0,l)
);
}
);
width = 498;
}
);
unicode = 321;
},
{
glyphname = M;
layers = (
{
layerId = master01;
shapes = (
{
closed = 1;
nodes = (
(93,649,l),
(262,649,l),
(440,263,l),
(618,649,l),
(781,649,l),
(781,0,l),
(662,0,l),
(662,493,l),
(478,71,l),
(401,71,l),
(211,507,l),
(211,0,l),
(93,0,l)
);
}
);
width = 874;
}
);
unicode = 77;
},
{
glyphname = N;
layers = (
{
layerId = master01;
shapes = (
{
closed = 1;
nodes = (
(91,649,l),
(220,649,l),
(506,189,l),
(506,649,l),
(624,649,l),
(624,0,l),
(504,0,l),
(209,476,l),
(209,0,l),
(91,0,l)
);
}
);
width = 717;
}
);
unicode = 78;
},
{
glyphname = Ntilde;
layers = (
{
layerId = master01;
shapes = (
{
closed = 1;
nodes = (
(209,0,l),
(209,476,l),
(504,0,l),
(624,0,l),
(624,649,l),
(506,649,l),
(506,189,l),
(220,649,l),
(91,649,l),
(91,0,l)
);
},
{
closed = 1;
nodes = (
(198,820,o),
(255,887,o),
(293,887,qs),
(319.714,887,o),
(392,850,o),
(417,838,o),
(429,838,qs),
(461.269,838,o),
(482,887,q),
(532,854,l),
(521,800,o),
(464,731,o),
(432,731,qs),
(414,731,o),
(379,745,o),
(352.5,758.5,qs),
(308.333,781,o),
(292.167,781,qs),
(257.138,781,o),
(233,731,q),
(186,759,l)
);
}
);
width = 720;
}
);
unicode = 209;
},
{
glyphname = O;
layers = (
{
layerId = master01;
shapes = (
{
closed = 1;
nodes = (
(47,490.692,o),
(129,579,qs),
(206.071,662,o),
(341.5,662,qs),
(407,662,o),
(515,619,o),
(554,577,qs),
(636,488.692,o),
(636,325,qs),
(636,159.859,o),
(554,70.5,qs),
(476.459,-14,o),
(341,-14,qs),
(207.459,-14,o),
(129,71.5,qs),
(47,160.859,o),
(47,325,qs)
);
},
{
closed = 1;
nodes = (
(263,93,o),
(421,93,o),
(514,212,o),
(514,435,o),
(421,556,o),
(263,556,o),
(169,435,o),
(169,212,o)
);
}
);
width = 683;
}
);
unicode = 79;
},
{
glyphname = Ocircumflex;
layers = (
{
layerId = master01;
shapes = (
{
closed = 1;
nodes = (
(47,490.692,o),
(129,579,qs),
(206.071,662,o),
(341.5,662,qs),
(407,662,o),
(515,619,o),
(554,577,qs),
(636,488.692,o),
(636,325,qs),
(636,159.859,o),
(554,70.5,qs),
(476.459,-14,o),
(341,-14,qs),
(207.459,-14,o),
(129,71.5,qs),
(47,160.859,o),
(47,325,qs)
);
},
{
closed = 1;
nodes = (
(341,913,l),
(549,752,l),
(474,693,l),
(341,794,l),
(207,693,l),
(132,752,l)
);
},
{
closed = 1;
nodes = (
(263,93,o),
(421,93,o),
(514,212,o),
(514,435,o),
(421,556,o),
(263,556,o),
(169,435,o),
(169,212,o)
);
}
);
width = 683;
}
);
unicode = 212;
},
{
glyphname = Odieresis;
layers = (
{
layerId = master01;
shapes = (
{
closed = 1;
nodes = (
(47,490.692,o),
(129,579,qs),
(206.071,662,o),
(341.5,662,qs),
(407,662,o),
(515,619,o),
(554,577,qs),
(636,488.692,o),
(636,325,qs),
(636,159.859,o),
(554,70.5,qs),
(476.459,-14,o),
(341,-14,qs),
(207.459,-14,o),
(129,71.5,qs),
(47,160.859,o),
(47,325,qs)
);
},
{
closed = 1;
nodes = (
(263,93,o),
(421,93,o),
(514,212,o),
(514,435,o),
(421,556,o),
(263,556,o),
(169,435,o),
(169,212,o)
);
},
{
closed = 1;
nodes = (
(213,881,o),
(275,881,o),
(315,843,o),
(315,786,o),
(275,749,o),
(213,749,o),
(174,786,o),
(174,843,o)
);
},
{
closed = 1;
nodes = (
(407,882,o),
(468,882,o),
(508,844,o),
(508,786,o),
(468,750,o),
(407,750,o),
(367,786,o),
(367,844,o)
);
}
);
width = 683;
}
);
unicode = 214;
},
{
glyphname = Ograve;
layers = (
{
layerId = master01;
shapes = (
{
closed = 1;
nodes = (
(47,490.692,o),
(129,579,qs),
(206.071,662,o),
(341.5,662,qs),
(407,662,o),
(515,619,o),
(554,577,qs),
(636,488.692,o),
(636,325,qs),
(636,159.859,o),
(554,70.5,qs),
(476.459,-14,o),
(341,-14,qs),
(207.459,-14,o),
(129,71.5,qs),
(47,160.859,o),
(47,325,qs)
);
},
{
closed = 1;
nodes = (
(263,93,o),
(421,93,o),
(514,212,o),
(514,435,o),
(421,556,o),
(263,556,o),
(169,435,o),
(169,212,o)
);
},
{
closed = 1;
nodes = (
(228,900,l),
(495,768,l),
(465,694,l),
(186,798,l)
);
}
);
width = 683;
}
);
unicode = 210;
},
{
glyphname = Oslash;
layers = (
{
layerId = master01;
shapes = (
{
closed = 1;
nodes = (
(618.436,667.602,l),
(688.581,594.889,l),
(59.496,-17.77,l),
(-10.649,54.943,l)
);
},
{
closed = 1;
nodes = (
(47,490.692,o),
(129,579,qs),
(206.071,662,o),
(341.5,662,qs),
(407,662,o),
(515,619,o),
(554,577,qs),
(636,488.692,o),
(636,325,qs),
(636,159.859,o),
(554,70.5,qs),
(476.459,-14,o),
(341,-14,qs),
(207.459,-14,o),
(129,71.5,qs),
(47,160.859,o),
(47,325,qs)
);
},
{
closed = 1;
nodes = (
(263,93,o),
(421,93,o),
(514,212,o),
(514,435,o),
(421,556,o),
(263,556,o),
(169,435,o),
(169,212,o)
);
}
);
width = 683;
}
);
unicode = 216;
},
{
glyphname = Otilde;
layers = (
{
layerId = master01;
shapes = (
{
closed = 1;
nodes = (
(47,160.859,o),
(129,71.5,qs),
(207.459,-14,o),
(341,-14,qs),
(476.459,-14,o),
(554,70.5,qs),
(636,159.859,o),
(636,325,qs),
(636,488.692,o),
(554,577,qs),
(475.071,662,o),
(341.5,662,qs),
(276,662,o),
(168,621,o),
(129,579,qs),
(47,490.692,o),
(47,325,qs)
);
},
{
closed = 1;
nodes = (
(180,820,o),
(237,887,o),
(275,887,qs),
(301.714,887,o),
(374,850,o),
(399,838,o),
(411,838,qs),
(443.269,838,o),
(464,887,q),
(514,854,l),
(503,800,o),
(446,731,o),
(414,731,qs),
(396,731,o),
(361,745,o),
(334.5,758.5,qs),
(290.333,781,o),
(274.167,781,qs),
(239.138,781,o),
(215,731,q),
(168,759,l)
);
},
{
closed = 1;
nodes = (
(263,556,o),
(421,556,o),
(514,435,o),
(514,212,o),
(421,93,o),
(263,93,o),
(169,212,o),
(169,435,o)
);
}
);
width = 683;
}
);
unicode = 213;
},
{
glyphname = OE;
layers = (
{
layerId = master01;
shapes = (
{
closed = 1;
nodes = (
(51,472.875,o),
(199.556,640,o),
(323,640,qs),
(445.049,640,o),
(596,472.507,o),
(596,153.932,o),
(445.5,-11,o),
(323,-11,qs),
(199.556,-11,o),
(51,156.125,o),
(51,314,qs)
);
},
{
closed = 1;
nodes = (
(235,61,o),
(411,61,o),
(514,189,o),
(514,437,o),
(411,569,o),
(235,569,o),
(133,437,o),
(133,189,o)
);
}
);
width = 646;
}
);
unicode = 338;
},
{
glyphname = P;
layers = (
{
layerId = master01;
shapes = (
{
closed = 1;
nodes = (
(90,649,l),
(319,649,ls),
(429,649,o),
(552,542,o),
(552,343,o),
(429,236,o),
(319,236,qs),
(209,236,l),
(209,0,l),
(90,0,l)
);
},
{
closed = 1;
nodes = (
(319,339,ls),
(374,339,o),
(430,397,o),
(430,488,o),
(374,547,o),
(319,547,qs),
(209,547,l),
(209,339,l)
);
}
);
width = 581;
}
);
unicode = 80;
},
{
glyphname = Thorn;
layers = (
{
layerId = master01;
shapes = (
{
closed = 1;
nodes = (
(209,0,l),
(209,125,l),
(319,125,ls),
(429,125,o),
(552,233,o),
(552,331,qs),
(552,430,o),
(429,538,o),
(319,538,qs),
(209,538,l),
(209,649,l),
(90,649,l),
(90,0,l)
);
},
{
closed = 1;
nodes = (
(209,436,l),
(319,436,ls),
(372,436,o),
(430,378,o),
(430,331,qs),
(430,285,o),
(372,228,o),
(319,228,qs),
(209,228,l)
);
}
);
width = 581;
}
);
unicode = 222;
},
{
glyphname = Q;
layers = (
{
layerId = master01;
shapes = (
{
closed = 1;
nodes = (
(47,490.692,o),
(129,579,qs),
(206.071,662,o),
(341,662,qs),
(475.071,662,o),
(554,577,qs),
(636,488.692,o),
(636,325,qs),
(636,190,o),
(532,29,o),
(444,1,q),
(460,-24,ls),
(484.448,-60.672,o),
(531,-63,q),
(573.636,-63,o),
(628,-40,q),
(628,-162,l),
(586.6,-180,o),
(538.8,-180,qs),
(442.333,-180,o),
(375,-79,qs),
(332,-14,l),
(202.778,-11.949,o),
(126.5,74.5,qs),
(47,164.6,o),
(47,325,qs)
);
},
{
closed = 1;
nodes = (
(263,93,o),
(421,93,o),
(514,212,o),
(514,435,o),
(421,556,o),
(263,556,o),
(169,435,o),
(169,212,o)
);
}
);
width = 686;
}
);
unicode = 81;
},
{
glyphname = R;
layers = (
{
layerId = master01;
shapes = (
{
closed = 1;
nodes = (
(93,649,l),
(333,649,ls),
(448.245,649,o),
(512,594.5,qs),
(575,540.645,o),
(575,450,qs),
(575,381,o),
(497,283,o),
(424,264,q),
(598,0,l),
(444,0,l),
(301,253,l),
(211,253,l),
(211,0,l),
(93,0,l)
);
},
{
closed = 1;
nodes = (
(322,332,ls),
(387,332,o),
(453,391,o),
(453,488,o),
(393,547,o),
(333,547,qs),
(211,547,l),
(211,332,l)
);
}
);
width = 644;
}
);
unicode = 82;
},
{
glyphname = S;
layers = (
{
layerId = master01;
shapes = (
{
closed = 1;
nodes = (
(182,203,l),
(182,123.08,o),
(265,101.5,qs),
(290,95,o),
(372,95,o),
(442,136,o),
(442,205,o),
(404,242,o),
(361,258,qs),
(232,309,ls),
(157,338,o),
(77,416,o),
(77,485,qs),
(77,565.869,o),
(139.5,613,qs),
(204.478,662,o),
(423,662,o),
(542,561,o),
(551,470,q),
(434,470,l),
(418.342,555,o),
(314,555,qs),
(263,555,o),
(206,514,o),
(206,456,o),
(243,423,o),
(282,409,q),
(423,354,ls),
(495,326,o),
(573,241,o),
(573,177,qs),
(573,89,o),
(441,-14,o),
(319,-14,qs),
(211.222,-14,o),
(143.5,39,qs),
(68.768,97.486,o),
(65,203,q)
);
}
);
width = 638;
}
);
unicode = 83;
},
{
glyphname = T;
layers = (
{
layerId = master01;
shapes = (
{
closed = 1;
nodes = (
(6,649,l),
(526,649,l),
(526,547,l),
(325,547,l),
(325,0,l),
(207,0,l),
(207,547,l),
(6,547,l)
);
}
);
width = 532;
}
);
unicode = 84;
},
{
glyphname = U;
layers = (
{
layerId = master01;
shapes = (
{
closed = 1;
nodes = (
(83,649,l),
(201,649,l),
(201,245,ls),
(201,165,o),
(282,95,o),
(410,95,o),
(491,165,o),
(491,245,qs),
(491,649,l),
(609,649,l),
(609,245,ls),
(609,121,o),
(471,-14,o),
(221,-14,o),
(83,121,o),
(83,245,qs)
);
}
);
width = 690;
}
);
unicode = 85;
},
{
glyphname = Ucircumflex;
layers = (
{
layerId = master01;
shapes = (
{
closed = 1;
nodes = (
(83,649,l),
(201,649,l),
(201,245,ls),
(201,165,o),
(282,95,o),
(410,95,o),
(491,165,o),
(491,245,qs),
(491,649,l),
(609,649,l),
(609,245,ls),
(609,121,o),
(471,-14,o),
(221,-14,o),
(83,121,o),
(83,245,qs)
);
},
{
closed = 1;
nodes = (
(346,913,l),
(554,752,l),
(479,693,l),
(346,794,l),
(212,693,l),
(137,752,l)
);
}
);
width = 690;
}
);
unicode = 219;
},
{
glyphname = Udieresis;
layers = (
{
layerId = master01;
shapes = (
{
closed = 1;
nodes = (
(83,649,l),
(201,649,l),
(201,245,ls),
(201,165,o),
(282,95,o),
(410,95,o),
(491,165,o),
(491,245,qs),
(491,649,l),
(609,649,l),
(609,245,ls),
(609,121,o),
(471,-14,o),
(221,-14,o),
(83,121,o),
(83,245,qs)
);
},
{
closed = 1;
nodes = (
(219,881,o),
(281,881,o),
(321,843,o),
(321,786,o),
(281,749,o),
(219,749,o),
(180,786,o),
(180,843,o)
);
},
{
closed = 1;
nodes = (
(413,882,o),
(474,882,o),
(514,844,o),
(514,786,o),
(474,750,o),
(413,750,o),
(373,786,o),
(373,844,o)
);
}
);
width = 690;
}
);
unicode = 220;
},
{
glyphname = Ugrave;
layers = (
{
layerId = master01;
shapes = (
{
closed = 1;
nodes = (
(83,649,l),
(201,649,l),
(201,245,ls),
(201,165,o),
(282,95,o),
(410,95,o),
(491,165,o),
(491,245,qs),
(491,649,l),
(609,649,l),
(609,245,ls),
(609,121,o),
(471,-14,o),
(221,-14,o),
(83,121,o),
(83,245,qs)
);
},
{
closed = 1;
nodes = (
(233,900,l),
(500,768,l),
(470,694,l),
(191,798,l)
);
}
);
width = 690;
}
);
unicode = 217;
},
{
glyphname = V;
layers = (
{
layerId = master01;
shapes = (
{
closed = 1;
nodes = (
(145,649,l),
(303,148,l),
(463,649,l),
(587,649,l),
(364,0,l),
(240,0,l),
(20,649,l)
);
}
);
width = 607;
}
);
unicode = 86;
},
{
glyphname = W;
layers = (
{
layerId = master01;
shapes = (
{
closed = 1;
nodes = (
(152,649,l),
(295,156,l),
(434,606,l),
(514,606,l),
(661,154,l),
(813,649,l),
(946,649,l),
(723,0,l),
(599,0,l),
(477,366,l),
(356,0,l),
(232,0,l),
(20,649,l)
);
}
);
width = 966;
}
);
unicode = 87;
},
{
glyphname = X;
layers = (
{
layerId = master01;
shapes = (
{
closed = 1;
nodes = (
(178,649,l),
(342,415,l),
(484,649,l),
(627,649,l),
(408,325,l),
(649,0,l),
(501,0,l),
(330,230,l),
(178,0,l),
(34,0,l),
(263,323,l),
(33,649,l)
);
}
);
width = 684;
}
);
unicode = 88;
},
{
glyphname = Y;
layers = (
{
layerId = master01;
shapes = (
{
closed = 1;
nodes = (
(156,649,l),
(299,390,l),
(449,649,l),
(588,649,l),
(357,268,l),
(357,0,l),
(239,0,l),
(239,268,l),
(16,649,l)
);
}
);
width = 604;
}
);
unicode = 89;
},
{
glyphname = Z;
layers = (
{
layerId = master01;
shapes = (
{
closed = 1;
nodes = (
(73,102,l),
(416,540,l),
(73,541,l),
(73,649,l),
(564,649,l),
(564,548,l),
(222,109,l),
(564,108,l),
(564,0,l),
(73,0,l)
);
}
);
width = 629;
}
);
unicode = 90;
},
{
glyphname = a;
layers = (
{
layerId = master01;
shapes = (
{
closed = 1;
nodes = (
(161,284,o),
(253,284,qs),
(311,284,o),
(387,265,q),
(387,313,ls),
(387,364,o),
(346,413,o),
(253,413,o),
(203,376,o),
(203,342,q),
(74,342,l),
(74,425,o),
(191,499,o),
(296,499,qs),
(446.25,499,o),
(490,394,qs),
(505,358,o),
(505,309,qs),
(505,0,l),
(402,0,l),
(393,65,l),
(345.6,-14,o),
(249,-14,qs),
(154.907,-14,o),
(103,32.5,qs),
(55,75.5,o),
(55,211,o)
);
},
{
closed = 1;
nodes = (
(181,115,o),
(225,76,o),
(322,76,o),
(385,141,o),
(387,190,q),
(327.571,206,o),
(277,206,qs),
(181,206,o),
(181,142,qs)
);
}
);
width = 584;
}
);
unicode = 97;
},
{
glyphname = aacute;
layers = (
{
layerId = master01;
shapes = (
{
closed = 1;
nodes = (
(161,284,o),
(253,284,qs),
(311,284,o),
(387,265,q),
(387,313,ls),
(387,364,o),
(346,413,o),
(253,413,o),
(203,376,o),
(203,342,q),
(74,342,l),
(74,425,o),
(191,499,o),
(296,499,qs),
(446.25,499,o),
(490,394,qs),
(505,358,o),
(505,309,qs),
(505,0,l),
(402,0,l),
(393,65,l),
(345.6,-14,o),
(249,-14,qs),
(154.907,-14,o),
(103,32.5,qs),
(55,75.5,o),
(55,211,o)
);
},
{
closed = 1;
nodes = (
(409,764,l),
(451,662,l),
(172,558,l),
(142,632,l)
);
},
{
closed = 1;
nodes = (
(181,115,o),
(225,76,o),
(322,76,o),
(385,141,o),
(387,190,q),
(327.571,206,o),
(277,206,qs),
(181,206,o),
(181,142,qs)
);
}
);
width = 585;
}
);
unicode = 225;
},
{
glyphname = acircumflex;
layers = (
{
layerId = master01;
shapes = (
{
closed = 1;
nodes = (
(161,284,o),
(253,284,qs),
(311,284,o),
(387,265,q),
(387,313,ls),
(387,364,o),
(346,413,o),
(253,413,o),
(203,376,o),
(203,342,q),
(74,342,l),
(74,425,o),
(191,499,o),
(296,499,qs),
(446.25,499,o),
(490,394,qs),
(505,358,o),
(505,309,qs),
(505,0,l),
(402,0,l),
(393,65,l),
(345.6,-14,o),
(249,-14,qs),
(154.907,-14,o),
(103,32.5,qs),
(55,75.5,o),
(55,211,o)
);
},
{
closed = 1;
nodes = (
(298,777,l),
(506,616,l),
(431,557,l),
(298,658,l),
(164,557,l),
(89,616,l)
);
},
{
closed = 1;
nodes = (
(181,115,o),
(225,76,o),
(322,76,o),
(385,141,o),
(387,190,q),
(327.571,206,o),
(277,206,qs),
(181,206,o),
(181,142,qs)
);
}
);
width = 585;
}
);
unicode = 226;
},
{
glyphname = adieresis;
layers = (
{
layerId = master01;
shapes = (
{
closed = 1;
nodes = (
(161,284,o),
(253,284,qs),
(311,284,o),
(387,265,q),
(387,313,ls),
(387,364,o),
(346,413,o),
(253,413,o),
(203,376,o),
(203,342,q),
(74,342,l),
(74,425,o),
(191,499,o),
(296,499,qs),
(446.25,499,o),
(490,394,qs),
(505,358,o),
(505,309,qs),
(505,0,l),
(402,0,l),
(393,65,l),
(345.6,-14,o),
(249,-14,qs),
(154.907,-14,o),
(103,32.5,qs),
(55,75.5,o),
(55,211,o)
);
},
{
closed = 1;
nodes = (
(170,745,o),
(232,745,o),
(272,707,o),
(272,650,o),
(232,613,o),
(170,613,o),
(131,650,o),
(131,707,o)
);
},
{
closed = 1;
nodes = (
(181,115,o),
(225,76,o),
(322,76,o),
(385,141,o),
(387,190,q),
(327.571,206,o),
(277,206,qs),
(181,206,o),
(181,142,qs)
);
},
{
closed = 1;
nodes = (
(364,746,o),
(425,746,o),
(465,708,o),
(465,650,o),
(425,614,o),
(364,614,o),
(324,650,o),
(324,708,o)
);
}
);
width = 585;
}
);
unicode = 228;
},
{
glyphname = agrave;
layers = (
{
layerId = master01;
shapes = (
{
closed = 1;
nodes = (
(161,284,o),
(253,284,qs),
(311,284,o),
(387,265,q),
(387,313,ls),
(387,364,o),
(346,413,o),
(253,413,o),
(203,376,o),
(203,342,q),
(74,342,l),
(74,425,o),
(191,499,o),
(296,499,qs),
(446.25,499,o),
(490,394,qs),
(505,358,o),
(505,309,qs),
(505,0,l),
(402,0,l),
(393,65,l),
(345.6,-14,o),
(249,-14,qs),
(154.907,-14,o),
(103,32.5,qs),
(55,75.5,o),
(55,211,o)
);
},
{
closed = 1;
nodes = (
(185,764,l),
(452,632,l),
(422,558,l),
(143,662,l)
);
},
{
closed = 1;
nodes = (
(181,115,o),
(225,76,o),
(322,76,o),
(385,141,o),
(387,190,q),
(327.571,206,o),
(277,206,qs),
(181,206,o),
(181,142,qs)
);
}
);
width = 585;
}
);
unicode = 224;
},
{
glyphname = atilde;
layers = (
{
layerId = master01;
shapes = (
{
closed = 1;
nodes = (
(161,284,o),
(253,284,qs),
(311,284,o),
(387,265,q),
(387,313,ls),
(387,364,o),
(346,413,o),
(253,413,o),
(203,376,o),
(203,342,q),
(74,342,l),
(74,425,o),
(191,499,o),
(296,499,qs),
(446.25,499,o),
(490,394,qs),
(505,358,o),
(505,309,qs),
(505,0,l),
(402,0,l),
(393,65,l),
(345.6,-14,o),
(249,-14,qs),
(154.907,-14,o),
(103,32.5,qs),
(55,75.5,o),
(55,211,o)
);
},
{
closed = 1;
nodes = (
(137,684,o),
(194,751,o),
(232,751,qs),
(258.714,751,o),
(331,714,o),
(356,702,o),
(368,702,qs),
(400.269,702,o),
(421,751,q),
(471,718,l),
(460,664,o),
(403,595,o),
(371,595,qs),
(353,595,o),
(318,609,o),
(291.5,622.5,qs),
(247.333,645,o),
(231.167,645,qs),
(196.138,645,o),
(172,595,q),
(125,623,l)
);
},
{
closed = 1;
nodes = (
(181,115,o),
(225,76,o),
(322,76,o),
(385,141,o),
(387,190,q),
(327.571,206,o),
(277,206,qs),
(181,206,o),
(181,142,qs)
);
}
);
width = 585;
}
);
unicode = 227;
},
{
glyphname = ae;
layers = (
{
layerId = master01;
shapes = (
{
closed = 1;
nodes = (
(55,74,o),
(159,-14,o),
(263,-14,qs),
(384,-14,o),
(452,80,q),
(513,-14,o),
(621,-14,qs),
(704,-14,o),
(816,74,o),
(827,145,q),
(708,145,l),
(695,81,o),
(621,81,qs),
(566,81,o),
(510,156,o),
(510,220,q),
(824,220,l),
(828,243,o),
(828,270,qs),
(828,367,o),
(719,499,o),
(621,499,qs),
(520,499,o),
(460,423,q),
(404,499,o),
(296,499,qs),
(74,499,o),
(74,342,q),
(203,342,l),
(203,375,o),
(253,413,o),
(296,413,qs),
(345,413,o),
(387,365,o),
(387,313,qs),
(387,284,l),
(269,284,ls),
(165,284,o),
(55,211,o),
(55,142,qs)
);
},
{
closed = 1;
nodes = (
(181,220,o),
(325,220,qs),
(387,220,l),
(387,181,ls),
(387,140,o),
(324,81,o),
(273,81,qs),
(227,81,o),
(181,114,o),
(181,142,qs)
);
},
{
closed = 1;
nodes = (
(514,338,o),
(573,405,o),
(622,405,qs),
(672,405,o),
(718,335,o),
(718,284,q),
(510,284,l)
);
}
);
width = 876;
}
);
unicode = 230;
},
{
glyphname = b;
layers = (
{
layerId = master01;
shapes = (
{
closed = 1;
nodes = (
(93,686,l),
(211,686,l),
(211,425,l),
(257,499,o),
(440.364,499,o),
(563,359.448,o),
(563,130.667,o),
(498,57,qs),
(435.353,-14,o),
(341,-14,qs),
(296,-14,o),
(221,34,o),
(199,84,q),
(170,0,l),
(93,0,l)
);
},
{
closed = 1;
nodes = (
(212.945,158.441,o),
(247.5,125,qs),
(280.567,93,o),
(376,93,o),
(444,176,o),
(444,312,o),
(377,393,o),
(277,393,o),
(211,327,o),
(211,273,qs),
(211,209,l)
);
}
);
width = 614;
}
);
unicode = 98;
},
{
color = 3;
glyphname = bhook;
lastChange = "2023-04-20 11:32:41 +0000";
layers = (
{
layerId = master01;
shapes = (
{
closed = 1;
nodes = (
(101,681,l),
(180,681,l),
(180,407,l),
(227.725,490,o),
(411.828,490,o),
(534,352.825,o),
(534,128.034,o),
(409.712,-11,o),
(321,-11,qs),
(273,-11,o),
(196,37,o),
(174,84,q),
(156,0,l),
(101,0,l)
);
},
{
closed = 1;
nodes = (
(180,138,o),
(259,59,o),
(371.255,59,o),
(453,157.513,o),
(453,322.487,o),
(372.085,420,o),
(257.514,420,o),
(181.956,346.54,o),
(180,282,q),
(180,204,ls)
);
}
);
width = 584;
}
);
unicode = 595;
},
{
glyphname = c;
layers = (
{
layerId = master01;
shapes = (
{
closed = 1;
nodes = (
(47,360.794,o),
(116.5,432.5,qs),
(180.954,499,o),
(277.5,499,qs),
(324,499,o),
(397,468,o),
(422.5,443,qs),
(471.933,394.536,o),
(481,322,q),
(362,319,l),
(354,351,o),
(311,393,o),
(255,393,o),
(215,376,o),
(200,357.5,qs),
(166,315.567,o),
(166,168,o),
(230,93,o),
(321,93,o),
(362,136,o),
(362,173,q),
(481,173,l),
(481,93,o),
(428.5,40.5,qs),
(374,-14,o),
(277,-14,qs),
(181.353,-14,o),
(116.5,56,qs),
(47,131.016,o),
(47,243,qs)
);
}
);
width = 530;
}
);
unicode = 99;
},
{
glyphname = ccedilla;
layers = (
{
layerId = master01;
shapes = (
{
closed = 1;
nodes = (
(47,360.794,o),
(116.5,432.5,qs),
(180.954,499,o),
(277.5,499,qs),
(324,499,o),
(397,468,o),
(422.5,443,qs),
(471.933,394.536,o),
(481,322,q),
(362,319,l),
(354,351,o),
(311,393,o),
(255,393,o),
(215,376,o),
(200,357.5,qs),
(166,315.567,o),
(166,168,o),
(230,93,o),
(321,93,o),
(362,136,o),
(362,173,q),
(481,173,l),
(481,93,o),
(428.5,40.5,qs),
(384.727,-3.273,o),
(313.539,-11.889,q),
(298.92,-44.264,l),
(345.88,-46.49,o),
(391.341,-83.001,o),
(391.341,-112.388,qs),
(391.341,-154.24,o),
(313.408,-196.984,o),
(239.971,-196.984,qs),
(217.49,-196.984,o),
(189.514,-194.312,q),
(189.514,-141.773,l),
(206.999,-144.891,o),
(231.478,-144.891,qs),
(299.919,-144.891,o),
(299.919,-114.168,qs),
(299.919,-98.585,o),
(271.943,-83.446,o),
(238.972,-83.446,qs),
(219.987,-83.446,o),
(212.993,-84.337,q),
(242.423,-11.569,l),
(169.268,-0.956,o),
(116.5,56,qs),
(47,131.016,o),
(47,243,qs)
);
}
);
width = 530;
}
);
unicode = 231;
},
{
glyphname = d;
layers = (
{
layerId = master01;
shapes = (
{
closed = 1;
nodes = (
(113,430,qs),
(173.636,499,o),
(356,499,o),
(402,426,q),
(402,686,l),
(521,686,l),
(521,0,l),
(424,0,l),
(410,75,l),
(364.511,-14,o),
(272,-14,qs),
(178.647,-14,o),
(116,57,qs),
(51,130.667,o),
(51,359.448,o)
);
},
{
closed = 1;
nodes = (
(238,93,o),
(290,93,qs),
(333,93,o),
(367,127,qs),
(402,162,o),
(402,215,qs),
(402,278,l),
(400.077,329.923,o),
(367,363,qs),
(337,393,o),
(237,393,o),
(170,312,o),
(170,176,o)
);
}
);
width = 614;
}
);
unicode = 100;
},
{
color = 3;
glyphname = dhook;
lastChange = "2023-04-20 11:32:41 +0000";
layers = (
{
layerId = master01;
shapes = (
{
closed = 1;
nodes = (
(181.172,490,o),
(366.275,490,o),
(414,407,q),
(414,681,l),
(492,681,l),
(492,0,l),
(428,0,l),
(418,80,l),
(395,35,o),
(319,-11,o),
(274,-11,qs),
(182.758,-11,o),
(60,128.69,o),
(60,353.947,o)
);
},
{
closed = 1;
nodes = (
(221.213,59,o),
(332.971,59,o),
(412.086,133.838,o),
(414,197,q),
(414,275,ls),
(414,342,o),
(336,420,o),
(220.404,420,o),
(141,321.789,o),
(141,158.211,o)
);
}
);
width = 594;
}
);
unicode = 599;
},
{
glyphname = eth;
layers = (
{
layerId = master01;
shapes = (
{
closed = 1;
nodes = (
(183,-14,o),
(288,-14,qs),
(391,-14,o),
(518,150,o),
(518,311,qs),
(518,612,o),
(289,830,q),
(182,769,l),
(284,676,o),
(398,500,o),
(411,398,q),
(360,499,o),
(256,499,qs),
(173,499,o),
(51,360,o),
(51,114,o)
);
},
{
closed = 1;
nodes = (
(170,313,o),
(228,397,o),
(324,397,o),
(392,316,o),
(396,235,q),
(380,76,o),
(284,76,qs),
(231,76,o),
(170,162,o),
(170,237,qs)
);
},
{
closed = 1;
nodes = (
(227,558,l),
(514,723,l),
(466,789,l),
(180,624,l)
);
}
);
width = 573;
}
);
unicode = 240;
},
{
glyphname = e;
layers = (
{
layerId = master01;
shapes = (
{
closed = 1;
nodes = (
(31.615,359.677,o),
(98.615,431,qs),
(162.494,499,o),
(259.615,499,qs),
(360.801,499,o),
(416.115,428.5,qs),
(441.615,396,o),
(466.615,312,o),
(466.615,242,o),
(462.615,214,q),
(148.615,214,l),
(150.615,155,o),
(204.615,81,o),
(259.615,81,qs),
(332.615,81,o),
(346.615,145,q),
(465.615,145,l),
(453.176,72.436,o),
(398.615,30,qs),
(342.044,-14,o),
(259.615,-14,qs),
(163.854,-14,o),
(98.615,56.5,qs),
(31.615,128.903,o),
(31.615,243,qs)
);
},
{
closed = 1;
nodes = (
(356.615,289,l),
(356.615,367.703,o),
(306.115,395,qs),
(287.615,405,o),
(260.615,405,qs),
(210.615,405,o),
(154.615,340,o),
(149.615,289,q)
);
}
);
width = 514;
}
);
unicode = 101;
},
{
glyphname = ecircumflex;
layers = (
{
layerId = master01;
shapes = (
{
closed = 1;
nodes = (
(54,359.677,o),
(121,431,qs),
(184.879,499,o),
(282,499,qs),
(383.185,499,o),
(438.5,428.5,qs),
(464,396,o),
(489,312,o),
(489,242,o),
(485,214,q),
(171,214,l),
(173,155,o),
(227,81,o),
(282,81,qs),
(355,81,o),
(369,145,q),
(488,145,l),
(475.56,72.436,o),
(421,30,qs),
(364.429,-14,o),
(282,-14,qs),
(186.239,-14,o),
(121,56.5,qs),
(54,128.903,o),
(54,243,qs)
);
},
{
closed = 1;
nodes = (
(272,787,l),
(480,626,l),
(405,567,l),
(272,668,l),
(138,567,l),
(63,626,l)
);
},
{
closed = 1;
nodes = (
(379,289,l),
(379,367.703,o),
(328.5,395,qs),
(310,405,o),
(283,405,qs),
(233,405,o),
(177,340,o),
(172,289,q)
);
}
);
width = 530;
}
);
unicode = 234;
},
{
glyphname = edieresis;
layers = (
{
layerId = master01;
shapes = (
{
closed = 1;
nodes = (
(47,359.677,o),
(114,431,qs),
(177.879,499,o),
(275,499,qs),
(376.185,499,o),
(431.5,428.5,qs),
(457,396,o),
(482,312,o),
(482,242,o),
(478,214,q),
(164,214,l),
(166,155,o),
(220,81,o),
(275,81,qs),
(348,81,o),
(362,145,q),
(481,145,l),
(468.56,72.436,o),
(414,30,qs),
(357.429,-14,o),
(275,-14,qs),
(179.239,-14,o),
(114,56.5,qs),
(47,128.903,o),
(47,243,qs)
);
},
{
closed = 1;
nodes = (
(138,745,o),
(200,745,o),
(240,707,o),
(240,650,o),
(200,613,o),
(138,613,o),
(99,650,o),
(99,707,o)
);
},
{
closed = 1;
nodes = (
(372,289,l),
(372,367.703,o),
(321.5,395,qs),
(303,405,o),
(276,405,qs),
(226,405,o),
(170,340,o),
(165,289,q)
);
},
{
closed = 1;
nodes = (
(332,746,o),
(393,746,o),
(433,708,o),
(433,650,o),
(393,614,o),
(332,614,o),
(292,650,o),
(292,708,o)
);
}
);
width = 530;
}
);
unicode = 235;
},
{
glyphname = egrave;
layers = (
{
layerId = master01;
shapes = (
{
closed = 1;
nodes = (
(47,359.677,o),
(114,431,qs),
(177.879,499,o),
(275,499,qs),
(376.185,499,o),
(431.5,428.5,qs),
(457,396,o),
(482,312,o),
(482,242,o),
(478,214,q),
(164,214,l),
(166,155,o),
(220,81,o),
(275,81,qs),
(348,81,o),
(362,145,q),
(481,145,l),
(468.56,72.436,o),
(414,30,qs),
(357.429,-14,o),
(275,-14,qs),
(179.239,-14,o),
(114,56.5,qs),
(47,128.903,o),
(47,243,qs)
);
},
{
closed = 1;
nodes = (
(154,774,l),
(421,642,l),
(391,568,l),
(112,672,l)
);
},
{
closed = 1;
nodes = (
(372,289,l),
(372,367.703,o),
(321.5,395,qs),
(303,405,o),
(276,405,qs),
(226,405,o),
(170,340,o),
(165,289,q)
);
}
);
width = 530;
}
);
unicode = 232;
},
{
color = 3;
glyphname = eturned;
lastChange = "2023-04-20 11:32:41 +0000";
layers = (
{
layerId = master01;
shapes = (
{
closed = 1;
nodes = (
(62,409,o),
(167,488,o),
(245,488,qs),
(341.185,488,o),
(461,351.368,o),
(461,122.862,o),
(339.769,-13,o),
(138.946,-13,o),
(40.149,142.553,o),
(55,255,q),
(382,255,l),
(382,329.176,o),
(310.356,424,o),
(245,424,qs),
(145.841,424,o),
(132,337,q),
(51,337,l)
);
},
{
closed = 1;
nodes = (
(126,94.8,o),
(187.5,62,qs),
(210,50,o),
(242.5,50,qs),
(304.45,50,o),
(374.773,132.733,o),
(381,195,q),
(126,195,l)
);
}
);
width = 515;
}
);
unicode = 477;
},
{
glyphname = f;
layers = (
{
layerId = master01;
shapes = (
{
closed = 1;
nodes = (
(40,486,l),
(112,486,l),
(112,543,ls),
(112,618.341,o),
(156.5,658.5,qs),
(195.838,694,o),
(260,694,qs),
(301,694,o),
(361,682,q),
(338,591,l),
(310,601,o),
(265,601,o),
(231,576,o),
(231,542,qs),
(231,486,l),
(320,486,l),
(320,407,l),
(231,407,l),
(231,0,l),
(112,0,l),
(112,407,l),
(40,407,l)
);
}
);
width = 366;
}
);
unicode = 102;
},
{
glyphname = g;
layers = (
{
layerId = master01;
shapes = (
{
closed = 1;
nodes = (
(15,-42,o),
(70,11,o),
(115,18,q),
(56,53.821,o),
(56,107,qs),
(56,142,o),
(100,189,o),
(135,199,q),
(76,249.259,o),
(76,324,qs),
(76,402.947,o),
(137.5,451.5,qs),
(197.667,499,o),
(353,499,o),
(405,470,q),
(410.89,526.934,o),
(454,562.5,qs),
(495.818,597,o),
(553,597,q),
(547,484,l),
(461,484,o),
(458,427,q),
(495,381.294,o),
(495,285,o),
(461,220,o),
(432.5,197.5,qs),
(372.333,150,o),
(286,150,qs),
(237,150,o),
(197,165,q),
(157,153.235,o),
(157,117,qs),
(157,72,o),
(233,72,qs),
(396,72,ls),
(562,72,o),
(562,-44,qs),
(562,-83,o),
(523,-158,o),
(486,-187,qs),
(404.345,-251,o),
(280,-251,qs),
(159.8,-251,o),
(85,-201.5,qs),
(15,-155.176,o),
(15,-87,qs)
);
},
{
closed = 1;
nodes = (
(131,-116,o),
(210,-157,o),
(318,-157,o),
(379,-139,o),
(400.5,-124.5,qs),
(445,-94.488,o),
(445,-52,qs),
(445,-34,o),
(420,-11,o),
(396,-11,qs),
(225,-11,l),
(131,-15.178,o),
(131,-82.5,qs)
);
},
{
closed = 1;
nodes = (
(241,233,o),
(333,233,o),
(378,285,o),
(378,366,o),
(333,417,o),
(241,417,o),
(193,366,o),
(193,285,o)
);
}
);
width = 582;
}
);
unicode = 103;
},
{
glyphname = h;
layers = (
{
layerId = master01;
shapes = (
{
closed = 1;
nodes = (
(93,686,l),
(211,686,l),
(211,407,l),
(261,499,o),
(453,499,o),
(544,381,o),
(544,284,qs),
(544,0,l),
(426,0,l),
(426,284,ls),
(426,338,o),
(374,393,o),
(280,393,o),
(213,309,o),
(211,225,q),
(211,0,l),
(93,0,l)
);
}
);
width = 623;
}
);
unicode = 104;
},
{
glyphname = i;
layers = (
{
layerId = master01;
shapes = (
{
closed = 1;
nodes = (
(127,712,o),
(196,712,o),
(235,675,o),
(235,611,o),
(196,574,o),
(127,574,o),
(89,611,o),
(89,675,o)
);
},
{
closed = 1;
nodes = (
(103,487,l),
(221,487,l),
(221,0,l),
(103,0,l)
);
}
);
width = 328;
}
);
unicode = 105;
},
{
glyphname = idotless;
lastChange = "2023-04-20 11:32:41 +0000";
layers = (
{
layerId = master01;
shapes = (
{
closed = 1;
nodes = (
(93,487,l),
(211,487,l),
(211,0,l),
(93,0,l)
);
}
);
width = 304;
}
);
unicode = 305;
},
{
glyphname = icircumflex;
layers = (
{
layerId = master01;
shapes = (
{
closed = 1;
nodes = (
(162,777,l),
(370,616,l),
(295,557,l),
(162,658,l),
(28,557,l),
(-47,616,l)
);
},
{
closed = 1;
nodes = (
(103,487,l),
(221,487,l),
(221,0,l),
(103,0,l)
);
}
);
width = 328;
}
);
unicode = 238;
},
{
glyphname = idieresis;
layers = (
{
layerId = master01;
shapes = (
{
closed = 1;
nodes = (
(34,745,o),
(96,745,o),
(136,707,o),
(136,650,o),
(96,613,o),
(34,613,o),
(-5,650,o),
(-5,707,o)
);
},
{
closed = 1;
nodes = (
(103,487,l),
(221,487,l),
(221,0,l),
(103,0,l)
);
},
{
closed = 1;
nodes = (
(228,746,o),
(289,746,o),
(329,708,o),
(329,650,o),
(289,614,o),
(228,614,o),
(188,650,o),
(188,708,o)
);
}
);
width = 328;
}
);
unicode = 239;
},
{
glyphname = igrave;
layers = (
{
layerId = master01;
shapes = (
{
closed = 1;
nodes = (
(50,764,l),
(317,632,l),
(287,558,l),
(8,662,l)
);
},
{
closed = 1;
nodes = (
(103,487,l),
(221,487,l),
(221,0,l),
(103,0,l)
);
}
);
width = 328;
}
);
unicode = 236;
},
{
glyphname = j;
layers = (
{
layerId = master01;
shapes = (
{
closed = 1;
nodes = (
(-74,-118,l),
(-14,-148,o),
(72,-148,o),
(110,-107,o),
(110,-56,qs),
(110,488,l),
(228,488,l),
(228,-58,ls),
(228,-162,o),
(141,-251,o),
(1.5,-251,o),
(-76,-220,q)
);
},
{
closed = 1;
nodes = (
(134,712,o),
(203,712,o),
(241,675,o),
(241,611,o),
(203,574,o),
(134,574,o),
(95,611,o),
(95,675,o)
);
}
);
width = 335;
}
);
unicode = 106;
},
{
color = 3;
glyphname = jdotless;
lastChange = "2023-04-20 11:32:41 +0000";
layers = (
{
layerId = master01;
shapes = (
{
closed = 1;
nodes = (
(-82,-140,l),
(-18.882,-177,o),
(33,-177,qs),
(121,-177,o),
(121,-67,qs),
(121,480,l),
(200,480,l),
(200,-67,ls),
(200,-203.857,o),
(110,-236,qs),
(82,-246,o),
(48,-246,qs),
(-14.056,-246,o),
(-86,-209,q)
);
}
);
width = 314;
}
);
unicode = 567;
},
{
glyphname = k;
layers = (
{
layerId = master01;
shapes = (
{
closed = 1;
nodes = (
(93,686,l),
(211,686,l),
(211,315,l),
(403,486,l),
(563,486,l),
(348,306,l),
(575,0,l),
(431,0,l),
(265,237,l),
(211,192,l),
(211,0,l),
(93,0,l)
);
}
);
width = 575;
}
);
unicode = 107;
},
{
glyphname = kgreenlandic;
layers = (
{
layerId = master01;
shapes = (
{
closed = 1;
nodes = (
(93,456,l),
(211,486,l),
(211,315,l),
(403,486,l),
(563,486,l),
(348,306,l),
(575,0,l),
(431,0,l),
(265,237,l),
(211,192,l),
(211,0,l),
(93,0,l)
);
}
);
userData = {
com.fontlab.hintData = {
hhints = (
{
position = 0;
width = 21;
},
{
position = 458;
width = 20;
}
);
vhints = (
{
position = 50;
width = 79;
}
);
};
};
width = 610;
}
);
unicode = 312;
},
{
glyphname = l;
layers = (
{
layerId = master01;
shapes = (
{
closed = 1;
nodes = (
(93,686,l),
(211,686,l),
(211,0,l),
(93,0,l)
);
}
);
width = 304;
}
);
unicode = 108;
},
{
glyphname = lslash;
layers = (
{
layerId = master01;
shapes = (
{
closed = 1;
nodes = (
(284.886,460.852,l),
(322,404,l),
(70,220,l),
(32.886,276.852,l)
);
},
{
closed = 1;
nodes = (
(133,681,l),
(212,681,l),
(212,0,l),
(133,0,l)
);
}
);
width = 354;
}
);
unicode = 322;
},
{
glyphname = m;
layers = (
{
layerId = master01;
shapes = (
{
closed = 1;
nodes = (
(93,486,l),
(196,486,l),
(209,402,l),
(256.51,499,o),
(363,499,qs),
(424,499,o),
(505,443,o),
(525,394,q),
(571.875,499,o),
(690,499,qs),
(776.536,499,o),
(825,440,qs),
(871,384,o),
(871,284,qs),
(871,0,l),
(752,0,l),
(752,284,ls),
(752,338,o),
(700,393,o),
(606,393,o),
(546,311,o),
(544,228,q),
(544,0,l),
(426,0,l),
(426,284,ls),
(426,338,o),
(374,393,o),
(280,393,o),
(213,309,o),
(211,225,q),
(211,0,l),
(93,0,l)
);
}
);
width = 949;
}
);
unicode = 109;
},
{
glyphname = n;
layers = (
{
layerId = master01;
shapes = (
{
closed = 1;
nodes = (
(93,486,l),
(196,486,l),
(209,402,l),
(256.51,499,o),
(363,499,qs),
(453,499,o),
(544,381,o),
(544,284,qs),
(544,0,l),
(426,0,l),
(426,284,ls),
(426,338,o),
(374,393,o),
(280,393,o),
(213,309,o),
(211,225,q),
(211,0,l),
(93,0,l)
);
}
);
width = 623;
}
);
unicode = 110;
},
{
glyphname = ntilde;
layers = (
{
layerId = master01;
shapes = (
{
closed = 1;
nodes = (
(211,0,l),
(211,225,l),
(213,309,o),
(280,393,o),
(374,393,o),
(426,338,o),
(426,284,qs),
(426,0,l),
(544,0,l),
(544,284,ls),
(544,381,o),
(453,499,o),
(363,499,qs),
(256.51,499,o),
(209,402,q),
(196,486,l),
(93,486,l),
(93,0,l)
);
},
{
closed = 1;
nodes = (
(153,684,o),
(210,751,o),
(248,751,qs),
(274.714,751,o),
(347,714,o),
(372,702,o),
(384,702,qs),
(416.269,702,o),
(437,751,q),
(487,718,l),
(476,664,o),
(419,595,o),
(387,595,qs),
(369,595,o),
(334,609,o),
(307.5,622.5,qs),
(263.333,645,o),
(247.167,645,qs),
(212.138,645,o),
(188,595,q),
(141,623,l)
);
}
);
width = 623;
}
);
unicode = 241;
},
{
glyphname = o;
layers = (
{
layerId = master01;
shapes = (
{
closed = 1;
nodes = (
(47,367,o),
(116,436,qs),
(179,499,o),
(283.5,499,qs),
(333,499,o),
(419,468,o),
(450.5,436,qs),
(519,366.413,o),
(519,242,qs),
(519,119.587,o),
(450.5,50,qs),
(387.5,-14,o),
(284,-14,qs),
(180,-14,o),
(116,50,qs),
(47,119,o),
(47,242,qs)
);
},
{
closed = 1;
nodes = (
(227,89,o),
(333,89,o),
(401,166,o),
(401,320,o),
(341,397,o),
(234,397,o),
(166,320,o),
(166,166,o)
);
}
);
width = 566;
}
);
unicode = 111;
},
{
glyphname = ocircumflex;
layers = (
{
layerId = master01;
shapes = (
{
closed = 1;
nodes = (
(47,367,o),
(116,436,qs),
(179,499,o),
(283.5,499,qs),
(333,499,o),
(419,468,o),
(450.5,436,qs),
(519,366.413,o),
(519,242,qs),
(519,119.587,o),
(450.5,50,qs),
(387.5,-14,o),
(284,-14,qs),
(180,-14,o),
(116,50,qs),
(47,119,o),
(47,242,qs)
);
},
{
closed = 1;
nodes = (
(284,777,l),
(492,616,l),
(417,557,l),
(284,658,l),
(150,557,l),
(75,616,l)
);
},
{
closed = 1;
nodes = (
(227,89,o),
(333,89,o),
(401,166,o),
(401,320,o),
(341,397,o),
(234,397,o),
(166,320,o),
(166,166,o)
);
}
);
width = 566;
}
);
unicode = 244;
},
{
glyphname = odieresis;
layers = (
{
layerId = master01;
shapes = (
{
closed = 1;
nodes = (
(47,367,o),
(116,436,qs),
(179,499,o),
(283.5,499,qs),
(333,499,o),
(419,468,o),
(450.5,436,qs),
(519,366.413,o),
(519,242,qs),
(519,119.587,o),
(450.5,50,qs),
(387.5,-14,o),
(284,-14,qs),
(180,-14,o),
(116,50,qs),
(47,119,o),
(47,242,qs)
);
},
{
closed = 1;
nodes = (
(156,745,o),
(218,745,o),
(258,707,o),
(258,650,o),
(218,613,o),
(156,613,o),
(117,650,o),
(117,707,o)
);
},
{
closed = 1;
nodes = (
(227,89,o),
(333,89,o),
(401,166,o),
(401,320,o),
(341,397,o),
(234,397,o),
(166,320,o),
(166,166,o)
);
},
{
closed = 1;
nodes = (
(350,746,o),
(411,746,o),
(451,708,o),
(451,650,o),
(411,614,o),
(350,614,o),
(310,650,o),
(310,708,o)
);
}
);
width = 566;
}
);
unicode = 246;
},
{
glyphname = ograve;
layers = (
{
layerId = master01;
shapes = (
{
closed = 1;
nodes = (
(47,367,o),
(116,436,qs),
(179,499,o),
(283.5,499,qs),
(333,499,o),
(419,468,o),
(450.5,436,qs),
(519,366.413,o),
(519,242,qs),
(519,119.587,o),
(450.5,50,qs),
(387.5,-14,o),
(284,-14,qs),
(180,-14,o),
(116,50,qs),
(47,119,o),
(47,242,qs)
);
},
{
closed = 1;
nodes = (
(172,764,l),
(439,632,l),
(409,558,l),
(130,662,l)
);
},
{
closed = 1;
nodes = (
(227,89,o),
(333,89,o),
(401,166,o),
(401,320,o),
(341,397,o),
(234,397,o),
(166,320,o),
(166,166,o)
);
}
);
width = 566;
}
);
unicode = 242;
},
{
glyphname = oslash;
layers = (
{
layerId = master01;
shapes = (
{
closed = 1;
nodes = (
(492.436,511.602,l),
(562.581,438.889,l),
(77.496,-29.77,l),
(7.351,42.943,l)
);
},
{
closed = 1;
nodes = (
(47,367,o),
(116,436,qs),
(179,499,o),
(283.5,499,qs),
(333,499,o),
(419,468,o),
(450.5,436,qs),
(519,366.413,o),
(519,242,qs),
(519,119.587,o),
(450.5,50,qs),
(387.5,-14,o),
(284,-14,qs),
(180,-14,o),
(116,50,qs),
(47,119,o),
(47,242,qs)
);
},
{
closed = 1;
nodes = (
(227,89,o),
(333,89,o),
(401,166,o),
(401,320,o),
(341,397,o),
(234,397,o),
(166,320,o),
(166,166,o)
);
}
);
width = 566;
}
);
unicode = 248;
},
{
glyphname = otilde;
layers = (
{
layerId = master01;
shapes = (
{
closed = 1;
nodes = (
(47,119,o),
(116,50,qs),
(180,-14,o),
(284,-14,qs),
(387.5,-14,o),
(450.5,50,qs),
(519,119.587,o),
(519,242,qs),
(519,366.413,o),
(450.5,436,qs),
(388.484,499,o),
(283.5,499,qs),
(234,499,o),
(148,468,o),
(116,436,qs),
(47,367,o),
(47,242,qs)
);
},
{
closed = 1;
nodes = (
(122,684,o),
(179,751,o),
(217,751,qs),
(243.714,751,o),
(316,714,o),
(341,702,o),
(353,702,qs),
(385.269,702,o),
(406,751,q),
(456,718,l),
(445,664,o),
(388,595,o),
(356,595,qs),
(338,595,o),
(303,609,o),
(276.5,622.5,qs),
(232.333,645,o),
(216.167,645,qs),
(181.138,645,o),
(157,595,q),
(110,623,l)
);
},
{
closed = 1;
nodes = (
(234,397,o),
(341,397,o),
(401,320,o),
(401,166,o),
(333,89,o),
(227,89,o),
(166,166,o),
(166,320,o)
);
}
);
width = 566;
}
);
unicode = 245;
},
{
glyphname = oe;
layers = (
{
layerId = master01;
shapes = (
{
closed = 1;
nodes = (
(47,367,o),
(116,436,qs),
(179,499,o),
(283.5,499,qs),
(333,499,o),
(419,468,o),
(450.5,436,qs),
(456.009,430.404,o),
(461.074,424.453,q),
(463.969,427.773,o),
(467,431,qs),
(530.879,499,o),
(628,499,qs),
(729.185,499,o),
(784.5,428.5,qs),
(810,396,o),
(835,312,o),
(835,242,o),
(831,214,q),
(518.057,214,l),
(517.773,209.89,o),
(517.403,205.846,qs),
(520.891,152.409,o),
(546,118,qs),
(573,81,o),
(628,81,qs),
(701,81,o),
(715,145,q),
(834,145,l),
(821.561,72.436,o),
(767,30,qs),
(710.429,-14,o),
(628,-14,qs),
(532.239,-14,o),
(467,56.5,qs),
(464.327,59.388,o),
(461.761,62.343,q),
(456.383,55.977,o),
(450.5,50,qs),
(387.5,-14,o),
(284,-14,qs),
(180,-14,o),
(116,50,qs),
(47,119,o),
(47,242,qs)
);
},
{
closed = 1;
nodes = (
(227,89,o),
(333,89,o),
(367,127.5,qs),
(396.734,161.169,o),
(400.465,224.284,q),
(400,233.497,o),
(400,243,qs),
(399.99,252.925,o),
(400.465,262.521,qs),
(397.058,325.046,o),
(371,358.5,qs),
(341,397,o),
(234,397,o),
(166,320,o),
(166,166,o)
);
},
{
closed = 1;
nodes = (
(725,289,l),
(725,367.703,o),
(674.5,395,qs),
(656,405,o),
(629,405,qs),
(579,405,o),
(523,340,o),
(518,289,q)
);
}
);
width = 882;
}
);
unicode = 339;
},
{
glyphname = p;
layers = (
{
layerId = master01;
shapes = (
{
closed = 1;
nodes = (
(93,486,l),
(190,486,l),
(201,420,l),
(247.244,499,o),
(341,499,qs),
(431.121,499,o),
(495,431,qs),
(563,358.613,o),
(563,243,qs),
(563,125.762,o),
(494.5,54,qs),
(429.591,-14,o),
(252,-14,o),
(211,39,q),
(211,-237,l),
(93,-237,l)
);
},
{
closed = 1;
nodes = (
(211,148.6,o),
(244,120,qs),
(275.154,93,o),
(319.5,93,qs),
(341,93,o),
(386,111,o),
(404,130,qs),
(444,172.222,o),
(444,313,o),
(375,393,o),
(276,393,o),
(213,336,o),
(211,283,q),
(211,196,ls)
);
}
);
width = 610;
}
);
unicode = 112;
},
{
glyphname = thorn;
layers = (
{
layerId = master01;
shapes = (
{
closed = 1;
nodes = (
(211,-237,l),
(211,39,l),
(252,-14,o),
(336,-14,qs),
(430,-14,o),
(563,126,o),
(563,243,qs),
(563,359,o),
(432,499,o),
(341,499,qs),
(248,499,o),
(201,420,q),
(201,649,l),
(93,649,l),
(93,-237,l)
);
},
{
closed = 1;
nodes = (
(211,283,ls),
(211,334,o),
(275,393,o),
(321,393,qs),
(375,393,o),
(444,312,o),
(444,243,qs),
(444,172,o),
(368,93,o),
(319,93,qs),
(275,93,o),
(211,149,o),
(211,196,qs)
);
}
);
width = 610;
}
);
unicode = 254;
},
{
glyphname = q;
layers = (
{
layerId = master01;
shapes = (
{
closed = 1;
nodes = (
(47,357.967,o),
(114.5,431,qs),
(177.348,499,o),
(268,499,qs),
(313,499,o),
(390,456,o),
(414,411,q),
(440,486,l),
(517,486,l),
(517,-237,l),
(398,-237,l),
(398,63,l),
(361.639,-14,o),
(274,-14,qs),
(180.409,-14,o),
(115.5,54,qs),
(47,125.762,o),
(47,243,qs)
);
},
{
closed = 1;
nodes = (
(166,172.222,o),
(206,130,qs),
(241.053,93,o),
(291,93,qs),
(332.4,93,o),
(363,118.5,qs),
(396.045,146.038,o),
(398,191,q),
(398,278,ls),
(398,333,o),
(334,393,o),
(235,393,o),
(166,313,o),
(166,243,qs)
);
}
);
width = 610;
}
);
unicode = 113;
},
{
glyphname = r;
layers = (
{
layerId = master01;
shapes = (
{
closed = 1;
nodes = (
(93,487,l),
(211,487,l),
(211,390,l),
(254.585,495,o),
(343,495,qs),
(360.333,495,o),
(386,488,q),
(384,370,l),
(356,376,o),
(329,376,qs),
(211,376,o),
(211,213,qs),
(211,0,l),
(93,0,l)
);
}
);
width = 416;
}
);
unicode = 114;
},
{
glyphname = s;
layers = (
{
layerId = master01;
shapes = (
{
closed = 1;
nodes = (
(159,148,l),
(160.917,79,o),
(260,79,qs),
(298,79,o),
(347,112,o),
(347,156,o),
(317,180,o),
(285,190,q),
(179,228,ls),
(61,269.404,o),
(61,362,qs),
(61,424,o),
(172,499,o),
(359,499,o),
(460,417,o),
(462,355,q),
(351,355,l),
(349,379,o),
(307,407,o),
(229,407,o),
(186,376,o),
(186,356,qs),
(186,321,o),
(245,304,q),
(360,261,l),
(417,242,o),
(478,183,o),
(478,136,qs),
(478,76.333,o),
(421,32,qs),
(361.857,-14,o),
(168,-14,o),
(50,71,o),
(49,148,q)
);
}
);
width = 527;
}
);
unicode = 115;
},
{
glyphname = germandbls;
layers = (
{
layerId = master01;
shapes = (
{
closed = 1;
nodes = (
(203,0,l),
(203,485,ls),
(203,553,o),
(258,614,o),
(315,614,qs),
(359,614,o),
(406,566,o),
(406,494,o),
(315,390,o),
(315,354,qs),
(315,329,o),
(347,287,o),
(393,255,o),
(439,223,o),
(471,180,o),
(471,155,qs),
(471,119,o),
(427,79,o),
(389,79,qs),
(342,79,o),
(286,106,q),
(286,13,l),
(343,-14,o),
(412,-14,qs),
(491,-14,o),
(601,83,o),
(601,162,qs),
(601,210,o),
(551,289,o),
(491,330,o),
(441,374,o),
(441,391,qs),
(441,406,o),
(469,441,o),
(502,470,o),
(530,521,o),
(530,549,qs),
(530,618,o),
(414,700,o),
(319,700,qs),
(85,700,o),
(85,484,qs),
(85,0,l)
);
}
);
width = 651;
}
);
unicode = 223;
},
{
glyphname = longs;
layers = (
{
layerId = master01;
shapes = (
{
closed = 1;
nodes = (
(40,486,l),
(112,486,l),
(112,543,ls),
(112,618.341,o),
(156.5,658.5,qs),
(195.838,694,o),
(260,694,qs),
(301,694,o),
(361,682,q),
(338,591,l),
(310,601,o),
(265,601,o),
(231,576,o),
(231,542,qs),
(231,0,l),
(112,0,l),
(112,407,l),
(40,407,l)
);
}
);
width = 366;
}
);
unicode = 383;
},
{
glyphname = t;
layers = (
{
layerId = master01;
shapes = (
{
closed = 1;
nodes = (
(32,486,l),
(100,486,l),
(100,614,l),
(218,614,l),
(218,486,l),
(350,486,l),
(350,407,l),
(218,407,l),
(218,139,ls),
(218,79,o),
(275,79,qs),
(304,79,o),
(350,95,q),
(367,12,l),
(300.818,-14,o),
(225,-14,o),
(168,4,o),
(146.5,22.5,qs),
(100,62.512,o),
(100,135,qs),
(100,407,l),
(32,407,l)
);
}
);
width = 395;
}
);
unicode = 116;
},
{
glyphname = u;
layers = (
{
layerId = master01;
shapes = (
{
closed = 1;
nodes = (
(83,487,l),
(201,487,l),
(201,189,ls),
(201,141,o),
(247,94,o),
(314,94,o),
(360,113,o),
(377,132.5,qs),
(414.107,175.064,o),
(416,247,q),
(416,487,l),
(534,487,l),
(534,0,l),
(416,0,l),
(416,88,l),
(370.469,-9,o),
(268,-9,qs),
(138.549,-9,o),
(97.5,91.5,qs),
(83,127,o),
(83,177,qs)
);
}
);
width = 627;
}
);
unicode = 117;
},
{
glyphname = ucircumflex;
layers = (
{
layerId = master01;
shapes = (
{
closed = 1;
nodes = (
(83,487,l),
(201,487,l),
(201,189,ls),
(201,141,o),
(247,94,o),
(314,94,o),
(360,113,o),
(377,132.5,qs),
(414.107,175.064,o),
(416,247,q),
(416,487,l),
(534,487,l),
(534,0,l),
(416,0,l),
(416,88,l),
(370.469,-9,o),
(268,-9,qs),
(138.549,-9,o),
(97.5,91.5,qs),
(83,127,o),
(83,177,qs)
);
},
{
closed = 1;
nodes = (
(313,797,l),
(521,636,l),
(446,577,l),
(313,678,l),
(179,577,l),
(104,636,l)
);
}
);
width = 627;
}
);
unicode = 251;
},
{
glyphname = udieresis;
layers = (
{
layerId = master01;
shapes = (
{
closed = 1;
nodes = (
(83,487,l),
(201,487,l),
(201,189,ls),
(201,141,o),
(247,94,o),
(314,94,o),
(360,113,o),
(377,132.5,qs),
(414.107,175.064,o),
(416,247,q),
(416,487,l),
(534,487,l),
(534,0,l),
(416,0,l),
(416,88,l),
(370.469,-9,o),
(268,-9,qs),
(138.549,-9,o),
(97.5,91.5,qs),
(83,127,o),
(83,177,qs)
);
},
{
closed = 1;
nodes = (
(185,745,o),
(247,745,o),
(287,707,o),
(287,650,o),
(247,613,o),
(185,613,o),
(146,650,o),
(146,707,o)
);
},
{
closed = 1;
nodes = (
(379,746,o),
(440,746,o),
(480,708,o),
(480,650,o),
(440,614,o),
(379,614,o),
(339,650,o),
(339,708,o)
);
}
);
width = 627;
}
);
unicode = 252;
},
{
glyphname = ugrave;
layers = (
{
layerId = master01;
shapes = (
{
closed = 1;
nodes = (
(83,487,l),
(201,487,l),
(201,189,ls),
(201,141,o),
(247,94,o),
(314,94,o),
(360,113,o),
(377,132.5,qs),
(414.107,175.064,o),
(416,247,q),
(416,487,l),
(534,487,l),
(534,0,l),
(416,0,l),
(416,88,l),
(370.469,-9,o),
(268,-9,qs),
(138.549,-9,o),
(97.5,91.5,qs),
(83,127,o),
(83,177,qs)
);
},
{
closed = 1;
nodes = (
(201,784,l),
(468,652,l),
(438,578,l),
(159,682,l)
);
}
);
width = 627;
}
);
unicode = 249;
},
{
glyphname = v;
layers = (
{
layerId = master01;
shapes = (
{
closed = 1;
nodes = (
(148,486,l),
(259,117,l),
(371,486,l),
(507,486,l),
(326,0,l),
(193,0,l),
(12,486,l)
);
}
);
width = 519;
}
);
unicode = 118;
},
{
glyphname = w;
layers = (
{
layerId = master01;
shapes = (
{
closed = 1;
nodes = (
(136,486,l),
(234,139,l),
(327,459,l),
(434,459,l),
(527,138,l),
(626,486,l),
(744,486,l),
(584,0,l),
(468,0,l),
(378,291,l),
(290,0,l),
(173,0,l),
(12,486,l)
);
}
);
width = 758;
}
);
unicode = 119;
},
{
glyphname = x;
layers = (
{
layerId = master01;
shapes = (
{
closed = 1;
nodes = (
(205,242,l),
(16,487,l),
(161,487,l),
(280,331,l),
(393,487,l),
(537,487,l),
(349,242,l),
(537,0,l),
(393,0,l),
(273,156,l),
(161,0,l),
(16,0,l)
);
}
);
width = 554;
}
);
unicode = 120;
},
{
glyphname = y;
layers = (
{
layerId = master01;
shapes = (
{
closed = 1;
nodes = (
(52,-148,o),
(105,-148,qs),
(140,-148,o),
(185,-92,o),
(199,-47,qs),
(214,0,l),
(19,486,l),
(153,486,l),
(270,136,l),
(372,486,l),
(492,486,l),
(306,-88,ls),
(277,-175,o),
(194,-251,o),
(65,-251,o),
(0,-219,q),
(0,-115,l)
);
}
);
width = 504;
}
);
unicode = 121;
},
{
glyphname = z;
layers = (
{
layerId = master01;
shapes = (
{
closed = 1;
nodes = (
(57,96,l),
(309,390,l),
(57,390,l),
(57,486,l),
(439,486,l),
(439,390,l),
(195,96,l),
(439,96,l),
(439,0,l),
(57,0,l)
);
}
);
width = 495;
}
);
unicode = 122;
},
{
glyphname = "Be-cy";
lastChange = "2023-04-20 11:32:41 +0000";
layers = (
{
layerId = master01;
shapes = (
{
closed = 1;
nodes = (
(410,103,o),
(461,149,o),
(461,225,o),
(408,272,o),
(353,272,qs),
(211,272,l),
(211,103,l),
(353,103,ls)
);
},
{
closed = 1;
nodes = (
(93,649,l),
(502,649,l),
(502,547,l),
(211,547,l),
(211,375,l),
(350,375,ls),
(490.818,375,o),
(553,308.5,qs),
(569.714,290.625,o),
(589,213.75,o),
(589,180,qs),
(589,60,o),
(470,16,qs),
(425,-5.002,o),
(356,0,qs),
(211,0,l),
(93,0,l)
);
}
);
userData = {
com.fontlab.hintData = {
hhints = (
{
position = 0;
width = 103;
},
{
position = 272;
width = 103;
},
{
position = 547;
width = 102;
}
);
vhints = (
{
position = 93;
width = 118;
},
{
position = 461;
width = 128;
}
);
};
};
width = 648;
}
);
unicode = 1041;
},
{
glyphname = "Ge-cy";
lastChange = "2023-04-20 11:32:41 +0000";
layers = (
{
layerId = master01;
shapes = (
{
closed = 1;
nodes = (
(502,649,l),
(502,547,l),
(211,547,l),
(211,0,l),
(93,0,l),
(93,649,l)
);
}
);
userData = {
com.fontlab.hintData = {
hhints = (
{
position = 0;
width = 21;
},
{
position = 547;
width = 102;
}
);
vhints = (
{
position = 93;
width = 118;
}
);
};
};
width = 547;
}
);
unicode = 1043;
},
{
glyphname = "De-cy";
lastChange = "2023-04-20 11:32:41 +0000";
layers = (
{
layerId = master01;
shapes = (
{
closed = 1;
nodes = (
(717,-140,l),
(599,-140,l),
(599,0,l),
(136,0,l),
(136,-140,l),
(18,-140,l),
(18,104,l),
(82,104,ls),
(115,104,o),
(162,224,qs),
(203,328,o),
(204.767,452,qs),
(214,649,l),
(625,649,l),
(625,104,l),
(717,104,l)
);
},
{
closed = 1;
nodes = (
(500,104,l),
(500,547,l),
(317,547,l),
(309.069,410,ls),
(303.607,317.72,o),
(282.82,242,qs),
(261.483,164.277,o),
(224,104,q)
);
}
);
userData = {
com.fontlab.hintData = {
hhints = (
{
position = -140;
width = 244;
},
{
position = 0;
width = 104;
},
{
position = 629;
width = 20;
}
);
vhints = (
{
position = 18;
width = 118;
},
{
position = 599;
width = 118;
}
);
};
};
width = 737;
}
);
unicode = 1044;
},
{
glyphname = "Zhe-cy";
lastChange = "2023-04-20 11:32:41 +0000";
layers = (
{
layerId = master01;
shapes = (
{
closed = 1;
nodes = (
(470,649,l),
(589,649,l),
(589,382,l),
(845,649,l),
(1007,649,l),
(721,357,l),
(1026,0,l),
(873,0,l),
(642,275,l),
(589,221,l),
(589,0,l),
(470,0,l),
(470,221,l),
(417,275,l),
(186,0,l),
(33,0,l),
(338,357,l),
(52,649,l),
(214,649,l),
(470,382,l)
);
}
);
userData = {
com.fontlab.hintData = {
hhints = (
{
position = 0;
width = 21;
},
{
position = 629;
width = 20;
}
);
vhints = (
{
position = 470;
width = 119;
}
);
};
};
width = 1092;
}
);
unicode = 1046;
},
{
glyphname = "Ze-cy";
lastChange = "2023-04-20 11:32:41 +0000";
layers = (
{
layerId = master01;
shapes = (
{
closed = 1;
nodes = (
(200,555,o),
(182,472,q),
(58,472,l),
(68,568,o),
(136,617,qs),
(200,662,o),
(304,662,qs),
(411,662,o),
(478,612,qs),
(548,561,o),
(548,481,qs),
(548,431,o),
(521,394.5,qs),
(494,358,o),
(441,340,q),
(500,320,o),
(535.5,280.5,qs),
(571,241,o),
(571,190,qs),
(571,139,o),
(552.5,103,qs),
(534,67,o),
(500,41,qs),
(428,-14,o),
(313,-14,qs),
(203,-14,o),
(128,42,qs),
(44,103,o),
(44,204,q),
(170,204,l),
(173,153,o),
(211.5,124,qs),
(250,95,o),
(312,95,qs),
(374,95,o),
(408.5,122.5,qs),
(443,150,o),
(443,192.5,qs),
(443,235,o),
(411.5,259,qs),
(380,283,o),
(312,283,qs),
(226,283,l),
(226,376,l),
(300,376,ls),
(357,376,o),
(389,400.5,qs),
(421,425,o),
(421,465,qs),
(421,505,o),
(393.5,530,qs),
(366,555,o),
(309,555,qs)
);
}
);
userData = {
com.fontlab.hintData = {
hhints = (
{
position = -14;
width = 109;
},
{
position = 283;
width = 93;
},
{
position = 555;
width = 107;
}
);
vhints = (
{
position = 44;
width = 126;
},
{
position = 421;
width = 127;
},
{
position = 443;
width = 128;
}
);
};
};
width = 622;
}
);
unicode = 1047;
},
{
glyphname = "Ii-cy";
lastChange = "2023-04-20 11:32:41 +0000";
layers = (
{
layerId = master01;
shapes = (
{
closed = 1;
nodes = (
(211,183,l),
(201,103,l),
(444,649,l),
(504,649,l),
(612,649,l),
(612,0,l),
(494,0,l),
(494,466,l),
(504,546,l),
(261,0,l),
(201,0,l),
(93,0,l),
(93,649,l),
(211,649,l)
);
}
);
userData = {
com.fontlab.hintData = {
hhints = (
{
position = 0;
width = 21;
},
{
position = 629;
width = 20;
}
);
vhints = (
{
position = 93;
width = 118;
},
{
position = 494;
width = 118;
}
);
};
};
width = 706;
}
);
unicode = 1048;
},
{
glyphname = "El-cy";
lastChange = "2023-04-20 11:32:41 +0000";
layers = (
{
layerId = master01;
shapes = (
{
closed = 1;
nodes = (
(23,104,l),
(51,94,o),
(71.613,94,qs),
(100,94,o),
(142,176.5,qs),
(196.977,283.955,o),
(205,456,qs),
(214,649,l),
(625,649,l),
(625,0,l),
(500,0,l),
(500,547,l),
(317,547,l),
(306,374,ls),
(296,212,o),
(217.177,97,qs),
(144,-11,o),
(67,-11,qs),
(51,-11,o),
(23,0,q)
);
}
);
userData = {
com.fontlab.hintData = {
hhints = (
{
position = -11;
width = 69;
},
{
position = 0;
width = 21;
},
{
position = 561;
width = 68;
}
);
vhints = (
{
position = 173;
width = 80;
},
{
position = 471;
width = 83;
}
);
};
};
width = 675;
}
);
unicode = 1051;
},
{
glyphname = "Pe-cy";
lastChange = "2023-04-20 11:32:41 +0000";
layers = (
{
layerId = master01;
shapes = (
{
closed = 1;
nodes = (
(612,0,l),
(494,0,l),
(494,545,l),
(211,545,l),
(211,0,l),
(93,0,l),
(93,649,l),
(612,649,l)
);
}
);
userData = {
com.fontlab.hintData = {
hhints = (
{
position = 0;
width = 21;
},
{
position = 545;
width = 104;
}
);
vhints = (
{
position = 93;
width = 118;
},
{
position = 494;
width = 118;
}
);
};
};
width = 706;
}
);
unicode = 1055;
},
{
glyphname = "U-cy";
lastChange = "2023-04-20 11:32:41 +0000";
layers = (
{
layerId = master01;
shapes = (
{
closed = 1;
nodes = (
(156,649,l),
(301,333,l),
(449,649,l),
(588,649,l),
(277,0,l),
(129,0,l),
(227,208,l),
(16,649,l)
);
}
);
userData = {
com.fontlab.hintData = {
hhints = (
{
position = 0;
width = 21;
},
{
position = 609;
width = 20;
}
);
};
};
width = 612;
}
);
unicode = 1059;
},
{
glyphname = "Ef-cy";
lastChange = "2023-04-20 11:32:41 +0000";
layers = (
{
layerId = master01;
shapes = (
{
closed = 1;
nodes = (
(169,603,o),
(293,604.9,qs),
(300,605,o),
(306,604.71,q),
(306,679,l),
(424,679,l),
(424,604.71,l),
(430,605,o),
(437,604.9,qs),
(559,605,o),
(710,441,o),
(710,176,o),
(562,26,o),
(437,24.1,qs),
(430,24,o),
(424,24.29,q),
(424,-50,l),
(306,-50,l),
(306,24.29,l),
(300,24,o),
(293,24.1,qs),
(168,24,o),
(20,176,o),
(20,441,o)
);
},
{
closed = 1;
nodes = (
(132,206,o),
(203.5,132.9,qs),
(227,109,o),
(293,111.7,qs),
(300,112,o),
(306,111.988,q),
(306,517.802,l),
(300,518,o),
(293,518.1,qs),
(233,518,o),
(203.5,490.3,qs),
(132,424,o),
(132,313.3,qs)
);
},
{
closed = 1;
nodes = (
(430,112,o),
(437,111.7,qs),
(495,112,o),
(598,204,o),
(598,313.3,qs),
(598,424,o),
(526.5,490.3,qs),
(496,519,o),
(437,518.1,qs),
(430,518,o),
(424,517.802,q),
(424,111.988,l)
);
}
);
userData = {
com.fontlab.hintData = {
hhints = (
{
position = 0;
width = 21;
},
{
position = 54;
width = 88;
},
{
position = 488;
width = 87;
}
);
vhints = (
{
position = 40;
width = 112;
},
{
position = 306;
width = 119;
},
{
position = 579;
width = 112;
}
);
};
};
width = 730;
}
);
unicode = 1060;
},
{
glyphname = "Che-cy";
lastChange = "2023-04-20 11:32:41 +0000";
layers = (
{
layerId = master01;
shapes = (
{
closed = 1;
nodes = (
(87,649,l),
(195,649,l),
(195,447,ls),
(195,359,o),
(254,281,o),
(326,281,qs),
(424,281,o),
(457,307,q),
(457,649,l),
(565,649,l),
(565,0,l),
(457,0,l),
(457,206.17,l),
(419,179,o),
(325.5,179,qs),
(216,179,o),
(87,299,o),
(87,417,qs)
);
}
);
userData = {
com.fontlab.hintData = {
hhints = (
{
position = 0;
width = 21;
},
{
position = 179;
width = 72;
},
{
position = 609;
width = 20;
}
);
vhints = (
{
position = 87;
width = 79;
},
{
position = 486;
width = 79;
}
);
};
};
width = 654;
}
);
unicode = 1063;
},
{
glyphname = "Tse-cy";
lastChange = "2023-04-20 11:32:41 +0000";
layers = (
{
layerId = master01;
shapes = (
{
closed = 1;
nodes = (
(93,649,l),
(211,649,l),
(211,102,l),
(462,102,l),
(462,649,l),
(580,649,l),
(580,102,l),
(659,102,l),
(659,-140,l),
(541,-140,l),
(541,0,l),
(93,0,l)
);
}
);
userData = {
com.fontlab.hintData = {
hhints = (
{
position = 0;
width = 112;
},
{
position = 629;
width = 20;
}
);
vhints = (
{
position = 93;
width = 118;
},
{
position = 442;
width = 118;
},
{
position = 521;
width = 118;
}
);
};
};
width = 689;
}
);
unicode = 1062;
},
{
glyphname = "Sha-cy";
lastChange = "2023-04-20 11:32:41 +0000";
layers = (
{
layerId = master01;
shapes = (
{
closed = 1;
nodes = (
(93,649,l),
(211,649,l),
(211,102,l),
(403,102,l),
(403,649,l),
(521,649,l),
(521,102,l),
(723,102,l),
(723,649,l),
(841,649,l),
(841,0,l),
(93,0,l)
);
}
);
userData = {
com.fontlab.hintData = {
hhints = (
{
position = 0;
width = 102;
},
{
position = 629;
width = 20;
}
);
vhints = (
{
position = 93;
width = 118;
},
{
position = 403;
width = 118;
},
{
position = 723;
width = 118;
}
);
};
};
width = 916;
}
);
unicode = 1064;
},
{
glyphname = "Shcha-cy";
lastChange = "2023-04-20 11:32:41 +0000";
layers = (
{
layerId = master01;
shapes = (
{
closed = 1;
nodes = (
(93,649,l),
(211,649,l),
(211,102,l),
(403,102,l),
(403,649,l),
(521,649,l),
(521,102,l),
(723,102,l),
(723,649,l),
(841,649,l),
(841,102,l),
(920,102,l),
(920,-140,l),
(802,-140,l),
(802,0,l),
(93,0,l)
);
}
);
userData = {
com.fontlab.hintData = {
hhints = (
{
position = 0;
width = 102;
},
{
position = 629;
width = 20;
}
);
vhints = (
{
position = 93;
width = 118;
},
{
position = 403;
width = 118;
},
{
position = 723;
width = 118;
}
);
};
};
width = 954;
}
);
unicode = 1065;
},
{
glyphname = "Softsign-cy";
lastChange = "2023-04-20 11:32:41 +0000";
layers = (
{
layerId = master01;
shapes = (
{
closed = 1;
nodes = (
(209,649,l),
(209,413,l),
(319,413,ls),
(429,413,o),
(552,306,o),
(552,107,o),
(429,0,o),
(319,0,qs),
(90,0,l),
(90,649,l)
);
},
{
closed = 1;
nodes = (
(209,102,l),
(319,102,ls),
(374,102,o),
(430,161,o),
(430,252,o),
(374,310,o),
(319,310,qs),
(209,310,l)
);
}
);
width = 602;
}
);
unicode = 1068;
},
{
glyphname = "Hardsign-cy";
lastChange = "2023-04-20 11:32:41 +0000";
layers = (
{
layerId = master01;
shapes = (
{
closed = 1;
nodes = (
(15,649,l),
(239,649,l),
(239,413,l),
(349,413,ls),
(459,413,o),
(582,306,o),
(582,107,o),
(459,0,o),
(349,0,qs),
(120,0,l),
(120,547,l),
(15,547,l)
);
},
{
closed = 1;
nodes = (
(239,102,l),
(349,102,ls),
(404,102,o),
(460,161,o),
(460,252,o),
(404,310,o),
(349,310,qs),
(239,310,l)
);
}
);
width = 659;
}
);
unicode = 1066;
},
{
glyphname = "Ereversed-cy";
lastChange = "2023-04-20 11:32:41 +0000";
layers = (
{
layerId = master01;
shapes = (
{
closed = 1;
nodes = (
(566,168,o),
(489,76,qs),
(413,-14,o),
(284,-14,qs),
(163,-14,o),
(24,105,o),
(24,214,q),
(151,214,l),
(151,161,o),
(221,94,o),
(359,94,o),
(399,155.5,qs),
(424.39,194.537,o),
(433.664,253,q),
(217,253,l),
(217,361,l),
(437.81,361,l),
(431.681,446.003,o),
(394,497.5,qs),
(352,555,o),
(284,555,qs),
(234,555,o),
(167,492,o),
(151,441,q),
(25,464,l),
(44,556,o),
(107,607,qs),
(175,662,o),
(286.5,662,qs),
(411,662,o),
(486.5,576.5,qs),
(566,486,o),
(566,326,qs)
);
}
);
userData = {
com.fontlab.hintData = {
hhints = (
{
position = -11;
width = 71;
},
{
position = 273;
width = 68;
},
{
position = 569;
width = 71;
}
);
vhints = (
{
position = 28;
width = 85;
},
{
position = 456;
width = 87;
}
);
};
};
width = 613;
}
);
unicode = 1069;
},
{
glyphname = "Yu-cy";
lastChange = "2023-04-20 11:32:41 +0000";
layers = (
{
layerId = master01;
shapes = (
{
closed = 1;
nodes = (
(93,649,l),
(211,649,l),
(211,378,l),
(282.263,378,l),
(294,506,o),
(362,579,qs),
(439,662,o),
(564.5,662,qs),
(630,662,o),
(738,619,o),
(777,577,qs),
(859,489,o),
(859,325,qs),
(859,160,o),
(777,70.5,qs),
(699,-14,o),
(564,-14,qs),
(440,-14,o),
(362,71.5,qs),
(293,147,o),
(282.05,275,q),
(211,275,l),
(211,0,l),
(93,0,l)
);
},
{
closed = 1;
nodes = (
(496,93,o),
(644,93,o),
(737,212,o),
(737,435,o),
(644,556,o),
(496,556,o),
(402,435,o),
(402,212,o)
);
}
);
userData = {
com.fontlab.hintData = {
hhints = (
{
position = -11;
width = 72;
},
{
position = 0;
width = 21;
},
{
position = 284;
width = 68;
},
{
position = 569;
width = 71;
},
{
position = 609;
width = 20;
}
);
vhints = (
{
position = 101;
width = 79;
},
{
position = 242;
width = 81;
},
{
position = 704;
width = 82;
}
);
};
};
width = 912;
}
);
unicode = 1070;
},
{
glyphname = "Ya-cy";
lastChange = "2023-04-20 11:32:41 +0000";
layers = (
{
layerId = master01;
shapes = (
{
closed = 1;
nodes = (
(384,0,l),
(384,253,l),
(294,253,l),
(151,0,l),
(-3,0,l),
(171,264,l),
(98,283,o),
(20,381,o),
(20,450,qs),
(20,540.645,o),
(83,594.5,qs),
(146.755,649,o),
(262,649,qs),
(502,649,l),
(502,0,l)
);
},
{
closed = 1;
nodes = (
(384,547,l),
(262,547,ls),
(202,547,o),
(142,488,o),
(142,391,o),
(208,332,o),
(273,332,qs),
(384,332,l)
);
}
);
userData = {
com.fontlab.hintData = {
hhints = (
{
position = 0;
width = 21;
},
{
position = 257;
width = 55;
},
{
position = 561;
width = 68;
}
);
vhints = (
{
position = 47;
width = 81;
},
{
position = 406;
width = 79;
}
);
};
};
width = 577;
}
);
unicode = 1071;
},
{
glyphname = "De-cy.loclBGR";
lastChange = "2023-04-20 11:32:41 +0000";
layers = (
{
layerId = master01;
shapes = (
{
closed = 1;
nodes = (
(717,-140,l),
(599,-140,l),
(599,0,l),
(136,0,l),
(136,-140,l),
(18,-140,l),
(18,104,l),
(112.414,104,l),
(298,649,l),
(446,649,l),
(624.867,104,l),
(717,104,l)
);
},
{
closed = 1;
nodes = (
(500.425,104,l),
(370,508,l),
(236.394,104,l)
);
}
);
userData = {
com.fontlab.hintData = {
hhints = (
{
position = -140;
width = 244;
},
{
position = 0;
width = 104;
},
{
position = 629;
width = 20;
}
);
vhints = (
{
position = 18;
width = 118;
},
{
position = 599;
width = 118;
}
);
};
};
width = 737;
}
);
},
{
glyphname = "El-cy.loclBGR";
lastChange = "2023-04-20 11:32:41 +0000";
layers = (
{
layerId = master01;
shapes = (
{
closed = 1;
nodes = (
(462,0,l),
(304,501,l),
(144,0,l),
(20,0,l),
(243,649,l),
(367,649,l),
(587,0,l)
);
}
);
width = 607;
}
);
},
{
glyphname = "be-cy";
lastChange = "2023-04-20 11:32:41 +0000";
layers = (
{
layerId = master01;
shapes = (
{
closed = 1;
nodes = (
(50,356,ls),
(50,452,o),
(74.5,510,qs),
(133,651,o),
(299,651,qs),
(378,651,o),
(378,682,qs),
(378,686,l),
(451,686,l),
(451,682,ls),
(451,548,o),
(296,542,qs),
(205,538,o),
(150,464,qs),
(129,435,o),
(129,399,qs),
(129,373,l),
(177,459,o),
(284,459.5,qs),
(372,460,o),
(426.5,400,qs),
(483,338,o),
(483,240.5,qs),
(483,125,o),
(373,-11,o),
(163,-11,o),
(108,56.5,qs),
(50,128,o),
(50,231,qs)
);
},
{
closed = 1;
nodes = (
(159,148,o),
(212,83,o),
(319,83,o),
(374,166,o),
(374,229.5,qs),
(374,291,o),
(344.5,331.02,qs),
(317,369,o),
(264,369,qs),
(204,369,o),
(177,323.5,qs),
(159,293,o),
(159,241,qs),
(159,204,ls)
);
}
);
userData = {
com.fontlab.hintData = {
hhints = (
{
position = -11;
width = 70;
},
{
position = 420;
width = 70;
},
{
position = 661;
width = 20;
}
);
vhints = (
{
position = 50;
width = 79;
},
{
position = 402;
width = 81;
}
);
};
};
width = 523;
}
);
unicode = 1073;
},
{
glyphname = "ve-cy";
lastChange = "2023-04-20 11:32:41 +0000";
layers = (
{
layerId = master01;
shapes = (
{
closed = 1;
nodes = (
(50,487,l),
(286,487,ls),
(348,487,o),
(392,455.5,qs),
(435,424,o),
(435,368,qs),
(435,328,o),
(404,273,o),
(374,266,q),
(431,251,o),
(473,195,o),
(473,138.5,qs),
(473,60,o),
(426.5,30,qs),
(378,0,o),
(286,0,qs),
(50,0,l)
);
},
{
closed = 1;
nodes = (
(258,96,ls),
(295,96,o),
(312.5,104,qs),
(342,117,o),
(342,158,qs),
(342,190,o),
(312,210,qs),
(296,221,o),
(258,221,qs),
(168,221,l),
(168,96,l)
);
},
{
closed = 1;
nodes = (
(244,300,ls),
(265,300,o),
(297,316,o),
(297,344,qs),
(297,365,o),
(281,374.413,qs),
(268,383,o),
(244,383,qs),
(168,383,l),
(168,300,l)
);
}
);
userData = {
com.fontlab.hintData = {
hhints = (
{
position = 0;
width = 59;
},
{
position = 229;
width = 56;
},
{
position = 422;
width = 68;
}
);
vhints = (
{
position = 50;
width = 79;
},
{
position = 357;
width = 88;
},
{
position = 402;
width = 81;
}
);
};
};
width = 523;
}
);
unicode = 1074;
},
{
glyphname = "ge-cy";
lastChange = "2023-04-20 11:32:41 +0000";
layers = (
{
layerId = master01;
shapes = (
{
closed = 1;
nodes = (
(50,479,l),
(360,479,l),
(360,378,l),
(168,378,l),
(168,0,l),
(50,0,l)
);
}
);
userData = {
com.fontlab.hintData = {
hhints = (
{
position = 0;
width = 21;
},
{
position = 411;
width = 68;
}
);
vhints = (
{
position = 50;
width = 79;
}
);
};
};
width = 400;
}
);
unicode = 1075;
},
{
glyphname = "de-cy";
lastChange = "2023-04-20 11:32:41 +0000";
layers = (
{
layerId = master01;
shapes = (
{
closed = 1;
nodes = (
(84.368,96,l),
(106,118,o),
(119,218,o),
(119,334,qs),
(119,479,l),
(494,479,l),
(494,96,l),
(550,96,l),
(550,-82,l),
(442,-82,l),
(442,0,l),
(124,0,l),
(124,-82,l),
(28,-82,l),
(28,96,l)
);
},
{
closed = 1;
nodes = (
(384,96,l),
(384,383,l),
(227,383,l),
(227,298,ls),
(227,166,o),
(194.886,96,q)
);
}
);
userData = {
com.fontlab.hintData = {
hhints = (
{
position = -82;
width = 150;
},
{
position = 0;
width = 68;
},
{
position = 411;
width = 68;
}
);
vhints = (
{
position = 28;
width = 79;
},
{
position = 119;
width = 86;
},
{
position = 385;
width = 89;
},
{
position = 451;
width = 79;
}
);
};
};
width = 578;
}
);
unicode = 1076;
},
{
glyphname = "zhe-cy";
lastChange = "2023-04-20 11:32:41 +0000";
layers = (
{
layerId = master01;
shapes = (
{
closed = 1;
nodes = (
(694,486,l),
(854,486,l),
(639,306,l),
(866,0,l),
(722,0,l),
(556,237,l),
(502,192,l),
(502,0,l),
(384,0,l),
(384,192,l),
(330,237,l),
(164,0,l),
(20,0,l),
(247,306,l),
(32,486,l),
(192,486,l),
(384,315,l),
(384,486,l),
(502,486,l),
(502,315,l)
);
}
);
width = 886;
}
);
unicode = 1078;
},
{
glyphname = "ze-cy";
lastChange = "2023-04-20 11:32:41 +0000";
layers = (
{
layerId = master01;
shapes = (
{
closed = 1;
nodes = (
(343,468,qs),
(402,435,o),
(402,362,qs),
(402,302,o),
(342,272,q),
(440,243,o),
(440,150,qs),
(440,68,o),
(322,-14,o),
(248,-14,qs),
(156,-14,o),
(31,74,o),
(30,141,q),
(157,141,l),
(165,115,o),
(181,102,qs),
(198,89,o),
(240,89,qs),
(273,89,o),
(289,102.5,qs),
(310,119,o),
(310,148,qs),
(310,195,o),
(273.5,213.5,qs),
(258,221,o),
(222,221,qs),
(199,221,l),
(199,300,l),
(222,300,ls),
(244,300,o),
(255,312.5,qs),
(264,322,o),
(264,350,qs),
(264,372,o),
(233,397,o),
(188,397,o),
(174,381.049,qs),
(165,371,o),
(164,332,q),
(46,332,ls),
(47,423,o),
(112,466.096,qs),
(162,499,o),
(288,499,o)
);
}
);
userData = {
com.fontlab.hintData = {
hhints = (
{
position = -11;
width = 70;
},
{
position = 234;
width = 54;
},
{
position = 430;
width = 68;
}
);
vhints = (
{
position = 298;
width = 87;
},
{
position = 343;
width = 80;
}
);
};
};
width = 480;
}
);
unicode = 1079;
},
{
glyphname = "ii-cy";
lastChange = "2023-04-20 11:32:41 +0000";
layers = (
{
layerId = master01;
shapes = (
{
closed = 1;
nodes = (
(50,479,l),
(168,479,l),
(168,158,l),
(393,479,l),
(511,479,l),
(511,0,l),
(393,0,l),
(393,321,l),
(168,0,l),
(50,0,l)
);
}
);
userData = {
com.fontlab.hintData = {
hhints = (
{
position = 0;
width = 21;
},
{
position = 459;
width = 20;
}
);
vhints = (
{
position = 50;
width = 79;
},
{
position = 390;
width = 79;
}
);
};
};
width = 561;
}
);
unicode = 1080;
},
{
glyphname = "ka-cy";
lastChange = "2023-04-20 11:32:41 +0000";
layers = (
{
layerId = master01;
shapes = (
{
closed = 1;
nodes = (
(93,486,l),
(211,486,l),
(211,315,l),
(403,486,l),
(563,486,l),
(348,306,l),
(575,0,l),
(431,0,l),
(265,237,l),
(211,192,l),
(211,0,l),
(93,0,l)
);
}
);
userData = {
com.fontlab.hintData = {
hhints = (
{
position = 0;
width = 21;
},
{
position = 458;
width = 20;
}
);
vhints = (
{
position = 50;
width = 79;
}
);
};
};
width = 610;
}
);
unicode = 1082;
},
{
glyphname = "el-cy";
lastChange = "2023-04-20 11:32:41 +0000";
layers = (
{
layerId = master01;
shapes = (
{
closed = 1;
nodes = (
(25,97,l),
(42,85,o),
(59,85,qs),
(97,85,o),
(114,195,o),
(114,334,qs),
(114,479,l),
(501,479,l),
(501,0,l),
(383,0,l),
(383,383,l),
(232,383,l),
(232,298,ls),
(232,228,o),
(221,128,o),
(190,36,o),
(127,-11,o),
(80,-11,qs),
(57,-11,o),
(25,2,q)
);
}
);
userData = {
com.fontlab.hintData = {
hhints = (
{
position = -11;
width = 81;
},
{
position = 0;
width = 21;
},
{
position = 411;
width = 68;
}
);
vhints = (
{
position = 141;
width = 86;
},
{
position = 407;
width = 89;
}
);
};
};
width = 546;
}
);
unicode = 1083;
},
{
glyphname = "em-cy";
lastChange = "2023-04-20 11:32:41 +0000";
layers = (
{
layerId = master01;
shapes = (
{
closed = 1;
nodes = (
(50,478,l),
(221,478,l),
(356.5,161.952,l),
(492,478,l),
(664,478,l),
(664,0,l),
(546,0,l),
(546,295,l),
(411,0,l),
(302,0,l),
(168,295,l),
(168,0,l),
(50,0,l)
);
}
);
userData = {
com.fontlab.hintData = {
hhints = (
{
position = 0;
width = 21;
},
{
position = 458;
width = 20;
}
);
vhints = (
{
position = 50;
width = 89;
},
{
position = 517;
width = 89;
}
);
};
};
width = 714;
}
);
unicode = 1084;
},
{
glyphname = "en-cy";
lastChange = "2023-04-20 11:32:41 +0000";
layers = (
{
layerId = master01;
shapes = (
{
closed = 1;
nodes = (
(50,479,l),
(168,479,l),
(168,300,l),
(383,300,l),
(383,479,l),
(501,479,l),
(501,0,l),
(383,0,l),
(383,222,l),
(168,222,l),
(168,0,l),
(50,0,l)
);
}
);
userData = {
com.fontlab.hintData = {
hhints = (
{
position = 0;
width = 21;
},
{
position = 222;
width = 78;
}
);
vhints = (
{
position = 50;
width = 118;
},
{
position = 383;
width = 118;
}
);
};
};
width = 551;
}
);
unicode = 1085;
},
{
glyphname = "pe-cy";
lastChange = "2023-04-20 11:32:41 +0000";
layers = (
{
layerId = master01;
shapes = (
{
closed = 1;
nodes = (
(50,479,l),
(479,479,l),
(479,0,l),
(361,0,l),
(361,383,l),
(168,383,l),
(168,0,l),
(50,0,l)
);
}
);
userData = {
com.fontlab.hintData = {
hhints = (
{
position = 0;
width = 21;
},
{
position = 383;
width = 96;
}
);
vhints = (
{
position = 50;
width = 118;
},
{
position = 361;
width = 118;
}
);
};
};
width = 529;
}
);
unicode = 1087;
},
{
glyphname = "te-cy";
lastChange = "2023-04-20 11:32:41 +0000";
layers = (
{
layerId = master01;
shapes = (
{
closed = 1;
nodes = (
(20,479,l),
(482,479,l),
(482,401,l),
(310,401,l),
(310,0,l),
(192,0,l),
(192,401,l),
(20,401,l)
);
}
);
userData = {
com.fontlab.hintData = {
hhints = (
{
position = 0;
width = 21;
},
{
position = 401;
width = 78;
}
);
vhints = (
{
position = 192;
width = 118;
}
);
};
};
width = 491;
}
);
unicode = 1090;
},
{
color = 3;
glyphname = "ef-cy";
lastChange = "2023-04-20 11:32:41 +0000";
layers = (
{
layerId = master01;
shapes = (
{
closed = 1;
nodes = (
(40,360,o),
(163,490,o),
(263,490,qs),
(314.631,490,o),
(356,472.672,q),
(356,681,l),
(435,681,l),
(435,472.672,l),
(476.369,490,o),
(528,490,qs),
(628,490,o),
(751,360,o),
(751,239,qs),
(751,119,o),
(628,-11,o),
(528,-11,qs),
(476.369,-11,o),
(435,6.328,q),
(435,-200,l),
(356,-200,l),
(356,6.328,l),
(314.631,-11,o),
(263,-11,qs),
(163,-11,o),
(40,119,o),
(40,239,qs)
);
},
{
closed = 1;
nodes = (
(196,57,o),
(265.5,57,qs),
(322.252,57,o),
(356,89.34,q),
(356,387.125,l),
(320.435,422,o),
(261.5,422,qs),
(192,422,o),
(120,325,o),
(120,154,o)
);
},
{
closed = 1;
nodes = (
(468.747,57,o),
(525.5,57,qs),
(595,57,o),
(671,154,o),
(671,325,o),
(599,422,o),
(529.5,422,qs),
(470.565,422,o),
(435,387.125,q),
(435,89.34,l)
);
}
);
userData = {
com.fontlab.hintData = {
hhints = (
{
position = -11;
width = 68;
},
{
position = 422;
width = 68;
},
{
position = 661;
width = 20;
}
);
vhints = (
{
position = 40;
width = 80;
},
{
position = 356;
width = 79;
},
{
position = 671;
width = 80;
}
);
};
};
width = 791;
}
);
unicode = 1092;
},
{
color = 3;
glyphname = "che-cy";
lastChange = "2023-04-20 11:32:41 +0000";
layers = (
{
layerId = master01;
shapes = (
{
closed = 1;
nodes = (
(40,479,l),
(119,479,l),
(119,301,ls),
(119,241.245,o),
(146.314,211,qs),
(174.31,180,o),
(231,180,qs),
(287,180,o),
(316.5,190,qs),
(379,207.663,o),
(379,218,qs),
(379,479,l),
(458,479,l),
(458,0,l),
(379,0,l),
(379,155,l),
(329,111,o),
(220,111,qs),
(139,111,o),
(40,201,o),
(40,295,qs)
);
}
);
userData = {
com.fontlab.hintData = {
hhints = (
{
position = 0;
width = 21;
},
{
position = 111;
width = 69;
},
{
position = 459;
width = 20;
}
);
vhints = (
{
position = 40;
width = 79;
},
{
position = 379;
width = 79;
}
);
};
};
width = 508;
}
);
unicode = 1095;
},
{
color = 3;
glyphname = "tse-cy";
lastChange = "2023-04-20 11:32:41 +0000";
layers = (
{
layerId = master01;
shapes = (
{
closed = 1;
nodes = (
(50,479,l),
(129,479,l),
(129,68,l),
(389,68,l),
(389,479,l),
(468,479,l),
(468,68,l),
(505,68,l),
(505,-82,l),
(433,-82,l),
(433,0,l),
(50,0,l)
);
}
);
userData = {
com.fontlab.hintData = {
hhints = (
{
position = 0;
width = 68;
},
{
position = 459;
width = 20;
}
);
vhints = (
{
position = 50;
width = 79;
},
{
position = 389;
width = 79;
},
{
position = 433;
width = 72;
}
);
};
};
width = 525;
}
);
unicode = 1094;
},
{
color = 3;
glyphname = "sha-cy";
lastChange = "2023-04-20 11:32:41 +0000";
layers = (
{
layerId = master01;
shapes = (
{
closed = 1;
nodes = (
(50,479,l),
(128,479,l),
(128,68,l),
(382,68,l),
(382,479,l),
(460,479,l),
(460,68,l),
(721,68,l),
(721,479,l),
(800,479,l),
(800,0,l),
(50,0,l)
);
}
);
userData = {
com.fontlab.hintData = {
hhints = (
{
position = 0;
width = 68;
},
{
position = 459;
width = 20;
}
);
vhints = (
{
position = 50;
width = 78;
},
{
position = 382;
width = 78;
},
{
position = 721;
width = 79;
}
);
};
};
width = 850;
}
);
unicode = 1096;
},
{
color = 3;
glyphname = "shcha-cy";
lastChange = "2023-04-20 11:32:41 +0000";
layers = (
{
layerId = master01;
shapes = (
{
closed = 1;
nodes = (
(50,479,l),
(128,479,l),
(128,68,l),
(382,68,l),
(382,479,l),
(460,479,l),
(460,68,l),
(721,68,l),
(721,479,l),
(800,479,l),
(800,68,l),
(837,68,l),
(837,-82,l),
(765,-82,l),
(765,0,l),
(50,0,l)
);
}
);
userData = {
com.fontlab.hintData = {
hhints = (
{
position = 0;
width = 68;
},
{
position = 459;
width = 20;
}
);
vhints = (
{
position = 50;
width = 78;
},
{
position = 382;
width = 78;
},
{
position = 721;
width = 79;
},
{
position = 765;
width = 72;
}
);
};
};
width = 857;
}
);
unicode = 1097;
},
{
color = 3;
glyphname = "softsign-cy";
lastChange = "2023-04-20 11:32:41 +0000";
layers = (
{
layerId = master01;
shapes = (
{
closed = 1;
nodes = (
(50,479,l),
(129,479,l),
(129.005,330,l),
(211,330,ls),
(315,330,o),
(424,237,o),
(424,159,qs),
(424,83,o),
(316,0,o),
(211,0,qs),
(50,0,l)
);
},
{
closed = 1;
nodes = (
(208,57,ls),
(280,57,o),
(344,109,o),
(344,159.5,qs),
(344,211,o),
(284,262,o),
(212.5,262,qs),
(129,262,l),
(129,57,l)
);
}
);
userData = {
com.fontlab.hintData = {
hhints = (
{
position = 0;
width = 57;
},
{
position = 262;
width = 68;
},
{
position = 459;
width = 20;
}
);
vhints = (
{
position = 50;
width = 79;
},
{
position = 344;
width = 80;
}
);
};
};
width = 464;
}
);
unicode = 1100;
},
{
color = 3;
glyphname = "yeru-cy";
lastChange = "2023-04-20 11:32:41 +0000";
layers = (
{
layerId = master01;
shapes = (
{
closed = 1;
nodes = (
(476,479,l),
(555,479,l),
(555,0,l),
(476,0,l)
);
},
{
ref = "softsign-cy";
}
);
userData = {
com.fontlab.hintData = {
hhints = (
{
position = 0;
width = 21;
},
{
position = 0;
width = 57;
},
{
position = 262;
width = 68;
},
{
position = 459;
width = 20;
}
);
vhints = (
{
position = 50;
width = 79;
},
{
position = 344;
width = 80;
},
{
position = 476;
width = 79;
}
);
};
};
width = 605;
}
);
unicode = 1099;
},
{
glyphname = "hardsign-cy";
lastChange = "2023-04-20 11:32:41 +0000";
layers = (
{
layerId = master01;
shapes = (
{
closed = 1;
nodes = (
(20,479,l),
(244,479,l),
(244.005,330,l),
(326,330,ls),
(430,330,o),
(539,237,o),
(539,159,qs),
(539,83,o),
(431,0,o),
(326,0,qs),
(165,0,l),
(165,412,l),
(20,412,l)
);
},
{
closed = 1;
nodes = (
(323,57,ls),
(395,57,o),
(459,109,o),
(459,159.5,qs),
(459,211,o),
(399,262,o),
(327.5,262,qs),
(244,262,l),
(244,57,l)
);
}
);
userData = {
com.fontlab.hintData = {
hhints = (
{
position = 0;
width = 57;
},
{
position = 262;
width = 68;
},
{
position = 412;
width = 67;
}
);
vhints = (
{
position = 165;
width = 79;
},
{
position = 459;
width = 80;
}
);
};
};
width = 579;
}
);
unicode = 1098;
},
{
color = 3;
glyphname = "ereversed-cy";
lastChange = "2023-04-20 11:32:41 +0000";
layers = (
{
layerId = master01;
shapes = (
{
closed = 1;
nodes = (
(121,161,l),
(121,59,o),
(235.5,59,qs),
(290.399,59,o),
(359.587,142.337,o),
(367.759,206,q),
(166,206,l),
(166,274,l),
(368.147,274,l),
(360.51,339.259,o),
(287.263,420,o),
(227,420,qs),
(188,420,o),
(133,369,o),
(121,331,q),
(41,338,l),
(57,407,o),
(160,490,o),
(240.5,490,qs),
(334,490,o),
(451,346,o),
(451,241.5,qs),
(451,135,o),
(330,-11,o),
(233,-11,qs),
(149,-11,o),
(40,83,o),
(40,161,q)
);
}
);
userData = {
com.fontlab.hintData = {
hhints = (
{
position = -11;
width = 70;
},
{
position = 206;
width = 68;
},
{
position = 420;
width = 70;
}
);
vhints = (
{
position = 40;
width = 81;
},
{
position = 368;
width = 83;
}
);
};
};
width = 491;
}
);
unicode = 1101;
},
{
color = 3;
glyphname = "yu-cy";
lastChange = "2023-04-20 11:32:41 +0000";
layers = (
{
layerId = master01;
shapes = (
{
closed = 1;
nodes = (
(50,478,l),
(129,478,l),
(129,295,l),
(183.701,295,l),
(195.087,375.947,o),
(241.5,425,qs),
(303,490,o),
(503,490,o),
(626,360,o),
(626,239,qs),
(626,119,o),
(503,-11,o),
(303,-11,o),
(241.5,54,qs),
(183.111,115.711,o),
(180.157,227,q),
(129,227,l),
(129,0,l),
(50,0,l)
);
},
{
closed = 1;
nodes = (
(331,57,o),
(470,57,o),
(546,154,o),
(546,325,o),
(474,422,o),
(335,422,o),
(261,325,o),
(261,154,o)
);
}
);
userData = {
com.fontlab.hintData = {
hhints = (
{
position = -11;
width = 68;
},
{
position = 0;
width = 21;
},
{
position = 227;
width = 68;
},
{
position = 422;
width = 68;
},
{
position = 458;
width = 20;
}
);
vhints = (
{
position = 50;
width = 79;
},
{
position = 180;
width = 81;
},
{
position = 546;
width = 80;
}
);
};
};
width = 666;
}
);
unicode = 1102;
},
{
color = 3;
glyphname = "ya-cy";
lastChange = "2023-04-20 11:32:41 +0000";
layers = (
{
layerId = master01;
shapes = (
{
closed = 1;
nodes = (
(185,230,l),
(160,242,ls),
(157,243,o),
(146,248,o),
(119,265,o),
(98,286,o),
(81,323,o),
(81,344,qs),
(81,413,o),
(177,478,o),
(252,478,qs),
(441,478,l),
(441,0,l),
(362,0,l),
(362,206,l),
(258,206,l),
(107,0,l),
(10,0,l)
);
},
{
closed = 1;
nodes = (
(165,313,o),
(214,274,o),
(247,274,qs),
(362,274,l),
(362,422,l),
(247,422,ls),
(214,422,o),
(165,382,o),
(165,347,qs)
);
}
);
userData = {
com.fontlab.hintData = {
hhints = (
{
position = 0;
width = 21;
},
{
position = 206;
width = 68;
},
{
position = 422;
width = 56;
}
);
vhints = (
{
position = 81;
width = 84;
},
{
position = 362;
width = 79;
}
);
};
};
width = 491;
}
);
unicode = 1103;
},
{
glyphname = "ve-cy.loclBGR";
lastChange = "2023-04-20 11:32:41 +0000";
layers = (
{
layerId = master01;
shapes = (
{
closed = 1;
nodes = (
(334.2,567.229,o),
(284.333,596.175,o),
(255.8,596.175,qs),
(151.8,596.175,o),
(151.8,488.375,qs),
(151.8,407.575,l),
(168.873,420.266,o),
(221.067,440.375,o),
(243.8,440.375,qs),
(274.153,440.375,o),
(301.17,459.347,qs),
(305.974,465.511,o),
(321.482,483.229,o),
(325.988,489.972,o),
(332.685,506.308,o),
(334.2,527.088,o),
(334.2,544.375,qs)
);
},
{
closed = 1;
nodes = (
(288.178,687.35,o),
(351.167,671.399,o),
(408.734,640.127,o),
(445,584.937,o),
(445,550,qs),
(445,504.186,o),
(405.135,443.491,o),
(366.554,415.128,q),
(418.892,392.027,o),
(483,298.716,o),
(483,240.5,qs),
(483,135,o),
(365,-11,o),
(270,-11,qs),
(149,-11,o),
(50,86,o),
(50,160,qs),
(50,484,ls),
(50,541.949,o),
(84.707,624.805,o),
(146.173,668.313,o),
(215.55,687.35,o),
(257.4,687.35,qs)
);
},
{
closed = 1;
nodes = (
(156.3,172,ls),
(156.3,90,o),
(264.3,90,qs),
(314.094,90,o),
(374.7,175.772,o),
(374.7,234.8,qs),
(374.7,277.957,o),
(313.096,338,o),
(265.9,338,qs),
(236.93,338,o),
(175.624,320.004,o),
(156.3,303.666,q)
);
}
);
userData = {
com.fontlab.hintData = {
hhints = (
{
position = -11;
width = 101;
},
{
position = 338;
width = 102;
},
{
position = 596;
width = 91;
}
);
vhints = (
{
position = 50;
width = 106;
},
{
position = 334;
width = 111;
},
{
position = 375;
width = 108;
}
);
};
};
width = 533;
}
);
},
{
glyphname = "ge-cy.loclBGR";
lastChange = "2023-04-20 11:32:41 +0000";
layers = (
{
layerId = master01;
shapes = (
{
closed = 1;
nodes = (
(478,148,l),
(476.5,71.5,o),
(418,28,qs),
(359.5,-14,o),
(262,-14,qs),
(164,-14,o),
(106,32,qs),
(49,76,o),
(49,136,qs),
(49,184,o),
(80,212,qs),
(109,241,o),
(167,261,qs),
(282,304,l),
(341,321,o),
(341,356,qs),
(341,375.5,o),
(320,392,qs),
(298,407,o),
(259,407,qs),
(221,407,o),
(199,393,qs),
(178,379,o),
(176,355,q),
(65,355,l),
(67,417,o),
(118,458,qs),
(168,499,o),
(262,499,qs),
(354,499,o),
(410,462,qs),
(466,424,o),
(466,362,qs),
(466,268,o),
(348,228,qs),
(242,190,ls),
(209,179,o),
(195,168,qs),
(180,156,o),
(180,134,qs),
(180,111,o),
(204,96,qs),
(228,79,o),
(267,79,qs),
(366,79,o),
(368,148,q)
);
}
);
userData = {
com.fontlab.hintData = {
hhints = (
{
position = -14;
width = 93;
},
{
position = 407;
width = 92;
}
);
vhints = (
{
position = 49;
width = 131;
},
{
position = 341;
width = 125;
},
{
position = 368;
width = 110;
}
);
};
};
width = 527;
}
);
},
{
glyphname = "de-cy.loclBGR";
lastChange = "2023-04-20 11:32:41 +0000";
layers = (
{
layerId = master01;
shapes = (
{
closed = 1;
nodes = (
(166,172,o),
(206,130,qs),
(241,93,o),
(291,93,qs),
(332,93,o),
(363,118,qs),
(398,148,o),
(398,191,qs),
(398,278,ls),
(398,333,o),
(334,393,o),
(235,393,o),
(166,313,o),
(166,243,qs)
);
},
{
closed = 1;
nodes = (
(46,358,o),
(114,431,qs),
(176,499,o),
(268,499,qs),
(313,499,o),
(390,456,o),
(414,411,q),
(440,486,l),
(517,486,l),
(517,2,ls),
(517,-100,o),
(453.5,-150,qs),
(390.022,-198,o),
(298.5,-198,qs),
(210.413,-198,o),
(151,-158,qs),
(87,-118,o),
(87,-56,q),
(197,-56,l),
(197,-80,o),
(220,-93.061,qs),
(245,-107,o),
(298,-107,qs),
(350,-107,o),
(398,-44,o),
(398,2,qs),
(398,63,l),
(362,-14,o),
(274,-14,qs),
(180,-14,o),
(116,54,qs),
(48,126,o),
(47,243,qs)
);
}
);
userData = {
com.fontlab.hintData = {
hhints = (
{
position = -200;
width = 59;
},
{
position = -11;
width = 70;
},
{
position = 420;
width = 70;
},
{
position = 458;
width = 20;
}
);
vhints = (
{
position = 40;
width = 81;
},
{
position = 87;
width = 87;
},
{
position = 394;
width = 78;
},
{
position = 418;
width = 54;
}
);
};
};
width = 567;
}
);
},
{
glyphname = "zhe-cy.loclBGR";
lastChange = "2023-04-20 11:32:41 +0000";
layers = (
{
layerId = master01;
shapes = (
{
closed = 1;
nodes = (
(154,0,l),
(10,0,l),
(237,306,l),
(22,486,l),
(182,486,l),
(374,315,l),
(374,686,l),
(492,686,l),
(492,315,l),
(684,486,l),
(844,486,l),
(629,306,l),
(856,0,l),
(712,0,l),
(546,237,l),
(492,192,l),
(492,0,l),
(374,0,l),
(374,192,l),
(320,237,l)
);
}
);
userData = {
com.fontlab.hintData = {
hhints = (
{
position = 0;
width = 21;
},
{
position = 466;
width = 20;
},
{
position = 666;
width = 20;
}
);
vhints = (
{
position = 374;
width = 118;
}
);
};
};
width = 866;
}
);
},
{
glyphname = "ze-cy.loclBGR";
lastChange = "2023-04-20 11:32:41 +0000";
layers = (
{
layerId = master01;
shapes = (
{
closed = 1;
nodes = (
(47,404,o),
(107,456,qs),
(157,499,o),
(263,499,qs),
(357,499,o),
(409,466,qs),
(473,424,o),
(473,348,qs),
(473,307,o),
(449,263.5,qs),
(436,240,o),
(387,216,q),
(449,198,o),
(483,143,qs),
(516,89,o),
(516,24,qs),
(516,-87,o),
(402,-200,o),
(274,-200,qs),
(210,-200,o),
(185,-192.988,qs),
(138,-180,o),
(122,-168,qs),
(86,-141,o),
(73.301,-120,qs),
(51,-86,o),
(51,-55,q),
(161,-55,l),
(161,-81.649,o),
(190,-96.064,qs),
(212,-107,o),
(340,-107,o),
(375,-65,qs),
(403,-32,o),
(404,29,qs),
(404,77,o),
(355,116,qs),
(321,142,o),
(231,143,qs),
(185,143,l),
(185,237,l),
(230,237,ls),
(317,237,o),
(343,272,qs),
(360,295,o),
(360,365,o),
(337,384,qs),
(310,406,o),
(258,407,qs),
(194,407,o),
(171,385,qs),
(141,357,o),
(141,334,qs),
(47,334,ls)
);
}
);
userData = {
com.fontlab.hintData = {
hhints = (
{
position = -201;
width = 100;
},
{
position = 144;
width = 104;
},
{
position = 409;
width = 88;
}
);
vhints = (
{
position = 305;
width = 108;
},
{
position = 339;
width = 112;
}
);
};
};
width = 548;
}
);
},
{
glyphname = "el-cy.loclBGR";
lastChange = "2023-04-20 11:32:41 +0000";
layers = (
{
layerId = master01;
shapes = (
{
closed = 1;
nodes = (
(371,0,l),
(260,369,l),
(148,0,l),
(12,0,l),
(193,486,l),
(326,486,l),
(507,0,l)
);
}
);
width = 517;
}
);
},
{
glyphname = "ef-cy.loclBGR";
lastChange = "2023-04-20 11:32:41 +0000";
layers = (
{
layerId = master01;
shapes = (
{
closed = 1;
nodes = (
(642.4,305.909,o),
(586.461,385.5,o),
(529.2,385.5,qs),
(484.083,385.5,o),
(454,356,q),
(454,119,l),
(480.609,93.5,o),
(526,93.5,qs),
(583.603,93.5,o),
(642.4,173.648,o),
(642.4,239.5,qs)
);
},
{
closed = 1;
nodes = (
(152,490,o),
(258,490,qs),
(295.752,490,o),
(326,472.672,q),
(326,681,l),
(454,681,l),
(454,472.672,l),
(484.693,490,o),
(523,490,qs),
(629,490,o),
(746,353,o),
(746,125,o),
(628,-11,o),
(523,-11,qs),
(484.693,-11,o),
(454,6.328,q),
(454,-200,l),
(326,-200,l),
(326,6.328,l),
(295.752,-11,o),
(258,-11,qs),
(153,-11,o),
(35,125,o),
(35,353,o)
);
},
{
closed = 1;
nodes = (
(138.6,173.624,o),
(197.382,93.5,o),
(255,93.5,qs),
(299.391,93.5,o),
(326,119,q),
(326,358,l),
(297.956,385.5,o),
(251.8,385.5,qs),
(194.553,385.5,o),
(138.6,305.885,o),
(138.6,239.5,qs)
);
}
);
userData = {
com.fontlab.hintData = {
hhints = (
{
position = -11;
width = 104;
},
{
position = 386;
width = 104;
}
);
vhints = (
{
position = 35;
width = 104;
},
{
position = 326;
width = 128;
},
{
position = 642;
width = 104;
}
);
};
};
width = 781;
}
);
},
{
color = 3;
glyphname = "tse-cy.loclBGR";
lastChange = "2023-04-20 11:32:42 +0000";
layers = (
{
layerId = master01;
shapes = (
{
closed = 1;
nodes = (
(50,478,l),
(129,478,l),
(129,180,ls),
(129,59,o),
(241,59,qs),
(306,59,o),
(387,159,o),
(389,237,qs),
(389,478,l),
(468,478,l),
(468,107,ls),
(468,89,o),
(489,67,o),
(505,67,q),
(505,-82,l),
(433,-82,l),
(433,-1,l),
(420,-1,o),
(389,54,o),
(389,94,q),
(340,-10,o),
(230,-10,qs),
(149,-10,o),
(50,80,o),
(50,174,qs)
);
}
);
userData = {
com.fontlab.hintData = {
hhints = (
{
position = -10;
width = 69;
},
{
position = 458;
width = 20;
}
);
vhints = (
{
position = 50;
width = 79;
},
{
position = 389;
width = 79;
},
{
position = 433;
width = 72;
}
);
};
};
width = 525;
}
);
},
{
glyphname = "sha-cy.loclBGR";
lastChange = "2023-04-20 11:32:42 +0000";
layers = (
{
layerId = master01;
shapes = (
{
closed = 1;
nodes = (
(392,-14,o),
(274,-14,qs),
(188,-14,o),
(139,46,qs),
(93,102,o),
(93,202,qs),
(93,487,l),
(212,487,l),
(212,202,ls),
(212,148,o),
(238,120.5,qs),
(264,93,o),
(311,93,qs),
(358,93,o),
(388,134,qs),
(420,178,o),
(420,258,qs),
(420,487,l),
(538,487,l),
(538,202,ls),
(538,148,o),
(564,120.5,qs),
(590,93,o),
(637,93,qs),
(684,93,o),
(717.5,135,qs),
(753,179.508,o),
(753,261,qs),
(753,487,l),
(871,487,l),
(871,0,l),
(768,0,l),
(755,84,l),
(707,-14,o),
(601,-14,qs),
(539.48,-14,o),
(499.5,14,qs),
(459,42.364,o),
(439,92,q)
);
}
);
userData = {
com.fontlab.hintData = {
hhints = (
{
position = -14;
width = 107;
},
{
position = 0;
width = 21;
},
{
position = 467;
width = 20;
}
);
vhints = (
{
position = 93;
width = 119;
},
{
position = 420;
width = 118;
},
{
position = 753;
width = 118;
},
{
position = 768;
width = 103;
}
);
};
};
width = 949;
}
);
},
{
glyphname = "shcha-cy.loclBGR";
lastChange = "2023-04-20 11:32:42 +0000";
layers = (
{
layerId = master01;
shapes = (
{
closed = 1;
nodes = (
(50,478,l),
(128,478,l),
(128,197,ls),
(128,128,o),
(193,58,o),
(315,58,o),
(382,158,o),
(382,246,qs),
(382,478,l),
(460,478,l),
(460,197,ls),
(460,128,o),
(525,58,o),
(645,58,o),
(719,156,o),
(721,243,qs),
(721,478,l),
(800,478,l),
(800,107,ls),
(800,89,o),
(821,67,o),
(837,67,q),
(837,-82,l),
(765,-82,l),
(765,-1,l),
(752,-1,o),
(723,52,o),
(723,92,q),
(676,-12,o),
(562,-12,qs),
(500,-12,o),
(416,49,o),
(397,103,q),
(352,-12,o),
(230,-12,qs),
(144,-12,o),
(50,100,o),
(50,197,qs)
);
}
);
userData = {
com.fontlab.hintData = {
hhints = (
{
position = -12;
width = 70;
},
{
position = 458;
width = 20;
}
);
vhints = (
{
position = 50;
width = 78;
},
{
position = 382;
width = 78;
},
{
position = 721;
width = 79;
},
{
position = 765;
width = 72;
}
);
};
};
width = 857;
}
);
},
{
color = 3;
glyphname = "softsign-cy.loclBGR";
lastChange = "2023-04-20 11:32:42 +0000";
layers = (
{
layerId = master01;
shapes = (
{
closed = 1;
nodes = (
(51,479,l),
(131,479,l),
(131,319.687,l),
(154.284,350.98,o),
(230.259,390,o),
(273,390,qs),
(375,390,o),
(496,269,o),
(496,109,o),
(375,-11,o),
(171,-11,o),
(51,109,o),
(51,189,qs)
);
},
{
closed = 1;
nodes = (
(131,135,o),
(201,57,o),
(270.5,57,qs),
(341,57,o),
(416,136,o),
(416,243,o),
(344,322,o),
(205,322,o),
(131,243,o),
(131,189.5,qs)
);
}
);
userData = {
com.fontlab.hintData = {
hhints = (
{
position = -11;
width = 68;
},
{
position = 322;
width = 68;
},
{
position = 459;
width = 20;
}
);
vhints = (
{
position = 51;
width = 80;
},
{
position = 416;
width = 80;
}
);
};
};
width = 536;
}
);
},
{
color = 3;
glyphname = "yeru-cy.loclBGR";
lastChange = "2023-04-20 11:32:42 +0000";
layers = (
{
layerId = master01;
shapes = (
{
closed = 1;
nodes = (
(51,479,l),
(131,479,l),
(131,319.687,l),
(187.655,375,o),
(273,390,qs),
(456.066,339.322,o),
(496,189,qs),
(455.845,39.557,o),
(273,-11,qs),
(90.672,39.581,o),
(51,189,qs)
);
},
{
closed = 1;
nodes = (
(150.841,91.076,o),
(270.5,57,qs),
(393.189,91.013,o),
(416,189.5,qs),
(395.173,287.953,o),
(274.5,322,qs),
(152.824,287.959,o),
(131,189.5,qs)
);
},
{
closed = 1;
nodes = (
(566,479,l),
(645,479,l),
(645,0,l),
(566,0,l)
);
}
);
userData = {
com.fontlab.hintData = {
hhints = (
{
position = 0;
width = 21;
},
{
position = 0;
width = 57;
},
{
position = 262;
width = 68;
},
{
position = 459;
width = 20;
}
);
vhints = (
{
position = 50;
width = 79;
},
{
position = 344;
width = 80;
},
{
position = 476;
width = 79;
}
);
};
};
width = 682;
}
);
},
{
color = 3;
glyphname = "hardsign-cy.loclBGR";
lastChange = "2023-04-20 11:32:42 +0000";
layers = (
{
layerId = master01;
shapes = (
{
closed = 1;
nodes = (
(20,479,l),
(245,479,l),
(244.005,319.687,l),
(267.215,350.881,o),
(344.159,390,o),
(387,390,qs),
(489,390,o),
(610,269,o),
(610,109,o),
(489,-11,o),
(285,-11,o),
(164,110,o),
(164,189,qs),
(165.538,412,l),
(20,412,l)
);
},
{
closed = 1;
nodes = (
(245,135,o),
(315,57,o),
(384.5,57,qs),
(455,57,o),
(530,136,o),
(530,243,o),
(458,322,o),
(319,322,o),
(245,243,o),
(245,189.5,qs)
);
}
);
userData = {
com.fontlab.hintData = {
hhints = (
{
position = -11;
width = 68;
},
{
position = 322;
width = 68;
},
{
position = 412;
width = 67;
}
);
vhints = (
{
position = 164;
width = 81;
},
{
position = 530;
width = 80;
}
);
};
};
width = 650;
}
);
},
{
color = 3;
glyphname = "yu-cy.loclBGR";
lastChange = "2023-04-20 11:32:42 +0000";
layers = (
{
layerId = master01;
shapes = (
{
closed = 1;
nodes = (
(50,681,l),
(129,681,l),
(129,295,l),
(183.701,295,l),
(195.087,375.947,o),
(241.5,425,qs),
(303,490,o),
(503,490,o),
(626,360,o),
(626,239,qs),
(626,119,o),
(503,-11,o),
(303,-11,o),
(241.5,54,qs),
(183.111,115.711,o),
(180.157,227,q),
(129,227,l),
(129,0,l),
(50,0,l)
);
},
{
closed = 1;
nodes = (
(331,57,o),
(470,57,o),
(546,154,o),
(546,325,o),
(474,422,o),
(335,422,o),
(261,325,o),
(261,154,o)
);
}
);
userData = {
com.fontlab.hintData = {
hhints = (
{
position = -11;
width = 68;
},
{
position = 0;
width = 21;
},
{
position = 227;
width = 68;
},
{
position = 422;
width = 68;
},
{
position = 661;
width = 20;
}
);
vhints = (
{
position = 50;
width = 79;
},
{
position = 180;
width = 81;
},
{
position = 546;
width = 80;
}
);
};
};
width = 666;
}
);
},
{
glyphname = zero;
layers = (
{
layerId = master01;
shapes = (
{
closed = 1;
nodes = (
(122,579,qs),
(193.143,662,o),
(316.5,662,qs),
(376,662,o),
(475,621,o),
(510.5,579,qs),
(586,489.676,o),
(586,158.324,o),
(510.5,69,qs),
(440.345,-14,o),
(317,-14,qs),
(193.143,-14,o),
(122,69,qs),
(47,156.5,o),
(47,491.5,o)
);
},
{
closed = 1;
nodes = (
(246,95,o),
(387,95,o),
(464,212,o),
(464,436,o),
(387,555,o),
(246,555,o),
(169,436,o),
(169,212,o)
);
}
);
width = 633;
}
);
unicode = 48;
},
{
glyphname = one;
layers = (
{
layerId = master01;
shapes = (
{
closed = 1;
nodes = (
(42,600,l),
(116.9,611.015,o),
(174,653,q),
(263,653,l),
(263,0,l),
(145,0,l),
(145,512,l),
(94,487,o),
(42,487,q)
);
}
);
width = 357;
}
);
unicode = 49;
},
{
glyphname = two;
layers = (
{
layerId = master01;
shapes = (
{
closed = 1;
nodes = (
(60,111,ls),
(60,227.643,o),
(143,281,qs),
(171,299,o),
(208,313,qs),
(341,364,ls),
(385,381,o),
(426,432,o),
(426,508,o),
(372,559,o),
(272,559,o),
(207,511,o),
(202,464,q),
(71,464,l),
(72.903,559.138,o),
(144,613,qs),
(208.68,662,o),
(319,662,qs),
(420.077,662,o),
(485.5,608,qs),
(553,552.286,o),
(553,390,o),
(472,293,o),
(387,260,qs),
(252,208,ls),
(213,193,o),
(178,156,o),
(178,127,qs),
(178,108,l),
(549,108,l),
(549,0,l),
(60,0,l)
);
}
);
width = 605;
}
);
unicode = 50;
},
{
glyphname = three;
layers = (
{
layerId = master01;
shapes = (
{
closed = 1;
nodes = (
(170,204,l),
(173,153,o),
(250,95,o),
(374,95,o),
(443,150,o),
(443,235,o),
(380,283,o),
(312,283,qs),
(226,283,l),
(226,376,l),
(300,376,ls),
(357,376,o),
(421,425,o),
(421,505,o),
(366,555,o),
(309,555,qs),
(200.043,555,o),
(182,472,q),
(58,472,l),
(67.626,568.258,o),
(136.5,617,qs),
(200.087,662,o),
(304,662,qs),
(410.792,662,o),
(478.5,612,qs),
(548,560.677,o),
(548,481,qs),
(548,431,o),
(494,358,o),
(441,340,q),
(500,320,o),
(571,241,o),
(571,139,o),
(534,67,o),
(500,41,qs),
(428.077,-14,o),
(313,-14,qs),
(203.182,-14,o),
(127.5,41.5,qs),
(44,102.733,o),
(44,204,q)
);
}
);
width = 622;
}
);
unicode = 51;
},
{
glyphname = four;
layers = (
{
layerId = master01;
shapes = (
{
closed = 1;
nodes = (
(22,233,l),
(354,656,l),
(468,656,l),
(468,245,l),
(581,245,l),
(581,144,l),
(468,144,l),
(468,0,l),
(351,0,l),
(351,144,l),
(22,144,l)
);
},
{
closed = 1;
nodes = (
(357,233,l),
(357,481,l),
(162,233,l)
);
}
);
width = 595;
}
);
unicode = 52;
},
{
glyphname = five;
layers = (
{
layerId = master01;
shapes = (
{
closed = 1;
nodes = (
(178,194,l),
(178,143,o),
(246,95,o),
(352,95,o),
(421,164,o),
(421,216,qs),
(421,315,o),
(287,315,qs),
(89,315,l),
(119,649,l),
(508,649,l),
(508,541,l),
(233,541,l),
(219,395,l),
(273,404,o),
(322,404,qs),
(423,404,o),
(543,307,o),
(543,216,qs),
(543,117.385,o),
(475.5,53,qs),
(405.258,-14,o),
(297,-14,qs),
(190.283,-14,o),
(125.5,40.5,qs),
(58.95,96.486,o),
(57,194,q)
);
}
);
width = 582;
}
);
unicode = 53;
},
{
glyphname = six;
layers = (
{
layerId = master01;
shapes = (
{
closed = 1;
nodes = (
(47,478.892,o),
(124,571.5,qs),
(199.247,662,o),
(328,662,qs),
(425.68,662,o),
(486,610,qs),
(546.98,557.431,o),
(551,471,q),
(425,471,l),
(420,510,o),
(374,555,o),
(293,555,o),
(232,520,o),
(210.5,487,qs),
(166,418.698,o),
(166,303,qs),
(166,260.5,o),
(169,238,q),
(180.174,323.669,o),
(234,363.5,qs),
(280.622,398,o),
(351,398,qs),
(441.426,398,o),
(500.5,340,qs),
(558,283.545,o),
(558,192,qs),
(558,99.613,o),
(493,43,qs),
(427.556,-14,o),
(323,-14,qs),
(201.115,-14,o),
(123.5,78.5,qs),
(47,169.671,o),
(47,313,qs)
);
},
{
closed = 1;
nodes = (
(275,95,o),
(370,95,o),
(436,150,o),
(436,197,qs),
(436,244.323,o),
(402.5,273.5,qs),
(370.926,301,o),
(275,301,o),
(210,244,o),
(210,150,o)
);
}
);
width = 607;
}
);
unicode = 54;
},
{
glyphname = seven;
layers = (
{
layerId = master01;
shapes = (
{
closed = 1;
nodes = (
(24,649,l),
(480,649,l),
(480,536,l),
(203,0,l),
(44,0,l),
(341,535,l),
(24,535,l)
);
}
);
width = 498;
}
);
unicode = 55;
},
{
glyphname = eight;
layers = (
{
layerId = master01;
shapes = (
{
closed = 1;
nodes = (
(49,236,o),
(134,311,o),
(200,319,q),
(112.575,360.812,o),
(82.5,427.5,qs),
(71,453,o),
(71,485,qs),
(71,567,o),
(202,662,o),
(429.143,662,o),
(575,556.897,o),
(575,476,qs),
(575,427,o),
(508,350,o),
(445,339,q),
(527.851,305.859,o),
(559.5,272.5,qs),
(598,231.919,o),
(598,172,qs),
(598,88.9,o),
(526,38.5,qs),
(451,-14,o),
(323,-14,qs),
(200.18,-14,o),
(123.5,40,qs),
(49,92.465,o),
(49,175,qs)
);
},
{
closed = 1;
nodes = (
(195,131,o),
(215.5,119,qs),
(256.5,95,o),
(401,95,o),
(476,134,o),
(476,191,o),
(439,226,o),
(407,239,qs),
(303,278,l),
(211.891,271.717,o),
(180.5,220.5,qs),
(171,205,o),
(171,165,o)
);
},
{
closed = 1;
nodes = (
(259,411,q),
(334,382,l),
(381.5,382,o),
(417.5,406,qs),
(453,429.667,o),
(453,508,o),
(381,555,o),
(323,555,qs),
(267.25,555,o),
(230.5,534,qs),
(193,512.571,o),
(193,437.812,o)
);
}
);
width = 647;
}
);
unicode = 56;
},
{
glyphname = nine;
layers = (
{
layerId = master01;
shapes = (
{
closed = 1;
nodes = (
(53,548.387,o),
(118,605,qs),
(183.444,662,o),
(287,662,qs),
(405.012,662,o),
(483.5,572,qs),
(564,479.693,o),
(564,335,qs),
(564,84,o),
(414,10.5,qs),
(364,-14,o),
(247,-14,o),
(160,16,o),
(128,43,qs),
(60,100.375,o),
(60,192,q),
(183,192,l),
(185,147,o),
(246,95,o),
(293,95,qs),
(445,95,o),
(445,345,qs),
(445,372,o),
(441,404,q),
(427.75,326.39,o),
(376,286.5,qs),
(329.946,251,o),
(259,251,qs),
(168,251,o),
(53,366,o),
(53,456,qs)
);
},
{
closed = 1;
nodes = (
(240,348,o),
(288,348,qs),
(334.778,348,o),
(367.5,376.5,qs),
(401,405.677,o),
(401,451,qs),
(401,497.323,o),
(367.5,526.5,qs),
(335.926,554,o),
(240,554,o),
(175,499,o),
(175,402,o)
);
}
);
width = 610;
}
);
unicode = 57;
},
{
glyphname = zero.propold;
layers = (
{
layerId = master01;
shapes = (
{
closed = 1;
nodes = (
(47,426.143,o),
(114.5,506.5,qs),
(178.76,583,o),
(391.24,583,o),
(455.5,506.5,qs),
(522,427.333,o),
(522,285,qs),
(522,143.222,o),
(455.5,63,qs),
(391.671,-14,o),
(178.329,-14,o),
(114.5,63,qs),
(47,144.429,o),
(47,285,qs)
);
},
{
closed = 1;
nodes = (
(405,93,o),
(405,477,o),
(285,477,qs),
(166,477,o),
(166,93,o)
);
}
);
width = 570;
}
);
},
{
glyphname = one.propold;
layers = (
{
layerId = master01;
shapes = (
{
closed = 1;
nodes = (
(42,518,l),
(116.091,526.717,o),
(174,571,q),
(263,571,l),
(263,0,l),
(145,0,l),
(145,430,l),
(97.25,406.125,o),
(42,404,q)
);
}
);
width = 357;
}
);
},
{
glyphname = two.propold;
layers = (
{
layerId = master01;
shapes = (
{
closed = 1;
nodes = (
(60,98,ls),
(60,181.077,o),
(98.5,225.5,qs),
(135.149,267.787,o),
(216,288,qs),
(311,311,ls),
(366,325,o),
(411,370,o),
(411,436,o),
(359,480,o),
(313,480,qs),
(211.524,480,o),
(202,400,q),
(71,400,l),
(72.947,489.558,o),
(139,537.5,qs),
(201.689,583,o),
(307,583,qs),
(405.167,583,o),
(468,531,qs),
(529,480.517,o),
(529,333,o),
(450,252,o),
(362,230,qs),
(257,204,ls),
(215,193,o),
(178,158,o),
(178,132,qs),
(178,108,l),
(533,108,l),
(533,0,l),
(60,0,l)
);
}
);
width = 595;
}
);
},
{
glyphname = three.propold;
layers = (
{
layerId = master01;
shapes = (
{
closed = 1;
nodes = (
(140,95,l),
(144,35,o),
(218,-19,o),
(331,-19,o),
(404,45,o),
(404,142,o),
(332,207,o),
(266,207,qs),
(199,207,l),
(199,300,l),
(260,300,ls),
(317,300,o),
(383,349,o),
(383,433,o),
(325,484,o),
(228,484,o),
(165,439,o),
(159,398,q),
(33,398,l),
(50.233,541.61,o),
(180.5,573,qs),
(222,583,o),
(325,583,o),
(410,556,o),
(439.5,532.5,qs),
(501,483.508,o),
(501,407,qs),
(501,307.176,o),
(396,266,q),
(457,243,o),
(523,147,o),
(523,40,o),
(487,-34,o),
(454,-61,qs),
(383.111,-119,o),
(273,-119,qs),
(167,-119,o),
(97,-67,qs),
(20,-9.8,o),
(20,95,q)
);
}
);
width = 588;
}
);
},
{
glyphname = four.propold;
layers = (
{
layerId = master01;
shapes = (
{
closed = 1;
nodes = (
(18,138,l),
(350,574,l),
(466,574,l),
(466,151,l),
(578,151,l),
(578,49,l),
(466,49,l),
(466,-108,l),
(347,-108,l),
(347,49,l),
(18,49,l)
);
},
{
closed = 1;
nodes = (
(353,138,l),
(353,401,l),
(148,138,l)
);
}
);
width = 596;
}
);
},
{
glyphname = five.propold;
layers = (
{
layerId = master01;
shapes = (
{
closed = 1;
nodes = (
(174,92,l),
(174,41,o),
(236,-11,o),
(287,-11,qs),
(343.364,-11,o),
(381,23.5,qs),
(419,58.333,o),
(419,171,o),
(348,233,o),
(275,233,qs),
(91,233,l),
(122,581,l),
(503,581,l),
(503,473,l),
(230,473,l),
(215,317,l),
(260,329,o),
(361,329,o),
(445,298,o),
(475,270,qs),
(537,212.133,o),
(537,115,qs),
(537,14.09,o),
(464.5,-53,qs),
(393.177,-119,o),
(284,-119,qs),
(188.5,-119,o),
(125.5,-65,qs),
(57,-6.286,o),
(57,92,q)
);
}
);
width = 589;
}
);
},
{
glyphname = six.propold;
layers = (
{
layerId = master01;
shapes = (
{
closed = 1;
nodes = (
(47,478.892,o),
(124,571.5,qs),
(199.247,662,o),
(328,662,qs),
(425.68,662,o),
(486,610,qs),
(546.98,557.431,o),
(551,471,q),
(425,471,l),
(420,510,o),
(374,555,o),
(293,555,o),
(232,520,o),
(210.5,487,qs),
(166,418.698,o),
(166,303,qs),
(166,260.5,o),
(169,238,q),
(180.174,323.669,o),
(234,363.5,qs),
(280.622,398,o),
(351,398,qs),
(441.426,398,o),
(500.5,340,qs),
(558,283.545,o),
(558,192,qs),
(558,99.613,o),
(493,43,qs),
(427.556,-14,o),
(323,-14,qs),
(201.115,-14,o),
(123.5,78.5,qs),
(47,169.671,o),
(47,313,qs)
);
},
{
closed = 1;
nodes = (
(275,95,o),
(370,95,o),
(436,150,o),
(436,197,qs),
(436,244.323,o),
(402.5,273.5,qs),
(370.926,301,o),
(275,301,o),
(210,244,o),
(210,150,o)
);
}
);
width = 607;
}
);
},
{
glyphname = seven.propold;
layers = (
{
layerId = master01;
shapes = (
{
closed = 1;
nodes = (
(24,583,l),
(480,583,l),
(480,481,l),
(180,-104,l),
(36,-104,l),
(359,480,l),
(24,480,l)
);
}
);
width = 498;
}
);
},
{
glyphname = eight.propold;
layers = (
{
layerId = master01;
shapes = (
{
closed = 1;
nodes = (
(49,236,o),
(134,311,o),
(200,319,q),
(112.575,360.812,o),
(82.5,427.5,qs),
(71,453,o),
(71,485,qs),
(71,567,o),
(202,662,o),
(429.143,662,o),
(575,556.897,o),
(575,476,qs),
(575,427,o),
(508,350,o),
(445,339,q),
(527.851,305.859,o),
(559.5,272.5,qs),
(598,231.919,o),
(598,172,qs),
(598,88.9,o),
(526,38.5,qs),
(451,-14,o),
(323,-14,qs),
(200.18,-14,o),
(123.5,40,qs),
(49,92.465,o),
(49,175,qs)
);
},
{
closed = 1;
nodes = (
(195,131,o),
(215.5,119,qs),
(256.5,95,o),
(401,95,o),
(476,134,o),
(476,191,o),
(439,226,o),
(407,239,qs),
(303,278,l),
(211.891,271.717,o),
(180.5,220.5,qs),
(171,205,o),
(171,165,o)
);
},
{
closed = 1;
nodes = (
(259,411,q),
(334,382,l),
(381.5,382,o),
(417.5,406,qs),
(453,429.667,o),
(453,508,o),
(381,555,o),
(323,555,qs),
(267.25,555,o),
(230.5,534,qs),
(193,512.571,o),
(193,437.812,o)
);
}
);
width = 647;
}
);
},
{
glyphname = nine.propold;
layers = (
{
layerId = master01;
shapes = (
{
closed = 1;
nodes = (
(53,464.29,o),
(118,523,qs),
(184.429,583,o),
(295.5,583,qs),
(356,583,o),
(459,524,o),
(493.5,475.5,qs),
(563,377.797,o),
(563,237,qs),
(563,71.535,o),
(488.5,-25,qs),
(415.957,-119,o),
(292,-119,qs),
(193.444,-119,o),
(128,-62,qs),
(62,-4.516,o),
(62,86,q),
(186,86,l),
(189,40,o),
(242,-11,o),
(292,-11,qs),
(371,-11,o),
(445,128,o),
(445,246,qs),
(445,283,o),
(441,317,q),
(431,242,o),
(336,163,o),
(270,163,qs),
(177.691,163,o),
(116,221.5,qs),
(53,281.241,o),
(53,371,qs)
);
},
{
closed = 1;
nodes = (
(235,260,o),
(341,260,o),
(401,324,o),
(401,418,o),
(340,480,o),
(234,480,o),
(175,418,o),
(175,322,o)
);
}
);
width = 609;
}
);
},
{
glyphname = period;
layers = (
{
layerId = master01;
shapes = (
{
closed = 1;
nodes = (
(70,149,o),
(142,149,o),
(190,103,o),
(190,35,o),
(142,-9,o),
(70,-9,o),
(24,35,o),
(24,103,o)
);
}
);
width = 215;
}
);
unicode = 46;
},
{
glyphname = comma;
layers = (
{
layerId = master01;
shapes = (
{
closed = 1;
nodes = (
(57,-75,o),
(108,-33,o),
(116,-5,q),
(88,0,o),
(49,35,o),
(49,94,o),
(95,136,o),
(175,136,o),
(225,74,o),
(225,29,qs),
(225,-44.286,o),
(159,-104,qs),
(138,-123,o),
(112,-136,q),
(24,-92,l)
);
}
);
width = 253;
}
);
unicode = 44;
},
{
glyphname = colon;
layers = (
{
layerId = master01;
shapes = (
{
closed = 1;
nodes = (
(97,166,o),
(169,166,o),
(217,120,o),
(217,52,o),
(169,8,o),
(97,8,o),
(51,52,o),
(51,120,o)
);
},
{
closed = 1;
nodes = (
(97,463,o),
(169,463,o),
(217,417,o),
(217,349,o),
(169,305,o),
(97,305,o),
(51,349,o),
(51,417,o)
);
}
);
width = 270;
}
);
unicode = 58;
},
{
glyphname = semicolon;
layers = (
{
layerId = master01;
shapes = (
{
closed = 1;
nodes = (
(87,-75,o),
(138,-33,o),
(146,-5,q),
(118,0,o),
(79,35,o),
(79,94,o),
(125,136,o),
(205,136,o),
(255,74,o),
(255,29,qs),
(255,-44.286,o),
(189,-104,qs),
(168,-123,o),
(142,-136,q),
(54,-92,l)
);
},
{
closed = 1;
nodes = (
(131,463,o),
(203,463,o),
(251,417,o),
(251,349,o),
(203,305,o),
(131,305,o),
(85,349,o),
(85,417,o)
);
}
);
width = 308;
}
);
unicode = 59;
},
{
glyphname = exclam;
layers = (
{
layerId = master01;
shapes = (
{
closed = 1;
nodes = (
(114,149,o),
(186,149,o),
(234,103,o),
(234,35,o),
(186,-9,o),
(114,-9,o),
(68,35,o),
(68,103,o)
);
},
{
closed = 1;
nodes = (
(214,664,l),
(200,219,l),
(99,219,l),
(86,664,l)
);
}
);
width = 293;
}
);
unicode = 33;
},
{
glyphname = question;
layers = (
{
layerId = master01;
shapes = (
{
closed = 1;
nodes = (
(29,557,o),
(147,662,o),
(360.286,662,o),
(485,558.424,o),
(485,481,qs),
(485,428,o),
(433,357,o),
(377,329,qs),
(329.571,305.286,o),
(301,271,o),
(293,242,o),
(293,223,qs),
(293,194,l),
(175,194,l),
(175,234,ls),
(175,324.132,o),
(229,362.5,qs),
(248,376,o),
(322,414,o),
(355,453,o),
(355,514,o),
(305,555,o),
(207,555,o),
(151,508,o),
(147,470,q),
(24,470,l)
);
},
{
closed = 1;
nodes = (
(200,143,o),
(273,143,o),
(321,99,o),
(321,31,o),
(273,-14,o),
(200,-14,o),
(155,31,o),
(155,99,o)
);
}
);
width = 517;
}
);
unicode = 63;
},
{
glyphname = periodcentered;
layers = (
{
layerId = master01;
shapes = (
{
closed = 1;
nodes = (
(84.32,446.2,o),
(173.6,446.2,o),
(233.12,389.16,o),
(233.12,304.84,o),
(173.6,250.28,o),
(84.32,250.28,o),
(27.28,304.84,o),
(27.28,389.16,o)
);
}
);
width = 264;
}
);
unicode = 183;
},
{
glyphname = asterisk;
layers = (
{
layerId = master01;
shapes = (
{
closed = 1;
nodes = (
(80,635,l),
(179,585,l),
(167,704,l),
(247,704,l),
(235,585,l),
(334,637,l),
(364,566,l),
(255,529,l),
(341,447,l),
(282,396,l),
(208,497,l),
(132,396,l),
(75,447,l),
(161,528,l),
(50,565,l)
);
}
);
width = 409;
}
);
unicode = 42;
},
{
glyphname = interrobang;
lastChange = "2023-04-20 11:32:42 +0000";
layers = (
{
layerId = master01;
shapes = (
{
closed = 1;
nodes = (
(29,556.997,o),
(147,662,o),
(360.286,662,o),
(485,558.424,o),
(485,481,qs),
(485,428,o),
(433,357,o),
(377,329,qs),
(329.571,305.286,o),
(301,271,o),
(293,242,o),
(293,223,qs),
(293,194,l),
(290.001,194,l),
(175,194,l),
(164.999,469.994,l),
(300.999,469.994,l),
(298.299,402.226,l),
(325.13,417.699,o),
(338.5,433.5,qs),
(355,453,o),
(355,514,o),
(305,555,o),
(207,555,o),
(151,507.997,o),
(147,469.994,q),
(24,469.994,l)
);
},
{
closed = 1;
nodes = (
(200,143,o),
(273,143,o),
(321,99,o),
(321,31,o),
(273,-14,o),
(200,-14,o),
(155,31,o),
(155,99,o)
);
}
);
width = 517;
}
);
unicode = 8253;
},
{
glyphname = numbersign;
layers = (
{
layerId = master01;
shapes = (
{
closed = 1;
nodes = (
(64,241,l),
(157,241,l),
(174,399,l),
(81,399,l),
(89,477,l),
(182,477,l),
(196,606,l),
(307,606,l),
(293,477,l),
(429,477,l),
(443,606,l),
(554,606,l),
(540,477,l),
(634,477,l),
(625,399,l),
(532,399,l),
(515,241,l),
(609,241,l),
(601,164,l),
(507,164,l),
(493,33,l),
(382,33,l),
(396,164,l),
(260,164,l),
(246,33,l),
(135,33,l),
(149,164,l),
(57,164,l)
);
},
{
closed = 1;
nodes = (
(404,241,l),
(421,399,l),
(285,399,l),
(268,241,l)
);
}
);
width = 678;
}
);
unicode = 35;
},
{
glyphname = slash;
layers = (
{
layerId = master01;
shapes = (
{
closed = 1;
nodes = (
(310,745,l),
(431,745,l),
(173,-81,l),
(53,-81,l)
);
}
);
width = 472;
}
);
unicode = 47;
},
{
glyphname = backslash;
layers = (
{
layerId = master01;
shapes = (
{
closed = 1;
nodes = (
(161,746,l),
(419,-80,l),
(298,-80,l),
(41,746,l)
);
}
);
width = 472;
}
);
unicode = 92;
},
{
glyphname = hyphen;
layers = (
{
layerId = master01;
shapes = (
{
closed = 1;
nodes = (
(46,353,l),
(327,353,l),
(327,250,l),
(46,250,l)
);
}
);
width = 373;
}
);
unicode = 45;
},
{
glyphname = endash;
layers = (
{
layerId = master01;
shapes = (
{
closed = 1;
nodes = (
(55,353,l),
(470,353,l),
(470,250,l),
(55,250,l)
);
}
);
width = 525;
}
);
unicode = 8211;
},
{
glyphname = emdash;
layers = (
{
layerId = master01;
shapes = (
{
closed = 1;
nodes = (
(55,353,l),
(714,353,l),
(714,250,l),
(55,250,l)
);
}
);
width = 768;
}
);
unicode = 8212;
},
{
glyphname = underscore;
layers = (
{
layerId = master01;
shapes = (
{
closed = 1;
nodes = (
(714,-55,l),
(714,-158,l),
(55,-158,l),
(55,-55,l)
);
}
);
width = 768;
}
);
unicode = 95;
},
{
glyphname = parenleft;
layers = (
{
layerId = master01;
shapes = (
{
closed = 1;
nodes = (
(73,570.157,o),
(282,754,q),
(367,692,l),
(281,602,o),
(195,421,o),
(195,215,o),
(281,36,o),
(367,-54,q),
(282,-118,l),
(73,67.778,o),
(73,318,qs)
);
}
);
width = 400;
}
);
unicode = 40;
},
{
glyphname = parenright;
layers = (
{
layerId = master01;
shapes = (
{
closed = 1;
nodes = (
(119,36,o),
(205,215,o),
(205,421,o),
(118,602,o),
(32,692,q),
(118,754,l),
(327,568.439,o),
(327,318,qs),
(327,69.514,o),
(118,-118,q),
(32,-54,l)
);
}
);
width = 400;
}
);
unicode = 41;
},
{
glyphname = braceleft;
layers = (
{
layerId = master01;
shapes = (
{
closed = 1;
nodes = (
(71,379,l),
(96,379,ls),
(116,379,o),
(129,410,o),
(129,452,qs),
(129,544,ls),
(129,723.265,o),
(270,776.5,qs),
(319,795,o),
(387,795,q),
(387,688,l),
(313,688,o),
(246,617,o),
(246,542,qs),
(246,446,ls),
(246,398,o),
(209,336,o),
(180,322,q),
(180,317,l),
(209,303,o),
(246,241,o),
(246,193,qs),
(246,97,ls),
(246,22,o),
(313,-49,o),
(387,-49,q),
(387,-156,l),
(255.791,-156,o),
(189.5,-85.5,qs),
(129,-21.159,o),
(129,96,qs),
(129,187,ls),
(129,229,o),
(116,260,o),
(96,260,qs),
(71,260,l)
);
}
);
width = 391;
}
);
unicode = 123;
},
{
glyphname = braceright;
layers = (
{
layerId = master01;
shapes = (
{
closed = 1;
nodes = (
(78,-49,o),
(145,22,o),
(145,97,qs),
(145,193,ls),
(145,241,o),
(182,303,o),
(211,317,q),
(211,322,l),
(182,336,o),
(145,398,o),
(145,446,qs),
(145,542,ls),
(145,617,o),
(78,688,o),
(4,688,q),
(4,795,l),
(135.209,795,o),
(201.5,724.5,qs),
(262,660.159,o),
(262,544,qs),
(262,452,ls),
(262,410,o),
(275,379,o),
(295,379,qs),
(320,379,l),
(320,260,l),
(295,260,ls),
(275,260,o),
(262,229,o),
(262,187,qs),
(262,96,ls),
(262,-84.265,o),
(121,-137.5,qs),
(72,-156,o),
(4,-156,q),
(4,-49,l)
);
}
);
width = 391;
}
);
unicode = 125;
},
{
glyphname = bracketleft;
layers = (
{
layerId = master01;
shapes = (
{
closed = 1;
nodes = (
(93,790,l),
(340,790,l),
(340,684,l),
(211,684,l),
(211,-34,l),
(340,-34,l),
(340,-141,l),
(93,-141,l)
);
}
);
width = 352;
}
);
unicode = 91;
},
{
glyphname = bracketright;
layers = (
{
layerId = master01;
shapes = (
{
closed = 1;
nodes = (
(125,-34,l),
(125,684,l),
(-4,684,l),
(-4,790,l),
(243,790,l),
(243,-141,l),
(-4,-141,l),
(-4,-34,l)
);
}
);
width = 336;
}
);
unicode = 93;
},
{
glyphname = quoteleft;
layers = (
{
layerId = master01;
shapes = (
{
closed = 1;
nodes = (
(101,658.892,o),
(155,685.892,q),
(238,639.892,l),
(160.713,603.521,o),
(145,552.892,q),
(173,547.892,o),
(212,513.892,o),
(212,454.892,o),
(167,412.892,o),
(87,412.892,o),
(36,475.892,o),
(36,568.892,o)
);
}
);
width = 271;
}
);
unicode = 8216;
},
{
glyphname = quoteright;
layers = (
{
layerId = master01;
shapes = (
{
closed = 1;
nodes = (
(106.106,496.452,o),
(122,545.899,q),
(93,550.899,o),
(54,584.899,o),
(54,644.899,o),
(100,685.899,o),
(179,685.899,o),
(230,622.899,o),
(230,529.899,o),
(165,439.899,o),
(111,412.899,q),
(29,457.899,l)
);
}
);
width = 271;
}
);
unicode = 8217;
},
{
glyphname = guillemetleft;
lastChange = "2023-04-20 11:32:42 +0000";
layers = (
{
layerId = master01;
shapes = (
{
closed = 1;
nodes = (
(176,429,l),
(285,429,l),
(147,233,l),
(285,37,l),
(176,37,l),
(30,233,l)
);
},
{
closed = 1;
nodes = (
(368,429,l),
(477,429,l),
(339,233,l),
(477,37,l),
(368,37,l),
(222,233,l)
);
}
);
width = 507;
}
);
unicode = 171;
},
{
glyphname = guillemetright;
lastChange = "2023-04-20 11:32:42 +0000";
layers = (
{
layerId = master01;
shapes = (
{
closed = 1;
nodes = (
(139,37,l),
(285,233,l),
(139,429,l),
(30,429,l),
(168,233,l),
(30,37,l)
);
},
{
closed = 1;
nodes = (
(331,37,l),
(477,233,l),
(331,429,l),
(222,429,l),
(360,233,l),
(222,37,l)
);
}
);
width = 507;
}
);
unicode = 187;
},
{
glyphname = guilsinglleft;
layers = (
{
layerId = master01;
shapes = (
{
closed = 1;
nodes = (
(176,429,l),
(285,429,l),
(147,233,l),
(285,37,l),
(176,37,l),
(30,233,l)
);
}
);
width = 315;
}
);
unicode = 8249;
},
{
glyphname = guilsinglright;
layers = (
{
layerId = master01;
shapes = (
{
closed = 1;
nodes = (
(139,37,l),
(285,233,l),
(139,429,l),
(30,429,l),
(168,233,l),
(30,37,l)
);
}
);
width = 315;
}
);
unicode = 8250;
},
{
glyphname = quotedbl;
layers = (
{
layerId = master01;
shapes = (
{
closed = 1;
nodes = (
(150,686,l),
(134,448,l),
(47,448,l),
(32,686,l)
);
},
{
closed = 1;
nodes = (
(351,686,l),
(335,448,l),
(248,448,l),
(233,686,l)
);
}
);
width = 383;
}
);
unicode = 34;
},
{
glyphname = quotesingle;
layers = (
{
layerId = master01;
shapes = (
{
closed = 1;
nodes = (
(149,677,l),
(133,439,l),
(46,439,l),
(31,677,l)
);
}
);
width = 180;
}
);
unicode = 39;
},
{
glyphname = at;
layers = (
{
layerId = master01;
shapes = (
{
closed = 1;
nodes = (
(141,478,o),
(273,597,o),
(454,662,o),
(653,662,o),
(807,605,o),
(916,505,o),
(976,370,o),
(976,224,o),
(934,117,o),
(867,44,o),
(780,6,o),
(687,6,o),
(627,41,o),
(618,73,q),
(612,89,l),
(592,51,o),
(535,6,o),
(451,6,o),
(392,34,o),
(369,58.5,qs),
(318,112.826,o),
(318,192,qs),
(318,295.409,o),
(390,368.5,qs),
(460.433,440,o),
(559,440,qs),
(625,440,o),
(704,361,o),
(704,281,qs),
(704,150,ls),
(704,99,o),
(739,99,qs),
(755,99,o),
(796,120,o),
(814,143.5,qs),
(857,199.639,o),
(857,293,qs),
(857,409.079,o),
(780,480,qs),
(697.486,556,o),
(560,556,qs),
(394.688,556,o),
(289.5,454,qs),
(186,353.636,o),
(186,202,qs),
(186,55.367,o),
(285,-30.5,qs),
(389.341,-121,o),
(569,-121,q),
(569,-218,l),
(455,-218,o),
(270,-151,o),
(138,-36,o),
(67,120,o),
(67,311,o)
);
},
{
closed = 1;
nodes = (
(425,149,o),
(472,102,o),
(542,102,o),
(589,141,o),
(609,180,q),
(609,280,ls),
(609,311,o),
(586,349,o),
(534,349,o),
(488,328,o),
(469,307.5,qs),
(425,260.026,o),
(425,194,qs)
);
}
);
width = 1027;
}
);
unicode = 64;
},
{
glyphname = ampersand;
layers = (
{
layerId = master01;
shapes = (
{
closed = 1;
nodes = (
(92,314.886,o),
(275,344,q),
(259,359,l),
(187,424.25,o),
(187,502,qs),
(187,571.25,o),
(244,614,qs),
(305.333,660,o),
(406,660,qs),
(503.262,660,o),
(563.5,614,qs),
(620,570.855,o),
(620,441,o),
(537,352,o),
(452,320,q),
(579,205,l),
(640.363,277.869,o),
(684,388,q),
(764,344,l),
(720.15,218.715,o),
(654,137,q),
(671,122,ls),
(689,106,o),
(721,90,o),
(768,90,o),
(802,125,o),
(804,164,q),
(911,164,l),
(909,82,o),
(832,-14,o),
(756,-14,qs),
(708,-14,o),
(627,24,o),
(582,65,q),
(482.211,-14,o),
(360,-14,qs),
(247.556,-14,o),
(170.5,43,qs),
(92,101.068,o),
(92,185,qs)
);
},
{
closed = 1;
nodes = (
(222,150,o),
(295,93,o),
(361,93,qs),
(436.952,93,o),
(504,137,q),
(342,284,l),
(222,266.857,o),
(222,192,qs)
);
},
{
closed = 1;
nodes = (
(317,441,o),
(364,400,q),
(387,379,l),
(441,402,o),
(490,454,o),
(490,519,o),
(444,558,o),
(362,558,o),
(317,515,o),
(317,485,qs)
);
}
);
width = 965;
}
);
unicode = 38;
},
{
glyphname = copyright;
layers = (
{
layerId = master01;
shapes = (
{
closed = 1;
nodes = (
(29.952,484.745,o),
(131.224,584.592,qs),
(232.494,684.438,o),
(375.129,684.438,qs),
(516.339,684.438,o),
(618.322,583.879,qs),
(720.307,483.321,o),
(720.307,340.686,qs),
(720.307,198.051,o),
(619.035,96.779,qs),
(517.764,-4.492,o),
(375.129,-4.492,qs),
(232.494,-4.492,o),
(131.224,96.779,qs),
(29.952,198.051,o),
(29.952,340.686,qs)
);
},
{
closed = 1;
nodes = (
(74,219,o),
(159.771,128.11,qs),
(246,36,o),
(376.869,36.345,qs),
(507,37,o),
(591.732,126.991,qs),
(677,218,o),
(676.78,342.972,qs),
(677,468,o),
(589.494,555.597,qs),
(502,643,o),
(376.869,642.886,qs),
(249,643,o),
(162.006,555.597,qs),
(75,469,o),
(74.72,342.972,qs)
);
},
{
pos = (140.72,126.04);
ref = c;
scale = (0.88,0.88);
}
);
width = 753;
}
);
unicode = 169;
},
{
glyphname = registered;
layers = (
{
layerId = master01;
shapes = (
{
closed = 1;
nodes = (
(33.952,484.745,o),
(135.224,584.592,qs),
(236.494,684.438,o),
(379.129,684.438,qs),
(520.339,684.438,o),
(622.322,583.879,qs),
(724.307,483.321,o),
(724.307,340.686,qs),
(724.307,198.051,o),
(623.035,96.779,qs),
(521.764,-4.492,o),
(379.129,-4.492,qs),
(236.494,-4.492,o),
(135.224,96.779,qs),
(33.952,198.051,o),
(33.952,340.686,qs)
);
},
{
closed = 1;
nodes = (
(78,219,o),
(163.771,128.11,qs),
(250,36,o),
(380.869,36.345,qs),
(511,37,o),
(595.732,126.991,qs),
(681,218,o),
(680.78,342.972,qs),
(681,468,o),
(593.494,555.597,qs),
(506,643,o),
(380.869,642.886,qs),
(253,643,o),
(166.006,555.597,qs),
(79,469,o),
(78.72,342.972,qs)
);
},
{
pos = (169.298,121.992);
ref = R;
scale = (0.6887,0.6854);
}
);
width = 765;
}
);
unicode = 174;
},
{
glyphname = bar;
layers = (
{
layerId = master01;
shapes = (
{
closed = 1;
nodes = (
(93,771,l),
(211,771,l),
(211,-122,l),
(93,-122,l)
);
}
);
width = 304;
}
);
unicode = 124;
},
{
glyphname = dollar;
layers = (
{
layerId = master01;
shapes = (
{
closed = 1;
nodes = (
(182,203,l),
(182,155,o),
(244,105,o),
(303,98,q),
(303,292,l),
(253,309,ls),
(169,337,o),
(77,416,o),
(77,558,o),
(192,653,o),
(303,661,q),
(303,737,l),
(387,737,l),
(387,660,l),
(484,650,o),
(586,550,o),
(600,470,q),
(483,470,l),
(478,500,o),
(429,547,o),
(387,556,q),
(387,374,l),
(475,343,ls),
(550,317,o),
(624,238,o),
(624,173,qs),
(624,101.5,o),
(566,50.5,qs),
(502.389,-5.433,o),
(387,-13,q),
(387,-101,l),
(303,-101,l),
(303,-11,l),
(199,-0.6,o),
(134.5,51,qs),
(65,106.6,o),
(65,203,q)
);
},
{
closed = 1;
nodes = (
(238,422,o),
(273,410,q),
(303,398,l),
(303,559,l),
(255,553,o),
(206,511,o),
(206,455,o)
);
},
{
closed = 1;
nodes = (
(441,101,o),
(491,145,o),
(491,175,qs),
(491,232.257,o),
(419,259,qs),
(387,271,l),
(387,96,l)
);
}
);
width = 689;
}
);
unicode = 36;
},
{
glyphname = euro;
lastChange = "2023-04-20 11:32:42 +0000";
layers = (
{
layerId = master01;
shapes = (
{
closed = 1;
nodes = (
(52,287,l),
(105.231,287,l),
(104,305.965,o),
(104,326,qs),
(104,330.528,o),
(104.063,335,q),
(29,335,l),
(54,414,l),
(110.832,414,l),
(127.305,512.813,o),
(183.5,576.5,qs),
(258.941,662,o),
(377.5,662,qs),
(437,662,o),
(519,633,o),
(551,607,qs),
(614.264,555.598,o),
(633,464,q),
(507,441,l),
(491,492,o),
(424,555,o),
(380,555,qs),
(318.368,555,o),
(276,497.5,qs),
(250.839,463.353,o),
(239.747,414,q),
(489,414,l),
(464,335,l),
(231.065,335,l),
(231,330.892,o),
(231,326.714,qs),
(231,305.997,o),
(232.426,287,q),
(452,287,l),
(425,206,l),
(247.393,206,l),
(256.607,177.629,o),
(271,155.5,qs),
(311,94,o),
(437,94,o),
(507,161,o),
(507,214,q),
(634,214,l),
(634,105,o),
(495,-14,o),
(380,-14,qs),
(256.682,-14,o),
(181,76,qs),
(135.96,129.561,o),
(117.265,206,q),
(25,206,l)
);
}
);
width = 686;
}
);
unicode = 8364;
},
{
glyphname = rupee;
lastChange = "2023-04-20 11:32:42 +0000";
layers = (
{
layerId = master01;
shapes = (
{
closed = 1;
nodes = (
(83,313,l),
(160,313,l),
(233,315,o),
(308,375,o),
(316,422,q),
(83,422,l),
(83,489,l),
(312,489,l),
(301,531,o),
(223,583,o),
(152,583,qs),
(83,583,l),
(83,649,l),
(547,649,l),
(547,583,l),
(365,583,l),
(425,547,o),
(440,489,q),
(547,489,l),
(547,422,l),
(443,422,l),
(436,358,o),
(342,267,o),
(243,252,q),
(504,0,l),
(338,0,l),
(83,246,l)
);
}
);
width = 604;
}
);
unicode = 8360;
},
{
glyphname = sterling;
layers = (
{
layerId = master01;
shapes = (
{
closed = 1;
nodes = (
(22,107,l),
(54,107,ls),
(91,107,o),
(121,149,o),
(121,194,qs),
(121,281,l),
(38,281,l),
(38,360,l),
(121,360,l),
(121,444,ls),
(121,552,o),
(233,662,o),
(325,662,qs),
(493,662,o),
(517,487,q),
(401,487,l),
(396,520,o),
(356,555,o),
(287,555,o),
(239,501,o),
(239,444,qs),
(239,360,l),
(410,360,l),
(410,281,l),
(239,281,l),
(239,202,ls),
(239,137,o),
(203,107,q),
(339,107,ls),
(389,107,o),
(432,144,o),
(437,184,q),
(566,184,l),
(561.812,91.855,o),
(512,48.5,qs),
(456.277,-1.421,o),
(340,0,qs),
(22,0,l)
);
}
);
width = 602;
}
);
unicode = 163;
},
{
glyphname = yen;
layers = (
{
layerId = master01;
shapes = (
{
closed = 1;
nodes = (
(104,629,l),
(273,340,l),
(446,629,l),
(539,629,l),
(313,258,l),
(313,0,l),
(233,0,l),
(233,258,l),
(10,629,l)
);
},
{
closed = 1;
nodes = (
(57,404,l),
(174,404,l),
(274,332,l),
(358,404,l),
(492,404,l),
(492,329,l),
(57,329,l)
);
},
{
closed = 1;
nodes = (
(74,255,l),
(477,255,l),
(477,180,l),
(74,180,l)
);
}
);
width = 549;
}
);
unicode = 165;
},
{
glyphname = plus;
layers = (
{
layerId = master01;
shapes = (
{
closed = 1;
nodes = (
(18,297,l),
(213,297,l),
(213,491,l),
(331,491,l),
(331,297,l),
(526,297,l),
(526,194,l),
(331,194,l),
(331,0,l),
(213,0,l),
(213,194,l),
(18,194,l)
);
}
);
width = 544;
}
);
unicode = 43;
},
{
glyphname = minus;
layers = (
{
layerId = master01;
shapes = (
{
closed = 1;
nodes = (
(79,353,l),
(427,353,l),
(427,250,l),
(79,250,l)
);
}
);
width = 506;
}
);
unicode = 8722;
},
{
glyphname = multiply;
layers = (
{
layerId = master01;
shapes = (
{
closed = 1;
nodes = (
(94,17,l),
(276.5,199.5,l),
(459,17,l),
(537,95,l),
(354.5,277.5,l),
(537,460,l),
(459,538,l),
(276.5,355.5,l),
(94,538,l),
(16,460,l),
(198.5,277.5,l),
(16,95,l)
);
}
);
width = 554;
}
);
unicode = 215;
},
{
glyphname = equal;
layers = (
{
layerId = master01;
shapes = (
{
closed = 1;
nodes = (
(79,198,l),
(427,198,l),
(427,95,l),
(79,95,l)
);
},
{
closed = 1;
nodes = (
(79,408,l),
(427,408,l),
(427,306,l),
(79,306,l)
);
}
);
width = 506;
}
);
unicode = 61;
},
{
glyphname = greater;
layers = (
{
layerId = master01;
shapes = (
{
closed = 1;
nodes = (
(335,322,l),
(45,527,l),
(123,617,l),
(457,376,l),
(457,269,l),
(123,28,l),
(45,118,l)
);
}
);
width = 502;
}
);
unicode = 62;
},
{
glyphname = less;
layers = (
{
layerId = master01;
shapes = (
{
closed = 1;
nodes = (
(45,376,l),
(379,617,l),
(457,527,l),
(166,322,l),
(457,118,l),
(379,28,l),
(45,269,l)
);
}
);
width = 502;
}
);
unicode = 60;
},
{
glyphname = plusminus;
layers = (
{
layerId = master01;
shapes = (
{
closed = 1;
nodes = (
(18,491,l),
(213,491,l),
(213,685,l),
(331,685,l),
(331,491,l),
(526,491,l),
(526,388,l),
(331,388,l),
(331,194,l),
(213,194,l),
(213,388,l),
(18,388,l)
);
},
{
pos = (81,-248);
ref = hyphen;
}
);
width = 544;
}
);
unicode = 177;
},
{
glyphname = asciitilde;
layers = (
{
layerId = master01;
shapes = (
{
closed = 1;
nodes = (
(74,303,o),
(135,378,o),
(185,378,qs),
(219,378,o),
(274,357,qs),
(360.429,324,o),
(384,324,qs),
(425,324,o),
(449,380,q),
(513,339,l),
(473.312,212,o),
(375,212,qs),
(342.067,212,o),
(273,240,q),
(236,253,o),
(199,265,o),
(184,265,qs),
(145.879,265,o),
(120,204,q),
(57,238,l)
);
}
);
width = 570;
}
);
unicode = 126;
},
{
glyphname = asciicircum;
layers = (
{
layerId = master01;
shapes = (
{
closed = 1;
nodes = (
(218,603,l),
(314,603,l),
(511,218,l),
(381,218,l),
(266,464,l),
(150,218,l),
(20,218,l)
);
}
);
width = 527;
}
);
unicode = 94;
},
{
glyphname = percent;
layers = (
{
layerId = master01;
shapes = (
{
closed = 1;
nodes = (
(61,584.579,o),
(102,624.5,qs),
(140.514,662,o),
(197.5,662,qs),
(225,662,o),
(275,643,o),
(294,624.5,qs),
(335,584.579,o),
(335,511,qs),
(335,438,o),
(294,397,qs),
(256,359,o),
(197,359,qs),
(140,359,o),
(102,397,qs),
(61,438,o),
(61,511,qs)
);
},
{
closed = 1;
nodes = (
(546,649,l),
(665,649,l),
(226,0,l),
(106,0,l)
);
},
{
closed = 1;
nodes = (
(149,434,o),
(197,434,qs),
(246,434,o),
(246,511,qs),
(246,587,o),
(197,587,qs),
(149,587,o),
(149,511,qs)
);
},
{
closed = 1;
nodes = (
(436,212.579,o),
(477,252.5,qs),
(515.513,290,o),
(630.487,290,o),
(669,252.5,qs),
(710,212.579,o),
(710,139,qs),
(710,65,o),
(669,24,qs),
(631,-14,o),
(515,-14,o),
(477,24,qs),
(436,65,o),
(436,139,qs)
);
},
{
closed = 1;
nodes = (
(573,62,qs),
(594,62,o),
(622,97,o),
(622,180,o),
(594,215,o),
(573,215,qs),
(525,215,o),
(525,62,o)
);
}
);
width = 765;
}
);
unicode = 37;
},
{
glyphname = dotaccentcomb;
lastChange = "2023-04-20 11:32:42 +0000";
layers = (
{
layerId = master01;
shapes = (
{
closed = 1;
nodes = (
(-315,708,o),
(-243,708,o),
(-195,662,o),
(-195,594,o),
(-243,550,o),
(-315,550,o),
(-361,594,o),
(-361,662,o)
);
}
);
width = 0;
}
);
unicode = 775;
},
{
glyphname = dieresis;
layers = (
{
layerId = master01;
shapes = (
{
closed = 1;
nodes = (
(63,902,o),
(125,902,o),
(165,864,o),
(165,807,o),
(125,770,o),
(63,770,o),
(24,807,o),
(24,864,o)
);
},
{
closed = 1;
nodes = (
(257,903,o),
(318,903,o),
(358,865,o),
(358,807,o),
(318,771,o),
(257,771,o),
(217,807,o),
(217,865,o)
);
}
);
width = 382;
}
);
unicode = 168;
},
{
glyphname = grave;
layers = (
{
layerId = master01;
shapes = (
{
closed = 1;
nodes = (
(66,900,l),
(333,768,l),
(303,694,l),
(24,798,l)
);
}
);
width = 356;
}
);
unicode = 96;
},
{
glyphname = acute;
layers = (
{
layerId = master01;
shapes = (
{
closed = 1;
nodes = (
(290,900,l),
(332,798,l),
(53,694,l),
(23,768,l)
);
}
);
width = 356;
}
);
unicode = 180;
},
{
glyphname = hungarumlaut;
layers = (
{
layerId = master01;
shapes = (
{
closed = 1;
nodes = (
(153,899,l),
(219,860,l),
(84,627,l),
(36,655,l)
);
},
{
closed = 1;
nodes = (
(320,899,l),
(386,860,l),
(251,627,l),
(203,655,l)
);
}
);
width = 422;
}
);
unicode = 733;
},
{
glyphname = circumflex;
layers = (
{
layerId = master01;
shapes = (
{
closed = 1;
nodes = (
(233,913,l),
(441,752,l),
(366,693,l),
(233,794,l),
(99,693,l),
(24,752,l)
);
}
);
width = 465;
}
);
unicode = 710;
},
{
glyphname = caron;
layers = (
{
layerId = master01;
shapes = (
{
closed = 1;
nodes = (
(233,693.033,l),
(441,854.033,l),
(366,913.033,l),
(233,812.033,l),
(99,913.033,l),
(24,854.033,l)
);
}
);
width = 465;
}
);
unicode = 711;
},
{
glyphname = breve;
layers = (
{
layerId = master01;
shapes = (
{
closed = 1;
nodes = (
(92,732,l),
(100,666,o),
(166,666,qs),
(206,666,o),
(242,700,o),
(245,732,q),
(322,732,l),
(311,592,o),
(170,592,qs),
(134,592,o),
(68,616,o),
(15,680,o),
(14,732,q)
);
}
);
width = 333;
}
);
unicode = 728;
},
{
glyphname = ring;
layers = (
{
layerId = master01;
shapes = (
{
closed = 1;
nodes = (
(111.797,802.93,o),
(214.336,802.93,o),
(287.09,730.176,o),
(287.09,627.637,o),
(215.312,554.883,o),
(110.82,554.883,o),
(39.043,627.637,o),
(39.043,730.176,o)
);
},
{
closed = 1;
nodes = (
(102.031,651.562,o),
(138.164,616.406,o),
(163.066,616.406,qs),
(188.945,616.406,o),
(225.078,652.539,o),
(225.078,678.906,qs),
(225.078,703.809,o),
(189.434,739.941,o),
(163.066,739.941,qs),
(138.164,739.941,o),
(102.031,704.785,o),
(102.031,678.906,qs)
);
}
);
width = 422;
}
);
unicode = 730;
},
{
glyphname = tilde;
layers = (
{
layerId = master01;
shapes = (
{
closed = 1;
nodes = (
(35,820,o),
(92,887,o),
(130,887,qs),
(156.714,887,o),
(229,850,o),
(254,838,o),
(266,838,qs),
(298.269,838,o),
(319,887,q),
(369,854,l),
(358,800,o),
(301,731,o),
(269,731,qs),
(251,731,o),
(216,745,o),
(189.5,758.5,qs),
(145.333,781,o),
(129.167,781,qs),
(94.138,781,o),
(70,731,q),
(23,759,l)
);
}
);
width = 394;
}
);
unicode = 732;
},
{
glyphname = macron;
layers = (
{
layerId = master01;
shapes = (
{
closed = 1;
nodes = (
(21,890,l),
(354,890,l),
(354,800,l),
(21,800,l)
);
}
);
width = 373;
}
);
unicode = 175;
},
{
glyphname = cedilla;
layers = (
{
layerId = master01;
shapes = (
{
closed = 1;
nodes = (
(213.999,-137.224,o),
(238.478,-137.224,qs),
(306.919,-137.224,o),
(306.919,-106.501,qs),
(306.919,-90.918,o),
(278.943,-75.779,o),
(245.972,-75.779,qs),
(226.987,-75.779,o),
(219.993,-76.67,q),
(250.967,-0.086,l),
(322.406,-0.086,l),
(305.92,-36.597,l),
(352.88,-38.823,o),
(398.341,-75.334,o),
(398.341,-104.721,qs),
(398.341,-146.574,o),
(320.408,-189.318,o),
(246.971,-189.318,qs),
(224.49,-189.318,o),
(196.514,-186.646,q),
(196.514,-134.107,l)
);
}
);
width = 682;
}
);
unicode = 184;
},
{
glyphname = ogonek;
layers = (
{
layerId = master01;
shapes = (
{
closed = 1;
nodes = (
(216,-56,o),
(261.578,-12.827,qs),
(275,0,o),
(291.257,9.82,q),
(334.256,2.893,l),
(279,-32,o),
(279.104,-79.17,qs),
(279,-99,o),
(290.5,-110.5,qs),
(318.6,-138.6,o),
(369,-105,q),
(385.667,-151.642,l),
(356,-179,o),
(309.5,-179,qs),
(216,-179,o),
(216,-96.5,qs)
);
}
);
width = 614;
}
);
unicode = 731;
},
{
glyphname = apostrophemod;
lastChange = "2023-04-20 11:32:42 +0000";
layers = (
{
layerId = master01;
shapes = (
{
closed = 1;
nodes = (
(69,475,o),
(120,517,o),
(128,545,q),
(100,550,o),
(61,585,o),
(61,644,o),
(107,686,o),
(187,686,o),
(237,624,o),
(237,579,qs),
(237,505.714,o),
(171,446,qs),
(150,427,o),
(124,414,q),
(36,458,l)
);
}
);
width = 237;
}
);
unicode = 700;
},
